<svg version="1.1" id="Layer_1" xmlns="http://www.w3.org/2000/svg" xmlns:xlink="http://www.w3.org/1999/xlink" x="0px" y="0px" viewBox="0 0 61.4 61.4" enable-background="new 0 0 61.4 61.4" xml:space="preserve" width="137"  height="137" >
<g>
	<defs>
		<path id="SVGID_4_" d="M31.2,33.2l-0.1,0.3l0.4,0.1c0.1,0,0.1,0.1,0.1,0.2v2.6c0,0.1,0,0.1-0.1,0.1l-0.5,0v0.3h1.7v-0.3l-0.5-0.1
			c-0.1,0-0.1,0-0.1-0.1v-3.2H31.2z M35.3,33.2l-0.1,0.3l0.5,0.1l-1.1,2.9l-1.1-2.9l0.5-0.1v-0.3h-1.4l-0.1,0.3l0.3,0.1
			c0.1,0,0.1,0,0.2,0.1l1.2,3.2h0.5l1.2-3.2c0-0.1,0.1-0.1,0.2-0.1l0.2,0v-0.3H35.3z M46,33.2l-0.1,0.3l0.4,0.1
			c0.1,0,0.1,0.1,0.1,0.2v2.6c0,0.1,0,0.1-0.1,0.1l-0.5,0v0.3h1.7v-0.3L47,36.5c-0.1,0-0.1,0-0.1-0.1v-3.2H46z M52.7,33.2l-0.1,0.3
			l0.5,0.1l-1.1,2.7l-1-2.7l0.5-0.1v-0.3h-1.4l-0.1,0.3l0.3,0.1c0.1,0,0.1,0,0.2,0.1l1.3,3.1l-0.5,1.1c0,0.1-0.1,0.1-0.2,0.2
			l-0.5,0.1v0.3h1.8v-0.3L51.8,38l1.8-4.4c0-0.1,0.1-0.1,0.2-0.1l0.2,0v-0.3H52.7z M27.7,33.6L27.7,33.6l-0.1-0.5h-0.8l-0.1,0.3
			l0.4,0.1c0.1,0,0.1,0.1,0.1,0.2v2.6c0,0.1,0,0.1-0.1,0.1l-0.4,0v0.3h1.5v-0.3l-0.4-0.1c-0.1,0-0.1,0-0.1-0.1v-2.3
			c0.2-0.2,0.7-0.5,1.3-0.5c0.5,0,0.7,0.3,0.7,1.1v1.7c0,0.1,0,0.1-0.1,0.1l-0.4,0v0.3h1.5v-0.3l-0.4-0.1c-0.1,0-0.1,0-0.1-0.1v-1.9
			c0-0.8-0.3-1.4-1.1-1.4C28.6,33.1,28.1,33.4,27.7,33.6 M38.2,33.5c0.5,0,0.9,0.3,0.9,1.2h-2C37.2,33.8,37.7,33.5,38.2,33.5
			 M36.6,35c0,1.1,0.4,1.9,1.7,1.9c0.5,0,0.9-0.1,1.2-0.3l-0.2-0.4c-0.3,0.2-0.6,0.3-1,0.3c-0.9,0-1.2-0.6-1.2-1.4h2.5
			c0-0.1,0-0.2,0-0.3c0-1.2-0.6-1.7-1.4-1.7C37.3,33.1,36.6,33.7,36.6,35 M41,33.6L41,33.2h-0.8l-0.1,0.3l0.4,0.1
			c0.1,0,0.1,0.1,0.1,0.2v2.6c0,0.1,0,0.1-0.1,0.1l-0.4,0v0.3h1.7v-0.3l-0.6-0.1c-0.1,0-0.1,0-0.1-0.1v-2.3c0.2-0.2,0.6-0.5,1-0.5
			c0.1,0,0.1,0,0.1,0.1l0.1,0.5l0.4,0v-1c-0.1,0-0.3-0.1-0.5-0.1C41.6,33.1,41.3,33.4,41,33.6 M43,34.2c0,0.8,0.6,0.9,1.2,1
			c0.5,0.1,0.9,0.2,0.9,0.7c0,0.4-0.3,0.6-0.9,0.6c-0.4,0-0.7-0.1-0.8-0.1c-0.1,0-0.1,0-0.1-0.1l-0.1-0.5l-0.4,0v0.9
			c0.1,0.1,0.7,0.2,1.3,0.2c0.7,0,1.4-0.3,1.4-1.1c0-0.8-0.6-0.9-1.2-1.1c-0.5-0.1-0.9-0.2-0.9-0.7c0-0.3,0.2-0.6,0.8-0.6
			c0.3,0,0.5,0.1,0.6,0.1c0.1,0,0.1,0.1,0.1,0.1l0.1,0.5l0.4,0v-0.9c-0.1-0.1-0.6-0.2-1.1-0.2C43.6,33.1,43,33.4,43,34.2 M48.5,32.3
			c-0.1,0.7-0.2,0.9-0.8,1v0.3h0.5c0.1,0,0.1,0,0.1,0.1V36c0,0.6,0.3,0.9,0.9,0.9c0.3,0,0.7-0.1,0.9-0.2L50,36.4
			c-0.2,0.1-0.5,0.1-0.7,0.1c-0.4,0-0.5-0.2-0.5-0.6v-2.3h1.1v-0.4h-1.1c-0.1,0-0.1,0-0.1-0.1v-0.8H48.5z M24.8,31.6V32l0.5,0
			c0.1,0,0.1,0,0.1,0.1v3c0,1-0.5,1.4-1.3,1.4c-0.9,0-1.4-0.4-1.4-1.4v-3c0-0.1,0-0.1,0.1-0.1l0.5-0.1v-0.3h-1.6V32l0.5,0
			c0.1,0,0.1,0,0.1,0.1v3c0,1.2,0.5,1.8,1.8,1.8c1.2,0,1.9-0.6,1.9-1.8v-3c0-0.1,0-0.1,0.1-0.1l0.5-0.1v-0.3H24.8z M31.4,31.9
			c0,0.2,0.1,0.4,0.4,0.4c0.2,0,0.4-0.1,0.4-0.4c0-0.2-0.1-0.4-0.4-0.4C31.6,31.5,31.4,31.7,31.4,31.9 M46.2,31.9
			c0,0.2,0.1,0.4,0.4,0.4c0.2,0,0.4-0.1,0.4-0.4c0-0.2-0.1-0.4-0.4-0.4C46.3,31.5,46.2,31.7,46.2,31.9 M27.9,26.6L27.9,26.6L27.7,26
			h-1.3l-0.1,0.6l0.4,0.1c0.1,0,0.1,0.1,0.1,0.2v2.2c0,0.1,0,0.1-0.1,0.1l-0.3,0v0.6h2.4v-0.6l-0.7-0.1c-0.1,0-0.1,0-0.1-0.1v-2
			c0.1-0.1,0.3-0.3,0.5-0.3c0.1,0,0.1,0,0.1,0.1l0.1,0.4l0.9,0V26c-0.1,0-0.5-0.1-0.6-0.1C28.4,25.9,28.1,26.2,27.9,26.6 M30.9,28.7
			c0-0.3,0.2-0.4,0.6-0.4l0.5,0v0.6c-0.2,0.1-0.4,0.3-0.7,0.3C31.1,29.1,30.9,29,30.9,28.7 M29.9,27.1l1,0.1c0-0.4,0.2-0.5,0.5-0.5
			c0.5,0,0.5,0.2,0.5,0.6v0.4l-0.9,0.1c-0.9,0.1-1.4,0.4-1.4,1.1c0,0.5,0.1,1.1,1.1,1.1c0.6,0,1-0.2,1.2-0.5l0,0l0.1,0.4h1.4v-0.6
			l-0.4-0.1c-0.1,0-0.1,0-0.1-0.1v-1.8c0-1-0.5-1.3-1.6-1.3C30.9,25.9,29.9,26.1,29.9,27.1 M35.3,26.4L35.3,26.4L35.2,26h-1.3
			l-0.1,0.6l0.4,0.1c0.1,0,0.1,0.1,0.1,0.2v2.2c0,0.1,0,0.1-0.1,0.1l-0.3,0v0.6h2v-0.6l-0.4-0.1c-0.1,0-0.1,0-0.1-0.1v-2
			c0.2-0.1,0.5-0.3,0.8-0.3c0.4,0,0.4,0.3,0.4,0.7v2.4h1.6v-0.6l-0.4-0.1c-0.1,0-0.1,0-0.1-0.1v-1.9c0-0.8-0.3-1.3-1.1-1.3
			C36.1,25.9,35.7,26.1,35.3,26.4 M45.2,26.7c0.3,0,0.5,0.2,0.6,0.8h-1.2C44.6,26.9,44.9,26.7,45.2,26.7 M43.4,27.9
			c0,1.2,0.5,2,1.9,2c0.6,0,1.1-0.2,1.5-0.4l-0.3-0.7c-0.5,0.2-0.8,0.3-1.1,0.3c-0.6,0-0.8-0.3-0.9-0.9h2.3c0-0.1,0-0.4,0-0.5
			c0-1.3-0.7-1.8-1.6-1.8C44.2,25.9,43.4,26.6,43.4,27.9 M21.4,27.1c0,1.7,0.8,2.8,2.6,2.8c0.7,0,1.4-0.1,1.9-0.4v-1.4H25l-0.1,0.7
			c0,0.1,0,0.1-0.1,0.2c-0.2,0.1-0.5,0.1-0.7,0.1c-0.9,0-1.5-0.6-1.5-1.9c0-1.3,0.6-1.9,1.5-1.9c0.2,0,0.5,0,0.7,0.1
			c0.1,0,0.1,0.1,0.1,0.1l0.1,0.7l0.8,0.1v-1.5c-0.4-0.3-1.1-0.4-1.7-0.4C22.3,24.4,21.4,25.6,21.4,27.1 M47.4,24.3l-0.1,0.6
			l0.4,0.1c0.1,0,0.1,0.1,0.1,0.2v3.9c0,0.1,0,0.1-0.1,0.1l-0.4,0.1v0.6h2.1v-0.6L49,29.2c-0.1,0-0.1,0-0.1-0.1v-4.8H47.4z
			 M50.9,27.9c0-0.7,0.2-1.2,0.8-1.2c0.2,0,0.5,0.1,0.6,0.2v1.7c-0.2,0.2-0.5,0.3-0.7,0.3C51.1,29.1,50.9,28.7,50.9,27.9 M51.9,24.3
			l-0.1,0.6l0.4,0.1c0.1,0,0.1,0.1,0.1,0.2v1.1c-0.3-0.2-0.6-0.4-1-0.4c-0.8,0-1.6,0.6-1.6,2.1c0,1.4,0.6,2,1.4,2
			c0.5,0,0.9-0.2,1.2-0.5l0.1,0l0.1,0.4h1.4v-0.6l-0.4-0.1c-0.1,0-0.1,0-0.1-0.1v-4.8H51.9z M39.1,25.6V26h-0.6v0.7H39
			c0.1,0,0.1,0,0.1,0.1V29c0,0.1,0,0.2-0.1,0.2l-0.4,0.1v0.6h2.3v-0.6l-0.5-0.1c-0.1,0-0.1,0-0.1-0.2v-2.3h1.2c0.1,0,0.1,0,0.1,0.1
			v3h1.6v-0.6l-0.4-0.1c-0.1,0-0.1,0-0.1-0.1V26h-2.3c-0.1,0-0.1,0-0.1-0.1v-0.5c0-0.4,0.2-0.6,0.7-0.6c0.5,0,0.6,0.1,0.6,0.6
			l1.1-0.1c0-1-0.7-1.2-1.6-1.2C39.7,24.2,39.1,24.5,39.1,25.6 M21,7.7c-3,1.3-5.7,3.1-7.9,5.4c-2.3,2.3-4.1,5-5.4,7.9
			c-1.3,3-2,6.3-2,9.7c0,3.5,0.7,6.7,2,9.7c1.3,3,3.1,5.7,5.4,7.9c2.3,2.3,5,4.1,7.9,5.4c3,1.3,6.3,2,9.7,2s6.7-0.7,9.7-2
			c3-1.3,5.7-3.1,7.9-5.4l-7.1-7.1c-1.4,1.4-3,2.5-4.8,3.2c-1.8,0.8-3.8,1.2-5.8,1.2s-4-0.4-5.8-1.2c-1.8-0.8-3.4-1.9-4.8-3.2
			c-1.4-1.4-2.5-3-3.2-4.8c-0.8-1.8-1.2-3.8-1.2-5.8c0-2.1,0.4-4,1.2-5.8c0.8-1.8,1.9-3.4,3.2-4.8c1.4-1.4,3-2.5,4.8-3.2
			c1.8-0.8,3.8-1.2,5.8-1.2s4,0.4,5.8,1.2c1.8,0.8,3.4,1.9,4.8,3.2l7.1-7.1c-2.3-2.3-5-4.1-7.9-5.4c-3-1.3-6.3-2-9.7-2
			S24,6.4,21,7.7 M1.4,30.7c0-16.1,13.1-29.3,29.3-29.3C46.8,1.4,60,14.5,60,30.7C60,46.8,46.8,60,30.7,60
			C14.5,60,1.4,46.8,1.4,30.7 M0,30.7c0,16.9,13.8,30.7,30.7,30.7s30.7-13.8,30.7-30.7C61.4,13.8,47.6,0,30.7,0S0,13.8,0,30.7"></path>
		<path id="SVGID_4_" d="M31.2,33.2l-0.1,0.3l0.4,0.1c0.1,0,0.1,0.1,0.1,0.2v2.6c0,0.1,0,0.1-0.1,0.1l-0.5,0v0.3h1.7v-0.3l-0.5-0.1
			c-0.1,0-0.1,0-0.1-0.1v-3.2H31.2z M35.3,33.2l-0.1,0.3l0.5,0.1l-1.1,2.9l-1.1-2.9l0.5-0.1v-0.3h-1.4l-0.1,0.3l0.3,0.1
			c0.1,0,0.1,0,0.2,0.1l1.2,3.2h0.5l1.2-3.2c0-0.1,0.1-0.1,0.2-0.1l0.2,0v-0.3H35.3z M46,33.2l-0.1,0.3l0.4,0.1
			c0.1,0,0.1,0.1,0.1,0.2v2.6c0,0.1,0,0.1-0.1,0.1l-0.5,0v0.3h1.7v-0.3L47,36.5c-0.1,0-0.1,0-0.1-0.1v-3.2H46z M52.7,33.2l-0.1,0.3
			l0.5,0.1l-1.1,2.7l-1-2.7l0.5-0.1v-0.3h-1.4l-0.1,0.3l0.3,0.1c0.1,0,0.1,0,0.2,0.1l1.3,3.1l-0.5,1.1c0,0.1-0.1,0.1-0.2,0.2
			l-0.5,0.1v0.3h1.8v-0.3L51.8,38l1.8-4.4c0-0.1,0.1-0.1,0.2-0.1l0.2,0v-0.3H52.7z M27.7,33.6L27.7,33.6l-0.1-0.5h-0.8l-0.1,0.3
			l0.4,0.1c0.1,0,0.1,0.1,0.1,0.2v2.6c0,0.1,0,0.1-0.1,0.1l-0.4,0v0.3h1.5v-0.3l-0.4-0.1c-0.1,0-0.1,0-0.1-0.1v-2.3
			c0.2-0.2,0.7-0.5,1.3-0.5c0.5,0,0.7,0.3,0.7,1.1v1.7c0,0.1,0,0.1-0.1,0.1l-0.4,0v0.3h1.5v-0.3l-0.4-0.1c-0.1,0-0.1,0-0.1-0.1v-1.9
			c0-0.8-0.3-1.4-1.1-1.4C28.6,33.1,28.1,33.4,27.7,33.6 M38.2,33.5c0.5,0,0.9,0.3,0.9,1.2h-2C37.2,33.8,37.7,33.5,38.2,33.5
			 M36.6,35c0,1.1,0.4,1.9,1.7,1.9c0.5,0,0.9-0.1,1.2-0.3l-0.2-0.4c-0.3,0.2-0.6,0.3-1,0.3c-0.9,0-1.2-0.6-1.2-1.4h2.5
			c0-0.1,0-0.2,0-0.3c0-1.2-0.6-1.7-1.4-1.7C37.3,33.1,36.6,33.7,36.6,35 M41,33.6L41,33.2h-0.8l-0.1,0.3l0.4,0.1
			c0.1,0,0.1,0.1,0.1,0.2v2.6c0,0.1,0,0.1-0.1,0.1l-0.4,0v0.3h1.7v-0.3l-0.6-0.1c-0.1,0-0.1,0-0.1-0.1v-2.3c0.2-0.2,0.6-0.5,1-0.5
			c0.1,0,0.1,0,0.1,0.1l0.1,0.5l0.4,0v-1c-0.1,0-0.3-0.1-0.5-0.1C41.6,33.1,41.3,33.4,41,33.6 M43,34.2c0,0.8,0.6,0.9,1.2,1
			c0.5,0.1,0.9,0.2,0.9,0.7c0,0.4-0.3,0.6-0.9,0.6c-0.4,0-0.7-0.1-0.8-0.1c-0.1,0-0.1,0-0.1-0.1l-0.1-0.5l-0.4,0v0.9
			c0.1,0.1,0.7,0.2,1.3,0.2c0.7,0,1.4-0.3,1.4-1.1c0-0.8-0.6-0.9-1.2-1.1c-0.5-0.1-0.9-0.2-0.9-0.7c0-0.3,0.2-0.6,0.8-0.6
			c0.3,0,0.5,0.1,0.6,0.1c0.1,0,0.1,0.1,0.1,0.1l0.1,0.5l0.4,0v-0.9c-0.1-0.1-0.6-0.2-1.1-0.2C43.6,33.1,43,33.4,43,34.2 M48.5,32.3
			c-0.1,0.7-0.2,0.9-0.8,1v0.3h0.5c0.1,0,0.1,0,0.1,0.1V36c0,0.6,0.3,0.9,0.9,0.9c0.3,0,0.7-0.1,0.9-0.2L50,36.4
			c-0.2,0.1-0.5,0.1-0.7,0.1c-0.4,0-0.5-0.2-0.5-0.6v-2.3h1.1v-0.4h-1.1c-0.1,0-0.1,0-0.1-0.1v-0.8H48.5z M24.8,31.6V32l0.5,0
			c0.1,0,0.1,0,0.1,0.1v3c0,1-0.5,1.4-1.3,1.4c-0.9,0-1.4-0.4-1.4-1.4v-3c0-0.1,0-0.1,0.1-0.1l0.5-0.1v-0.3h-1.6V32l0.5,0
			c0.1,0,0.1,0,0.1,0.1v3c0,1.2,0.5,1.8,1.8,1.8c1.2,0,1.9-0.6,1.9-1.8v-3c0-0.1,0-0.1,0.1-0.1l0.5-0.1v-0.3H24.8z M31.4,31.9
			c0,0.2,0.1,0.4,0.4,0.4c0.2,0,0.4-0.1,0.4-0.4c0-0.2-0.1-0.4-0.4-0.4C31.6,31.5,31.4,31.7,31.4,31.9 M46.2,31.9
			c0,0.2,0.1,0.4,0.4,0.4c0.2,0,0.4-0.1,0.4-0.4c0-0.2-0.1-0.4-0.4-0.4C46.3,31.5,46.2,31.7,46.2,31.9 M27.9,26.6L27.9,26.6L27.7,26
			h-1.3l-0.1,0.6l0.4,0.1c0.1,0,0.1,0.1,0.1,0.2v2.2c0,0.1,0,0.1-0.1,0.1l-0.3,0v0.6h2.4v-0.6l-0.7-0.1c-0.1,0-0.1,0-0.1-0.1v-2
			c0.1-0.1,0.3-0.3,0.5-0.3c0.1,0,0.1,0,0.1,0.1l0.1,0.4l0.9,0V26c-0.1,0-0.5-0.1-0.6-0.1C28.4,25.9,28.1,26.2,27.9,26.6 M30.9,28.7
			c0-0.3,0.2-0.4,0.6-0.4l0.5,0v0.6c-0.2,0.1-0.4,0.3-0.7,0.3C31.1,29.1,30.9,29,30.9,28.7 M29.9,27.1l1,0.1c0-0.4,0.2-0.5,0.5-0.5
			c0.5,0,0.5,0.2,0.5,0.6v0.4l-0.9,0.1c-0.9,0.1-1.4,0.4-1.4,1.1c0,0.5,0.1,1.1,1.1,1.1c0.6,0,1-0.2,1.2-0.5l0,0l0.1,0.4h1.4v-0.6
			l-0.4-0.1c-0.1,0-0.1,0-0.1-0.1v-1.8c0-1-0.5-1.3-1.6-1.3C30.9,25.9,29.9,26.1,29.9,27.1 M35.3,26.4L35.3,26.4L35.2,26h-1.3
			l-0.1,0.6l0.4,0.1c0.1,0,0.1,0.1,0.1,0.2v2.2c0,0.1,0,0.1-0.1,0.1l-0.3,0v0.6h2v-0.6l-0.4-0.1c-0.1,0-0.1,0-0.1-0.1v-2
			c0.2-0.1,0.5-0.3,0.8-0.3c0.4,0,0.4,0.3,0.4,0.7v2.4h1.6v-0.6l-0.4-0.1c-0.1,0-0.1,0-0.1-0.1v-1.9c0-0.8-0.3-1.3-1.1-1.3
			C36.1,25.9,35.7,26.1,35.3,26.4 M45.2,26.7c0.3,0,0.5,0.2,0.6,0.8h-1.2C44.6,26.9,44.9,26.7,45.2,26.7 M43.4,27.9
			c0,1.2,0.5,2,1.9,2c0.6,0,1.1-0.2,1.5-0.4l-0.3-0.7c-0.5,0.2-0.8,0.3-1.1,0.3c-0.6,0-0.8-0.3-0.9-0.9h2.3c0-0.1,0-0.4,0-0.5
			c0-1.3-0.7-1.8-1.6-1.8C44.2,25.9,43.4,26.6,43.4,27.9 M21.4,27.1c0,1.7,0.8,2.8,2.6,2.8c0.7,0,1.4-0.1,1.9-0.4v-1.4H25l-0.1,0.7
			c0,0.1,0,0.1-0.1,0.2c-0.2,0.1-0.5,0.1-0.7,0.1c-0.9,0-1.5-0.6-1.5-1.9c0-1.3,0.6-1.9,1.5-1.9c0.2,0,0.5,0,0.7,0.1
			c0.1,0,0.1,0.1,0.1,0.1l0.1,0.7l0.8,0.1v-1.5c-0.4-0.3-1.1-0.4-1.7-0.4C22.3,24.4,21.4,25.6,21.4,27.1 M47.4,24.3l-0.1,0.6
			l0.4,0.1c0.1,0,0.1,0.1,0.1,0.2v3.9c0,0.1,0,0.1-0.1,0.1l-0.4,0.1v0.6h2.1v-0.6L49,29.2c-0.1,0-0.1,0-0.1-0.1v-4.8H47.4z
			 M50.9,27.9c0-0.7,0.2-1.2,0.8-1.2c0.2,0,0.5,0.1,0.6,0.2v1.7c-0.2,0.2-0.5,0.3-0.7,0.3C51.1,29.1,50.9,28.7,50.9,27.9 M51.9,24.3
			l-0.1,0.6l0.4,0.1c0.1,0,0.1,0.1,0.1,0.2v1.1c-0.3-0.2-0.6-0.4-1-0.4c-0.8,0-1.6,0.6-1.6,2.1c0,1.4,0.6,2,1.4,2
			c0.5,0,0.9-0.2,1.2-0.5l0.1,0l0.1,0.4h1.4v-0.6l-0.4-0.1c-0.1,0-0.1,0-0.1-0.1v-4.8H51.9z M39.1,25.6V26h-0.6v0.7H39
			c0.1,0,0.1,0,0.1,0.1V29c0,0.1,0,0.2-0.1,0.2l-0.4,0.1v0.6h2.3v-0.6l-0.5-0.1c-0.1,0-0.1,0-0.1-0.2v-2.3h1.2c0.1,0,0.1,0,0.1,0.1
			v3h1.6v-0.6l-0.4-0.1c-0.1,0-0.1,0-0.1-0.1V26h-2.3c-0.1,0-0.1,0-0.1-0.1v-0.5c0-0.4,0.2-0.6,0.7-0.6c0.5,0,0.6,0.1,0.6,0.6
			l1.1-0.1c0-1-0.7-1.2-1.6-1.2C39.7,24.2,39.1,24.5,39.1,25.6 M21,7.7c-3,1.3-5.7,3.1-7.9,5.4c-2.3,2.3-4.1,5-5.4,7.9
			c-1.3,3-2,6.3-2,9.7c0,3.5,0.7,6.7,2,9.7c1.3,3,3.1,5.7,5.4,7.9c2.3,2.3,5,4.1,7.9,5.4c3,1.3,6.3,2,9.7,2s6.7-0.7,9.7-2
			c3-1.3,5.7-3.1,7.9-5.4l-7.1-7.1c-1.4,1.4-3,2.5-4.8,3.2c-1.8,0.8-3.8,1.2-5.8,1.2s-4-0.4-5.8-1.2c-1.8-0.8-3.4-1.9-4.8-3.2
			c-1.4-1.4-2.5-3-3.2-4.8c-0.8-1.8-1.2-3.8-1.2-5.8c0-2.1,0.4-4,1.2-5.8c0.8-1.8,1.9-3.4,3.2-4.8c1.4-1.4,3-2.5,4.8-3.2
			c1.8-0.8,3.8-1.2,5.8-1.2s4,0.4,5.8,1.2c1.8,0.8,3.4,1.9,4.8,3.2l7.1-7.1c-2.3-2.3-5-4.1-7.9-5.4c-3-1.3-6.3-2-9.7-2
			S24,6.4,21,7.7 M1.4,30.7c0-16.1,13.1-29.3,29.3-29.3C46.8,1.4,60,14.5,60,30.7C60,46.8,46.8,60,30.7,60
			C14.5,60,1.4,46.8,1.4,30.7 M0,30.7c0,16.9,13.8,30.7,30.7,30.7s30.7-13.8,30.7-30.7C61.4,13.8,47.6,0,30.7,0S0,13.8,0,30.7"></path></defs>
		<linearGradient id="SVGID_1_" gradientUnits="userSpaceOnUse" x1="8.9993" y1="8.9985" x2="52.3797" y2="52.3789">
			<stop offset="0" style="stop-color:#000000"></stop>
			<stop offset="0.25" style="stop-color:#000000"></stop>
			<stop offset="1" style="stop-color:#000000"></stop>
		</linearGradient>
		<use xlink:href="#SVGID_4_" overflow="visible" fill="url(#SVGID_1_)"></use>
		<clipPath id="SVGID_2_">
			<use xlink:href="#SVGID_4_" overflow="visible"></use>
		</clipPath>
	</g>
</svg>