<svg version="1.1" id="Layer_1" xmlns="http://www.w3.org/2000/svg" xmlns:xlink="http://www.w3.org/1999/xlink" height="50px" width="144px" viewBox="57 14 27 35" xml:space="preserve">
<title id="logoTitleHeader">University of Derby logo</title>
<g fill="#000">
	<path class="st0" d="M46.15,25.77c-0.45,0-0.93,0.25-1.41,0.74l-2.62,2.64l7.77,7.83h8.05v-0.03L47.57,26.51
		C47.23,26.17,46.72,25.77,46.15,25.77 M20.95,41.9h36.99v-2.56H20.95V41.9z M46.57,36.98c-2.93-2.96-8.04-8.1-8.04-8.1
		c-0.33-0.34-0.85-0.74-1.42-0.74c-0.45,0-0.93,0.25-1.41,0.74l-2.62,2.64l5.43,5.46H46.57z M20.95,21.05v12.58l4.04-4.07
		c1.17-1.18,2.32-1.43,3.07-1.43c1.09,0,2.15,0.49,3.08,1.43l0.27,0.27l2.62-2.64c1.17-1.18,2.32-1.43,3.07-1.43
		c1.09,0,2.15,0.5,3.08,1.43l0.27,0.27l2.62-2.64c1.17-1.18,2.32-1.43,3.07-1.43c1.09,0,2.15,0.49,3.08,1.43l8.7,8.77V21.05H20.95z
		 M28.06,30.5c-0.45,0-0.93,0.24-1.41,0.74l-5.7,5.74h14.23l-5.7-5.74C29.15,30.9,28.63,30.5,28.06,30.5"></path>
	<path class="st0" d="M62.64,24.53c0,0.98,0.46,1.56,1.3,1.56c0.95,0,1.55-0.47,1.55-1.61v-2.66c0-0.43-0.11-0.5-0.75-0.56v-0.23
		h1.76v0.23c-0.56,0.07-0.66,0.12-0.66,0.56v2.8c0,1.31-0.88,1.93-1.99,1.93c-1.3,0-2.12-0.62-2.12-1.95v-2.78
		c0-0.43-0.1-0.48-0.66-0.55v-0.23h2.23v0.23c-0.57,0.07-0.66,0.12-0.66,0.55V24.53z"></path>
	<path class="st0" d="M71.36,21.82c0-0.43-0.12-0.5-0.77-0.56v-0.23h1.78v0.23c-0.57,0.07-0.66,0.12-0.66,0.56v4.68h-0.28l-3.45-4.4
		v3.59c0,0.43,0.12,0.5,0.77,0.56v0.23h-1.78v-0.23c0.57-0.07,0.66-0.12,0.66-0.56v-3.94c-0.26-0.34-0.36-0.46-0.67-0.48v-0.23h1.37
		l3.02,3.9V21.82z"></path>
	<path class="st0" d="M74.44,25.69c0,0.43,0.09,0.48,0.65,0.55v0.23h-2.22v-0.23c0.56-0.07,0.65-0.12,0.65-0.55v-3.88
		c0-0.43-0.09-0.48-0.65-0.55v-0.23h2.22v0.23c-0.56,0.07-0.65,0.12-0.65,0.55V25.69z"></path>
	<path class="st0" d="M79.88,21.91c0.05-0.12,0.08-0.22,0.08-0.31c0-0.23-0.17-0.32-0.67-0.34v-0.23h1.55v0.23
		c-0.22,0.04-0.37,0.08-0.46,0.29l-1.99,4.99h-0.22l-2.2-4.99c-0.09-0.21-0.24-0.25-0.46-0.29v-0.23h2.17v0.23
		c-0.51,0.02-0.67,0.1-0.67,0.34c0,0.09,0.02,0.18,0.08,0.31l1.49,3.35L79.88,21.91z"></path>
	<path class="st0" d="M81.25,26.24c0.56-0.07,0.65-0.12,0.65-0.55v-3.88c0-0.43-0.09-0.48-0.65-0.55v-0.23h4.14l0.04,1.34h-0.19
		c-0.36-0.84-0.6-1.06-1.18-1.06h-1.25v2.21h1.12c0.34,0,0.47-0.22,0.54-0.71h0.24v1.7h-0.24c-0.08-0.48-0.2-0.7-0.54-0.7h-1.12
		v1.85c0,0.42,0.22,0.53,0.73,0.53h0.6c0.59,0,0.84-0.33,1.33-1.19h0.22l-0.24,1.47h-4.22V26.24z"></path>
	<path class="st0" d="M87.64,25.69c0,0.43,0.09,0.48,0.65,0.55v0.23h-2.22v-0.23c0.56-0.07,0.65-0.12,0.65-0.55v-3.88
		c0-0.43-0.09-0.48-0.65-0.55v-0.23h2.25c1.31,0,2,0.61,2,1.5c0,0.88-0.74,1.33-1.33,1.45l1.23,1.61c0.36,0.48,0.59,0.64,1.01,0.65
		v0.23h-1.3c-0.22-0.16-0.41-0.4-0.64-0.72l-1.18-1.64h-0.47V25.69z M87.64,21.31v2.51h0.46c0.87,0,1.27-0.48,1.27-1.3
		c0-0.68-0.41-1.21-1.3-1.21H87.64z"></path>
	<path class="st0" d="M91.65,26.04l-0.05-1.33h0.27c0.18,0.97,0.67,1.55,1.45,1.55c0.68,0,1.09-0.39,1.09-0.95
		c0-0.61-0.34-0.85-1.32-1.24c-0.85-0.33-1.44-0.71-1.44-1.61c0-0.87,0.66-1.51,1.71-1.51c0.63,0,1.19,0.17,1.58,0.45v1.16h-0.26
		c-0.12-0.86-0.58-1.33-1.33-1.33c-0.58,0-0.93,0.36-0.93,0.88c0,0.57,0.28,0.8,1.13,1.13c1.05,0.42,1.64,0.81,1.64,1.73
		c0,1.02-0.85,1.58-1.88,1.58C92.6,26.55,91.99,26.33,91.65,26.04z"></path>
	<path class="st0" d="M97.12,25.69c0,0.43,0.09,0.48,0.65,0.55v0.23h-2.22v-0.23c0.56-0.07,0.65-0.12,0.65-0.55v-3.88
		c0-0.43-0.09-0.48-0.65-0.55v-0.23h2.22v0.23c-0.56,0.07-0.65,0.12-0.65,0.55V25.69z"></path>
	<path class="st0" d="M103,21.03l0.12,1.7h-0.2c-0.47-1.12-0.64-1.44-1.28-1.44h-0.5v4.43c0,0.43,0.2,0.46,0.73,0.53v0.23H99.5
		v-0.23c0.54-0.07,0.74-0.09,0.74-0.53v-4.43h-0.5c-0.64,0-0.81,0.33-1.27,1.44h-0.21l0.12-1.7H103z"></path>
	<path class="st0" d="M106.31,25.71c0,0.43,0.2,0.46,0.73,0.53v0.23h-2.33v-0.23c0.53-0.07,0.74-0.09,0.74-0.53v-1.39l-1.56-2.78
		c-0.12-0.2-0.24-0.25-0.46-0.29v-0.23h2.14v0.23c-0.5,0.02-0.65,0.09-0.65,0.29c0,0.13,0.06,0.24,0.15,0.39l1.13,1.99l1.09-1.97
		c0.06-0.12,0.14-0.28,0.14-0.41c0-0.2-0.16-0.26-0.65-0.28v-0.23h1.54v0.23c-0.21,0.04-0.35,0.1-0.46,0.29l-1.55,2.77V25.71z"></path>
	<path class="st0" d="M110.79,23.86c0-1.78,1.11-2.91,2.54-2.91c1.59,0,2.47,1.28,2.47,2.69c0,1.78-1.11,2.91-2.54,2.91
		C111.66,26.55,110.79,25.27,110.79,23.86z M114.79,23.77c0-1.25-0.47-2.54-1.54-2.54c-0.98,0-1.48,1.16-1.48,2.49
		c0,1.25,0.48,2.54,1.55,2.54C114.3,26.26,114.79,25.1,114.79,23.77z"></path>
	<path class="st0" d="M117.67,25.61c0,0.46,0.2,0.56,0.95,0.61v0.25h-2.51v-0.23c0.56-0.07,0.65-0.12,0.65-0.55v-3.88
		c0-0.43-0.09-0.48-0.65-0.55v-0.23h4.01l0.03,1.37h-0.18c-0.32-0.85-0.6-1.09-1.18-1.09h-1.12v2.28h0.98
		c0.34,0,0.45-0.25,0.53-0.73h0.23v1.75h-0.23c-0.08-0.48-0.19-0.73-0.53-0.73h-0.98V25.61z"></path>
	<path class="st0" d="M61.24,41.9v-0.55c1.32-0.17,1.54-0.28,1.54-1.3v-9.18c0-1.03-0.22-1.14-1.54-1.3v-0.55h5.4
		c4.74,0,6.83,2.85,6.83,6.13c0,4.3-2.86,6.76-6.54,6.76H61.24z M64.95,29.67v10.26c0,1.08,0.48,1.3,1.54,1.3h0.42
		c2.44,0,4.22-1.98,4.22-5.69c0-3.14-1.38-5.88-4.9-5.88H64.95z"></path>
	<path class="st0" d="M73.84,41.34c1.32-0.17,1.54-0.28,1.54-1.3v-9.18c0-1.03-0.22-1.14-1.54-1.3v-0.55h9.81l0.09,3.18h-0.44
		c-0.86-1.98-1.43-2.52-2.79-2.52h-2.96v5.23h2.64c0.81,0,1.1-0.53,1.29-1.67h0.57v4.02h-0.57c-0.18-1.14-0.48-1.65-1.29-1.65h-2.64
		v4.39c0,0.99,0.51,1.25,1.73,1.25h1.43c1.4,0,1.98-0.77,3.16-2.81h0.53l-0.57,3.47h-9.99V41.34z"></path>
	<path class="st0" d="M88.98,40.04c0,1.03,0.22,1.14,1.54,1.3v0.55h-5.25v-0.55c1.32-0.17,1.54-0.28,1.54-1.3v-9.18
		c0-1.03-0.22-1.14-1.54-1.3v-0.55h5.32c3.1,0,4.74,1.45,4.74,3.54c0,2.07-1.76,3.14-3.14,3.43l2.92,3.82
		c0.84,1.14,1.07,1.51,2.06,1.54v0.55h-2.76c-0.53-0.37-0.97-0.94-1.52-1.71l-2.79-3.87h-1.12V40.04z M88.98,29.69v5.95h1.08
		c2.06,0,3.01-1.14,3.01-3.08c0-1.62-0.97-2.86-3.07-2.86H88.98z"></path>
	<path class="st0" d="M98.05,41.9v-0.55c1.32-0.17,1.54-0.28,1.54-1.3v-9.18c0-1.03-0.22-1.14-1.54-1.3v-0.55h5.49
		c2.81,0,4.39,1.08,4.39,3.19c0,1.85-1.74,2.81-3.47,3.01c2.42,0.09,4.13,1.27,4.13,3.21c0,2.13-1.65,3.47-4.68,3.47H98.05z
		 M101.76,29.67v5.23h1.14c1.95,0,2.86-0.9,2.86-2.66c0-1.63-1.01-2.57-2.86-2.57H101.76z M101.76,35.6V40
		c0,0.99,0.48,1.23,1.67,1.23h0.2c1.87,0,2.75-1.03,2.75-2.81c0-1.63-0.92-2.83-3.08-2.83H101.76z"></path>
	<path class="st0" d="M115.41,40.1c0,1.03,0.48,1.08,1.73,1.25v0.55h-5.53v-0.55c1.25-0.17,1.74-0.22,1.74-1.25v-3.29l-3.69-6.57
		c-0.28-0.48-0.57-0.59-1.08-0.68v-0.55h5.07v0.55c-1.19,0.04-1.54,0.2-1.54,0.68c0,0.31,0.15,0.57,0.35,0.92l2.68,4.7l2.59-4.66
		c0.15-0.29,0.33-0.66,0.33-0.97c0-0.48-0.37-0.62-1.54-0.66v-0.55h3.65v0.55c-0.5,0.09-0.83,0.24-1.08,0.68l-3.67,6.56V40.1z"></path>
</g>
</svg>