<svg xmlns="http://www.w3.org/2000/svg" xmlns:xlink="http://www.w3.org/1999/xlink" version="1.1" id="Layer_1" x="0px" y="0px" viewBox="0 0 356.4 162.5" style="enable-background:new 0 0 356.4 162.5;" xml:space="preserve">
<style type="text/css">
	.st0{fill:#000;}
</style>
<g>
	<polygon class="st0" points="73.5,126 73.5,126 73.5,126  "/>
	<path class="st0" d="M135,52.4c0-2.3,0-4.6-0.1-6.8l0.1,0c1.5,2,2.9,4,4.4,6.1l7.1,9.5h4.9V37.6h-5v8.7c0,2.3,0,4.5,0.1,6.8l-0.1,0   c-1.5-2-2.9-4-4.4-6.1l-7.1-9.5H130v23.5h5V52.4z"/>
	<path class="st0" d="M162.3,61.5c5.1,0,8.9-3.6,8.9-8.4c0-4.7-3.8-8.4-8.9-8.4c-5.1,0-8.9,3.6-8.9,8.4   C153.3,57.8,157.1,61.5,162.3,61.5z M162.3,49c2.2,0,4,1.8,4,4.1c0,2.3-1.7,4.1-4,4.1s-4-1.8-4-4.1C158.3,50.8,160,49,162.3,49z"/>
	<path class="st0" d="M178.2,51.4c1.2-1.4,2.6-1.9,4.3-1.9c0.5,0,0.9,0.1,1.3,0.2V45c-0.4-0.1-0.7-0.1-1-0.1c-2,0-3.5,0.8-4.6,2.4   l-0.1,0v-2.1h-4.8v16h4.9V51.4z"/>
	<path class="st0" d="M188.6,55.1c0,2.5,0.6,3.9,1.4,4.8c1,1.1,2.5,1.6,4.2,1.6c1.4,0,2.9-0.4,3.6-0.9v-3.9   c-0.6,0.3-1.6,0.6-2.4,0.6c-1.5,0-1.9-1.2-1.9-2.7v-5.4h4.2v-4.1h-4.2v-5l-4.9,0.8v4.2H186v4.1h2.6V55.1z"/>
	<path class="st0" d="M205.2,50.3c0.9-0.7,2.1-1.3,3.3-1.3c0.7,0,1.3,0.2,1.7,0.7c0.4,0.5,0.6,1,0.6,2.2v9.2h4.9v-10   c0-2.3-0.4-3.7-1.4-4.7c-1-1-2.5-1.6-4.2-1.6c-2,0-3.7,0.8-4.9,1.8l-0.1,0V36.3h-4.9v24.8h4.9V50.3z"/>
	<path class="st0" d="M223.9,61.5c2.1,0,3.6-0.8,4.9-1.9l0.1,0v1.5h4.9v-16h-4.9v10.7c-0.8,0.7-2,1.4-3.3,1.4   c-0.7,0-1.3-0.2-1.8-0.7c-0.4-0.5-0.6-1.1-0.6-2.3v-9.1h-4.9V55c0,2.4,0.5,3.8,1.5,4.9C220.7,60.8,222.1,61.5,223.9,61.5z"/>
	<path class="st0" d="M241.8,50.3c0.8-0.7,2-1.3,3.1-1.3c0.6,0,1.2,0.2,1.7,0.7c0.4,0.5,0.6,1.1,0.6,2.2v9.2h4.9v-10   c0-0.2,0-0.5,0-0.7c0.8-0.7,2-1.3,3.2-1.3c0.6,0,1.2,0.2,1.7,0.7c0.4,0.4,0.6,1,0.6,2.2v9.2h4.9v-10c0-2.3-0.5-3.7-1.5-4.7   c-0.9-1-2.3-1.6-4.1-1.6c-2,0-3.9,0.7-5.6,2.3c-0.9-1.6-2.9-2.3-4.6-2.3c-1.9,0-3.6,0.8-4.8,1.8l-0.1,0v-1.4h-4.9v16h4.9V50.3z"/>
	<path class="st0" d="M273.4,61.5c5,0,8.6-3.6,8.6-8.6c0-5-3.6-8.1-7.5-8.1c-1.5,0-3,0.5-3.9,1.1l-0.1,0v-9.6h-4.9v25l3.9-0.6   C270.5,61.1,271.8,61.5,273.4,61.5z M270.5,49.7c0.7-0.4,1.7-0.8,2.7-0.8c2.4,0,3.8,1.8,3.8,4.2c0,2.3-1.4,4.4-4,4.4   c-0.9,0-1.9-0.3-2.5-0.6V49.7z"/>
	<path class="st0" d="M288.9,47.3L288.9,47.3l-0.1-2.2H284v16h4.9v-9.7c1.2-1.4,2.6-1.9,4.3-1.9c0.5,0,0.9,0.1,1.3,0.2V45   c-0.4-0.1-0.7-0.1-1-0.1C291.6,44.9,290.1,45.7,288.9,47.3z"/>
	<rect x="297.1" y="45.1" class="st0" width="4.9" height="16"/>
	<path class="st0" d="M299.5,37.2c-1.6,0-2.9,1.3-2.9,2.8c0,1.6,1.3,2.8,2.9,2.8c1.6,0,2.9-1.3,2.9-2.8   C302.4,38.5,301.1,37.2,299.5,37.2z"/>
	<path class="st0" d="M319.1,57.4c-0.7,0-1-0.5-1-1.3v-5.4c0-2-0.6-3.4-1.8-4.4c-1.3-1-3.2-1.5-5.3-1.5c-2.3,0-4.3,0.6-5.6,1.2v4.3   c1.3-0.7,2.9-1.3,4.7-1.3c1.2,0,2,0.3,2.5,0.7c0.4,0.3,0.6,0.9,0.6,1.7V52c-0.9-0.2-1.8-0.3-2.8-0.3c-1.7,0-3.2,0.3-4.5,1.1   c-1.1,0.8-1.9,2.1-1.9,3.9c0,1.7,0.7,2.9,1.9,3.7c1,0.7,2.3,1,3.7,1c1.8,0,3.4-0.6,4.5-1.3h0.1c0.9,0.9,2.1,1.3,3.4,1.3   c0.9,0,1.8-0.2,2.4-0.5v-3.7C319.7,57.3,319.4,57.4,319.1,57.4z M313.2,57.2c-0.6,0.4-1.4,0.6-2.2,0.6c-1.1,0-2-0.6-2-1.6   c0-1.2,1.3-1.6,2.5-1.6c0.5,0,1.2,0.1,1.8,0.2V57.2z"/>
	<g>
		<path class="st0" d="M150.5,70.1h-5v12.1c0,2.5-0.3,4.1-1,5.2c-0.8,1.2-2.1,1.9-4.2,1.9c-2.2,0-3.6-0.9-4.3-2    c-0.7-1.1-0.9-2.6-0.9-5.1V70.1H130v12.3c0,3.3,0.5,5.9,1.8,7.8c1.7,2.4,4.7,3.8,8.5,3.8c3.8,0,6.8-1.4,8.5-3.8    c1.3-1.9,1.8-4.5,1.8-8V70.1z"/>
		<path class="st0" d="M164.1,93.6h4.9v-10c0-2.3-0.4-3.7-1.4-4.7c-1-1-2.5-1.6-4.2-1.6c-2,0-3.7,0.8-4.9,1.9l-0.1,0v-1.5h-4.9v16    h4.9V82.8c0.9-0.7,2.1-1.3,3.3-1.3c0.7,0,1.3,0.2,1.7,0.7c0.4,0.5,0.6,1,0.6,2.2V93.6z"/>
		<rect x="172.1" y="77.6" class="st0" width="4.9" height="16"/>
		<path class="st0" d="M174.6,75.4c1.6,0,2.9-1.3,2.9-2.8c0-1.6-1.3-2.8-2.9-2.8s-2.9,1.3-2.9,2.8C171.8,74.1,173.1,75.4,174.6,75.4    z"/>
		<path class="st0" d="M190.5,93.6l6.5-16h-4.9l-2,5.1c-0.6,1.7-1.3,3.5-1.9,5.1h-0.1c-0.6-1.6-1.2-3.4-1.8-5.1l-1.9-5.1h-5.2    l6.5,16H190.5z"/>
		<path class="st0" d="M212.2,88.4c-1.7,1.1-3.6,1.8-5.4,1.8c-2.3,0-4.1-1-4.6-3.2H213c0.1-0.4,0.1-1.1,0.1-1.7c0-5.4-3.7-8-7.6-8    c-4.4,0-8.4,3.3-8.4,8.4c0,5,3.8,8.3,9.1,8.3c2.1,0,4.5-0.5,6.1-1.5V88.4z M205.4,81c1.6,0,2.9,1,3.2,2.8h-6.4    C202.5,82,203.8,81,205.4,81z"/>
		<path class="st0" d="M226.3,77.5c-0.4-0.1-0.7-0.1-1-0.1c-2,0-3.5,0.8-4.6,2.4l-0.1,0v-2.1h-4.8v16h4.9v-9.7    c1.2-1.4,2.6-1.9,4.3-1.9c0.5,0,0.9,0.1,1.3,0.2V77.5z"/>
		<path class="st0" d="M233,87.2c2.4,0.6,4.2,0.5,4.2,1.7c0,0.9-0.8,1.2-2.2,1.2c-1.5,0-4.1-0.6-6.3-1.9v4.3    c1.9,0.9,4.4,1.3,6.3,1.3c4.1,0,7.2-1.9,7.2-5.4c0-2.8-1.9-3.9-4.9-4.7c-2.4-0.6-4.1-0.5-4.1-1.7c0-0.7,0.8-1.1,2.1-1.1    c1.4,0,3.9,0.5,6,1.7v-4.3c-1.8-0.9-4.2-1.3-6.1-1.3c-4,0-7,1.9-7,5.3C228.2,85.2,230,86.5,233,87.2z"/>
		<rect x="244.8" y="77.6" class="st0" width="4.9" height="16"/>
		<path class="st0" d="M247.3,75.4c1.6,0,2.9-1.3,2.9-2.8c0-1.6-1.3-2.8-2.9-2.8c-1.6,0-2.9,1.3-2.9,2.8    C244.4,74.1,245.7,75.4,247.3,75.4z"/>
		<path class="st0" d="M264,93.1v-3.9c-0.6,0.3-1.6,0.6-2.4,0.6c-1.5,0-1.9-1.2-1.9-2.7v-5.4h4.2v-4.1h-4.2v-5l-4.9,0.8v4.2h-2.6    v4.1h2.6v5.9c0,2.5,0.6,3.9,1.4,4.8c1,1.1,2.5,1.6,4.2,1.6C261.8,94,263.2,93.6,264,93.1z"/>
		<path class="st0" d="M267.7,100.8h5l10.4-23.1h-4.9l-1.7,3.9c-0.7,1.7-1.5,3.4-2.2,5.2h-0.1c-0.6-1.7-1.3-3.3-2-5.1l-1.7-4h-5.2    l6.5,14.2L267.7,100.8z"/>
		<path class="st0" d="M143.4,115.8c0,1.8,0,3.6,0,5.3l0,0c-1-1.4-2-2.8-3.1-4.2l-6.3-8.4h-2.9v17.4h3v-7.3c0-1.8,0-3.6,0-5.3l0,0    c1,1.4,2,2.8,3.1,4.2l6.3,8.4h2.9v-17.4h-3V115.8z"/>
		<polygon class="st0" points="153.5,118.2 159.8,118.2 159.8,115.6 153.5,115.6 153.5,111.2 160.8,111.2 160.8,108.5 150.4,108.5     150.4,125.9 161,125.9 161,123.2 153.5,123.2   "/>
		<path class="st0" d="M182.4,117c-0.5,1.5-0.9,3.1-1.3,4.6h0c-0.4-1.5-0.8-2.9-1.4-4.6l-2.6-8.5h-2.2l-2.6,8.4    c-0.5,1.5-1,3.1-1.4,4.6h0c-0.4-1.5-0.9-3.1-1.3-4.6l-2.5-8.5h-3.2l5.4,17.4h3.2l2.3-7.5c0.4-1.4,0.8-2.8,1.2-4.1h0    c0.4,1.3,0.8,2.8,1.2,4.2l2.3,7.4h3.2l5.4-17.4H185L182.4,117z"/>
		<path class="st0" d="M192.4,117.2c0-3.5,2.5-6.2,6.2-6.2c1.8,0,3.6,0.6,4.9,1.6v-3.2c-1.4-0.7-3.1-1.2-4.9-1.2c-5.5,0-9.3,4-9.3,9    c0,5.1,3.8,8.9,9.3,8.9c1.8,0,3.7-0.4,5.1-1.2v-3.2c-1.4,1.1-3.1,1.7-4.9,1.7C195,123.4,192.4,120.7,192.4,117.2z"/>
		<path class="st0" d="M213.7,108.5l-7.1,17.4h3.1l1.7-4.3h7.5l1.7,4.3h3.2l-7.1-17.4H213.7z M217.9,119.2h-5.5l1-2.6    c0.6-1.6,1.2-3.1,1.7-4.7h0c0.6,1.6,1.1,3.1,1.7,4.7L217.9,119.2z"/>
		<path class="st0" d="M232.9,115.8c-2.1-0.6-3.9-0.9-3.9-2.7c0-1.5,1.2-2.1,2.8-2.1c1.4,0,3.5,0.5,5.2,1.6v-3.1    c-1.5-0.9-3.5-1.3-5.2-1.3c-3.5,0-5.9,1.9-5.9,5c0,3.1,2.3,4.2,4.7,4.9c2.3,0.7,4.1,0.9,4.1,2.9c0,1.6-1.2,2.4-3,2.4    c-1.4,0-3.7-0.6-5.4-1.8v3.2c1.6,0.9,3.7,1.3,5.4,1.3c3.6,0,6.1-2,6.1-5.2C237.8,117.8,235.5,116.6,232.9,115.8z"/>
		<polygon class="st0" points="240,111.2 245.7,111.2 245.7,125.9 248.7,125.9 248.7,111.2 254.5,111.2 254.5,108.5 240,108.5   "/>
		<polygon class="st0" points="261.2,108.5 258.1,108.5 258.1,125.9 269.1,125.9 269.1,123.2 261.2,123.2   "/>
		<polygon class="st0" points="275.3,118.2 281.7,118.2 281.7,115.6 275.3,115.6 275.3,111.2 282.6,111.2 282.6,108.5 272.3,108.5     272.3,125.9 282.9,125.9 282.9,123.2 275.3,123.2   "/>
	</g>
	<g>
		<g>
			<path class="st0" d="M63.7,88.8C63,88.9,62.3,89,61.5,89c-0.1,0-0.2,0-0.3,0c0,1.6-0.2,8.8-0.2,8.8l-0.2,6.1     c3.7,1,8.1-0.2,11.7,1.6V90c-0.6-0.4-1.6-0.9-3.3-1.3C67.8,88.4,65.3,88.5,63.7,88.8z"/>
			<path class="st0" d="M85.9,89c-0.1,0-0.2,0-0.3,0c-0.8,0-1.5-0.1-2.3-0.2c-1.6-0.2-4.1-0.4-5.4-0.1c-1.7,0.4-2.7,1-3.3,1.3v15.4     c3.6-1.8,8-0.6,11.7-1.6l-0.2-6.1C86.1,97.7,85.9,90.6,85.9,89z"/>
			<path class="st0" d="M107.3,90.5c-1.8-1.2-3.6-2.3-5.4-3.3l-0.1,0l0-0.1l2.3-4.7c-1.5-0.8-3-1.5-4.4-2.2     c-0.3-0.2-0.7-0.3-1.1-0.5l-1.8,5.1l-0.1,0c-2.3-1-4.7-1.8-7.1-2.5l-0.1,0l0-0.1l1.4-5.2c-1.9-0.6-4-1-6-1.4l-0.8,5.4l-0.1,0     c-2.5-0.5-5.1-0.8-7.7-0.9l-0.1,0l0-0.1l0.3-5.3c-1-0.1-2.1-0.1-3.1-0.1c-1,0-2.1,0-3.1,0.1l0.3,5.4l-0.1,0     c-2.6,0.1-5.2,0.4-7.7,0.9l-0.1,0l0-0.1L62,75.5c-2,0.4-4,0.8-6,1.4l1.4,5.2l-0.1,0c-2.4,0.7-4.8,1.5-7.1,2.5l-0.1,0l-1.8-5.1     c-0.4,0.2-0.8,0.3-1.1,0.5c-1.5,0.7-3,1.4-4.4,2.2l2.4,4.8l-0.1,0c-1.8,1-3.7,2.1-5.4,3.3l0,0c4.1,11.1,13.2,24.4,33.8,35.4     C94.1,114.9,103.2,101.6,107.3,90.5L107.3,90.5z M82,107.3c-1.7,0-5.1,0.1-7.3,1.6h-2.2c-2.2-1.5-5.6-1.6-7.3-1.6     c-2.1,0-5.9,0.4-9,0.1l0.7-18.8l2.4-1.9c2.5,0.7,3.7,0,6.5,0c3.1,0,5.3,0.4,7.8,1.9h0c2.5-1.5,4.8-1.9,7.8-1.9c2.8,0,4,0.7,6.5,0     l2.4,1.9l0.7,18.8C87.9,107.6,84.1,107.3,82,107.3z"/>
		</g>
		<g>
			<rect x="64.9" y="54.2" class="st0" width="1.7" height="3.7"/>
			<rect x="54.5" y="48.9" class="st0" width="1.7" height="3.7"/>
			<rect x="44.1" y="54.2" class="st0" width="1.7" height="3.7"/>
			<rect x="90.7" y="48.9" class="st0" width="1.7" height="3.7"/>
			<path class="st0" d="M36.5,37.6c0,0,0,24.7,0,34.1c0,3.7,0.2,10,2.7,17.4c1.3-0.9,2.6-1.7,3.9-2.5l-2.5-5l1.4-0.8     c1.9-1,3.8-2,5.7-2.8l0,0l1.5-0.6l0,0.1l1.9,5.2c1.4-0.6,2.8-1.1,4.2-1.5l-1.4-5.4l1.6-0.5c2-0.6,4.1-1.1,6.1-1.4v0l1.6-0.3     l0,0.1l0.8,5.5c1.6-0.2,3.2-0.4,4.8-0.5l-0.3-5.6l1.6-0.1h0c1.1-0.1,2.1-0.1,3.2-0.1h0c1.1,0,2.1,0,3.2,0.1l1.6,0.1l0,0.1     L78,78.6c1.6,0.1,3.2,0.3,4.8,0.5l0.8-5.6l1.6,0.3c2.1,0.4,4.1,0.9,6.1,1.4l0,0l1.6,0.5l-1.4,5.4c1.4,0.4,2.8,1,4.2,1.5l1.9-5.3     l1.5,0.6c1.9,0.8,3.9,1.8,5.7,2.8v0l1.4,0.8l-2.5,5c1.3,0.8,2.7,1.6,3.9,2.5c2.5-7.4,2.7-13.7,2.7-17.4c0-9.4,0-34.1,0-34.1H36.5     z M51.2,42h1.6v1.7h1.8V42h1.5v1.7h1.8V42h1.6l0,3.9h-8.3V42z M57.8,47.3v6.8h-4.9v-6.8H57.8z M48.4,68.5h-6.9v-3.6h6.9V68.5z      M48.2,63.4h-6.6l0.9-1.9l0-8.8h4.8v8.8L48.2,63.4z M49,51.2h-8.3v-3.8h1.6V49h1.8v-1.7h1.5V49h1.8v-1.7H49L49,51.2z M61.5,61.4     l-1,2l0,5.1h-2.6v-6.2c0-1.6-2.4-2.5-2.5-2.6l0,0l0,0c-0.1,0-2.5,0.9-2.5,2.6v6.2h-2.6v-4.9l-1-2.2v-6h1.9V57h1.8v-1.7h1.5V57     h1.8v-1.7h1.5V57h1.8v-1.7h1.9V61.4z M69.2,68.5h-6.9v-3.6h6.9V68.5z M69.1,63.4h-6.6l0.9-1.9l0-8.8h4.8v8.8L69.1,63.4z      M69.9,51.2h-8.3v-3.8h1.6V49H65v-1.7h1.5V49h1.8v-1.7h1.6V51.2z M84.5,68.5h-6.9v-3.6h6.9V68.5z M84.4,63.4h-6.6l0.9-1.9l0-8.8     h4.8v8.8L84.4,63.4z M85.2,51.2H77v-3.8h1.6V49h1.8v-1.7h1.5V49h1.8v-1.7h1.6L85.2,51.2z M87.4,42h1.6v1.7h1.8V42h1.5v1.7h1.8V42     h1.6l0,3.9h-8.3V42z M93.9,47.3v6.8h-4.9v-6.8H93.9z M97.7,61.4l-1,2l0,5.1h-2.6v-6.2c0-1.6-2.4-2.5-2.5-2.6l0,0l0,0     c-0.1,0-2.5,0.9-2.5,2.6v6.2h-2.6v-4.9l-1-2.2v-6h1.9V57h1.8v-1.7h1.5V57h1.8v-1.7H94V57h1.8v-1.7h1.9V61.4z M105.4,68.5h-6.9     v-3.6h6.9V68.5z M105.3,63.4h-6.6l0.9-1.9l0-8.8h4.8v8.8L105.3,63.4z M106.1,51.2h-8.3v-3.8h1.6V49h1.8v-1.7h1.5V49h1.8v-1.7h1.6     V51.2z"/>
			<rect x="101.1" y="54.2" class="st0" width="1.7" height="3.7"/>
			<rect x="80.3" y="54.2" class="st0" width="1.7" height="3.7"/>
		</g>
	</g>
</g>
</svg>