<svg width="147" height="65" viewBox="0 0 147 65" fill="none" xmlns="http://www.w3.org/2000/svg">
<g clip-path="url(#clip0_13_170)">
<path d="M22.6909 65C24.6621 65 26.3239 63.3704 26.3327 61.4061V34.1165H3.88052V57.3364C3.88052 58.2966 3.54462 59.2391 2.88166 59.935C2.1745 60.6749 1.10493 61.1418 0 61.1418V65H22.6909Z" fill="#00A06E"/>
<path d="M3.88052 7.7253C3.88052 5.59358 2.14799 3.85825 0 3.85825V0H26.3239V30.8836H3.88052V7.7253Z" fill="#00A06E"/>
<path d="M54.7515 57.3364V50.1925C54.7515 40.5204 48.4932 34.1165 39.5123 34.1165H29.5679V49.5582C29.5679 58.922 35.4815 65 45.0635 65H58.632V61.1418C56.4929 61.1418 54.7515 59.4681 54.7515 57.3364Z" fill="#00A06E"/>
<path d="M53.6643 15.4946C53.6643 15.9879 53.6378 16.49 53.5847 16.9833C53.4963 17.8378 53.3549 18.6922 53.1604 19.5291C52.9748 20.3395 52.7273 21.1323 52.4268 21.9074C52.1351 22.6562 51.7992 23.3785 51.4014 24.0744C51.0124 24.7527 50.5793 25.3957 50.0931 26.0035C49.6158 26.6025 49.0766 27.1487 48.502 27.6596C47.9275 28.1617 47.3087 28.6109 46.6458 29.0073C45.974 29.4037 45.2668 29.7384 44.5331 30.0115C43.7641 30.2934 42.9774 30.5048 42.173 30.6458C41.3156 30.7955 40.4493 30.8924 39.5742 30.8924H29.5591V0L39.5035 0.0176176C40.3698 0.0176176 41.236 0.0968966 42.0934 0.237837C42.8978 0.369969 43.6934 0.58138 44.4536 0.854452C45.1873 1.11872 45.8944 1.45345 46.5662 1.84104C47.2203 2.22862 47.8479 2.66906 48.4313 3.17116C49.0059 3.67326 49.5451 4.21941 50.0224 4.80959C50.5174 5.40859 50.9506 6.05163 51.3395 6.7211C51.7373 7.40819 52.082 8.1305 52.3737 8.87044C52.6743 9.63681 52.9218 10.4296 53.1162 11.2312C53.3195 12.068 53.461 12.9137 53.5582 13.7681C53.6201 14.3495 53.6554 14.9221 53.6554 15.4946" fill="#00A06E"/>
<path d="M85.3891 12.4292H83.3383V13.9619H85.3891V12.4292Z" fill="#063532"/>
<path d="M117.883 12.4292H115.832V13.9619H117.883V12.4292Z" fill="#063532"/>
<path d="M65.5622 35.3848V33.3147H67.2417C67.719 33.3324 68.0991 33.4733 68.3643 33.7552C68.6295 34.0371 68.7621 34.4246 68.7621 34.9179V35.4993C68.7621 36.0719 68.8947 36.5299 69.1687 36.8911C69.372 37.1642 69.6902 37.3315 70.1145 37.3932C70.2559 37.4196 70.415 37.4284 70.5741 37.4284H71.6349V36.1952C70.7863 36.1952 70.804 35.42 70.804 35.42V34.9003C70.804 34.2925 70.6714 33.7816 70.4062 33.3676C70.141 32.9536 69.7079 32.6629 69.1068 32.4867C69.6372 32.2577 70.0438 31.9494 70.3178 31.5706C70.5918 31.1918 70.7333 30.7514 70.7333 30.2317C70.7333 29.2979 70.4062 28.5668 69.7432 28.0383C69.0803 27.5097 68.1698 27.2455 67.0118 27.2455H62.4242V28.4787C62.4242 28.4787 63.4584 28.4259 63.5114 29.3067V35.376C63.5114 35.376 63.5733 36.204 62.4242 36.204V37.4284H66.6583V36.204C66.6583 36.204 65.5622 36.2745 65.5622 35.376M68.2582 31.3768C67.9754 31.6234 67.5422 31.738 66.9765 31.738H65.5622V28.8223H67.0118C67.5599 28.8223 67.9842 28.9632 68.2671 29.2363C68.5499 29.5093 68.6913 29.8705 68.6913 30.3286C68.6913 30.7866 68.5499 31.139 68.2671 31.3768" fill="#063532"/>
<path d="M75.7187 29.7295C74.6049 29.7295 73.721 30.0907 73.0934 30.813C72.457 31.5353 72.1387 32.4602 72.1387 33.5877V33.7375C72.1387 34.8738 72.457 35.7987 73.0934 36.5123C73.7298 37.2258 74.6049 37.5869 75.7364 37.5869C76.8678 37.5869 77.7253 37.2258 78.3529 36.5123C78.9893 35.7987 79.2987 34.8738 79.2987 33.7375V33.5877C79.2987 32.4514 78.9805 31.5265 78.3529 30.813C77.7164 30.0995 76.8413 29.7383 75.7187 29.7383M77.2656 33.7375C77.2656 34.2484 77.1949 34.6888 77.0623 35.0588C77.0181 35.1821 76.9651 35.2966 76.9032 35.4023C76.6557 35.8252 76.2668 36.0278 75.7452 36.0278C75.2237 36.0278 74.8082 35.8164 74.5696 35.4023C74.3221 34.9883 74.2072 34.4334 74.2072 33.7375V33.5877C74.2072 32.9183 74.3309 32.3721 74.5696 31.9493C74.8082 31.5265 75.1972 31.3151 75.7364 31.3151C76.2756 31.3151 76.6645 31.5265 76.912 31.9493C77.1595 32.3721 77.2833 32.9183 77.2833 33.5877V33.7375H77.2656Z" fill="#063532"/>
<path d="M117.211 36.2128V37.4373H113.286V36.2128C114.215 36.2128 114.17 35.5081 114.17 35.5081V32.8479C114.17 32.2753 114.073 31.8789 113.887 31.6499C113.702 31.4209 113.419 31.3152 113.057 31.3152C112.765 31.3152 112.517 31.3768 112.305 31.5089C112.093 31.6323 111.925 31.8173 111.792 32.0463C111.792 32.1256 111.792 32.2048 111.792 32.2577C111.792 32.3105 111.792 32.3634 111.792 32.4251V35.4993C111.792 35.4993 111.748 36.204 112.623 36.204V37.4284H108.929V36.204C109.795 36.204 109.759 35.4993 109.759 35.4993V32.8391C109.759 32.2841 109.671 31.8877 109.477 31.6499C109.282 31.412 109.008 31.3063 108.637 31.3063C108.363 31.3063 108.115 31.3592 107.912 31.4649C107.7 31.5706 107.532 31.7204 107.399 31.9053V35.4905C107.399 35.4905 107.373 36.1952 108.283 36.1952V37.4196H104.367V36.1952C104.367 36.1952 105.357 36.2481 105.357 35.4729V31.9494C105.357 31.9494 105.446 31.0773 104.261 31.0773V29.8441H107.258L107.346 30.8395C107.585 30.4783 107.894 30.1964 108.266 29.9938C108.637 29.8 109.061 29.6943 109.538 29.6943C110.016 29.6943 110.44 29.8 110.785 30.0203C111.13 30.2317 111.395 30.5576 111.572 30.9892C111.801 30.584 112.111 30.2669 112.482 30.0379C112.853 29.8088 113.295 29.6943 113.799 29.6943C114.55 29.6943 115.134 29.9498 115.567 30.4695C116 30.9804 116.212 31.7644 116.212 32.8215V35.4729C116.212 35.4729 116.177 36.1776 117.202 36.1776" fill="#063532"/>
<path d="M122.205 29.7295C121.79 29.7295 121.427 29.8176 121.109 29.9938C120.791 30.17 120.526 30.4254 120.305 30.7514L120.208 29.8705H117.238V31.0949C117.238 31.0949 118.334 31.0509 118.334 31.9229V38.2917C118.334 38.2917 118.378 39.1021 117.344 39.1021V40.3353H121.366V39.1021C120.287 39.1021 120.376 38.2917 120.376 38.2917V36.7061C120.597 36.988 120.862 37.2082 121.171 37.3491C121.481 37.4989 121.834 37.5693 122.232 37.5693C123.16 37.5693 123.885 37.2258 124.406 36.5475C124.928 35.8693 125.184 34.9619 125.184 33.852V33.7023C125.184 32.5043 124.928 31.5441 124.406 30.813C123.885 30.0819 123.16 29.7119 122.223 29.7119M123.142 33.8432C123.142 34.5039 123.027 35.0324 122.798 35.42C122.568 35.8076 122.205 36.0014 121.71 36.0014C121.392 36.0014 121.127 35.9485 120.906 35.834C120.685 35.7195 120.517 35.5609 120.393 35.3407V32.0286C120.517 31.7996 120.694 31.6146 120.906 31.4913C121.127 31.368 121.383 31.3063 121.693 31.3063C122.188 31.3063 122.55 31.5265 122.789 31.967C123.027 32.4074 123.151 32.9888 123.151 33.7023V33.852L123.142 33.8432Z" fill="#063532"/>
<path d="M134.351 29.7295C133.237 29.7295 132.353 30.0907 131.725 30.813C131.089 31.5353 130.771 32.4602 130.771 33.5877V33.7375C130.771 34.8738 131.089 35.7987 131.725 36.5123C132.362 37.2258 133.237 37.5869 134.368 37.5869C135.5 37.5869 136.357 37.2258 136.985 36.5123C137.621 35.7987 137.94 34.8738 137.94 33.7375V33.5877C137.94 32.4514 137.621 31.5265 136.985 30.813C136.348 30.0995 135.473 29.7383 134.351 29.7383M135.898 33.7375C135.898 34.2484 135.827 34.6888 135.694 35.0588C135.65 35.1821 135.597 35.2966 135.535 35.4023C135.288 35.8252 134.899 36.0278 134.377 36.0278C133.856 36.0278 133.44 35.8164 133.202 35.4023C132.954 34.9883 132.839 34.4334 132.839 33.7375V33.5877C132.839 32.9183 132.963 32.3721 133.202 31.9493C133.44 31.5265 133.829 31.3151 134.368 31.3151C134.908 31.3151 135.288 31.5265 135.544 31.9493C135.792 32.3721 135.915 32.9183 135.915 33.5877V33.7375H135.898Z" fill="#063532"/>
<path d="M95.9964 36.2129V37.4373H92.0805V36.2129C92.0805 36.2129 92.9645 36.2745 92.9645 35.4113V32.936C92.9645 32.3458 92.8584 31.9318 92.6551 31.6851C92.4518 31.4385 92.1335 31.3152 91.7269 31.3152C91.4441 31.3152 91.1877 31.368 90.9756 31.4649C90.7634 31.5706 90.5866 31.7116 90.4364 31.8965V35.4024C90.4364 35.4024 90.3833 36.204 91.3203 36.204V37.4285H87.4044V36.204C87.4044 36.204 88.3945 36.2657 88.3945 35.3936V28.5844C88.3945 28.5844 88.4298 27.7564 87.2984 27.7564V26.5232H90.4364V30.8307C90.675 30.4783 90.9667 30.2141 91.3115 30.0203C91.6562 29.8265 92.0452 29.7296 92.4606 29.7296C93.2562 29.7296 93.8838 29.9939 94.3257 30.5136C94.7765 31.0421 95.0064 31.8437 95.0064 32.9448V35.3936C95.0064 35.3936 94.918 36.2129 95.9875 36.2129" fill="#063532"/>
<path d="M103.006 35.5081V32.3809C103.006 31.5353 102.714 30.8834 102.122 30.4166C101.539 29.9585 100.77 29.7295 99.8327 29.7295C99.2582 29.7295 98.7366 29.8176 98.2505 29.9849C97.7643 30.1523 97.34 30.3725 96.9599 30.6192V32.2928H98.498C98.498 32.2928 98.5687 31.2094 99.7001 31.2094C100.107 31.2094 100.425 31.3063 100.628 31.5089C100.84 31.7115 100.946 31.9933 100.946 32.3545V33.0944H99.9034C98.7985 33.0944 97.9588 33.2882 97.393 33.6758C96.8185 34.0634 96.5356 34.6096 96.5356 35.3143C96.5356 35.5169 96.5533 35.7018 96.5886 35.878C96.6417 36.1247 96.7301 36.3537 96.8538 36.5563C96.9422 36.706 97.0571 36.8382 97.1897 36.9615C97.5433 37.2874 98.003 37.4812 98.5687 37.5429C98.6924 37.5517 98.825 37.5693 98.9576 37.5693C99.0283 37.5693 99.0902 37.5693 99.1609 37.5605C99.5322 37.5341 99.8592 37.4548 100.16 37.3139C100.505 37.1377 100.805 36.9175 101.044 36.6356C101.044 36.6356 100.955 37.1465 101.291 37.4284H103.651V36.2039C102.927 36.2039 102.997 35.4992 102.997 35.4992M100.938 35.3671C100.938 35.3671 100.92 35.3847 100.92 35.3935C100.779 35.5873 100.593 35.7459 100.354 35.8692C100.098 36.0013 99.8239 36.0718 99.5145 36.0718C99.2051 36.0718 98.993 36.0013 98.825 35.8516C98.6571 35.7107 98.5775 35.5081 98.5775 35.2526C98.5775 35.1733 98.5864 35.094 98.604 35.0236C98.6482 34.8386 98.7455 34.6712 98.9134 34.5215C99.1344 34.3189 99.4703 34.2132 99.9034 34.2132H100.946V35.3671H100.938Z" fill="#063532"/>
<path d="M123.443 21.0704L123.62 22.5415C123.39 22.6119 123.16 22.6648 122.939 22.7C122.718 22.7353 122.471 22.7529 122.205 22.7529C121.498 22.7529 120.959 22.5591 120.57 22.1715C120.19 21.7839 119.995 21.1761 119.995 20.3305V16.4722H118.882V15.0364H119.341C119.695 15.0364 119.995 14.7457 119.995 14.3933V13.1777H122.037V15.0276H123.372V16.4634H122.037V20.3128C122.037 20.6035 122.099 20.8149 122.223 20.9383C122.223 20.9383 122.577 21.3347 123.434 21.0528" fill="#063532"/>
<path d="M66.6406 13.6624V12.4292H62.4065V13.6624C62.4065 13.6624 63.4937 13.6977 63.4937 14.7547V19.1855C63.4937 20.3307 63.865 21.2116 64.6164 21.8282C65.3677 22.4448 66.3489 22.7619 67.5687 22.7619C68.7886 22.7619 69.7874 22.4536 70.5388 21.8282C71.2901 21.2116 71.6702 20.3307 71.6702 19.1855V14.7547C71.6702 14.7547 71.6526 13.6624 72.7663 13.6624V12.4292H68.5322V13.6624C69.6195 13.6624 69.6195 14.7547 69.6195 14.7547V19.0886C69.6195 19.7669 69.4339 20.269 69.0714 20.5949C68.709 20.9297 68.2052 21.0882 67.5599 21.0882C66.9146 21.0882 66.4284 20.9209 66.066 20.5861C65.7036 20.2514 65.518 19.7493 65.518 19.0798V14.7547C65.518 14.7547 65.4649 13.6624 66.6141 13.6624" fill="#063532"/>
<path d="M81.6411 21.3875V22.612H77.7253V21.3875C78.6711 21.3875 78.6004 20.5771 78.6004 20.5771V17.8993C78.6004 17.3884 78.4943 17.0272 78.291 16.8158C78.0877 16.6044 77.7783 16.4987 77.3628 16.4987C77.0888 16.4987 76.8502 16.5515 76.6292 16.666C76.417 16.7717 76.2314 16.9303 76.09 17.1329V20.5859C76.09 20.5859 76.0104 21.3963 76.9209 21.3963V22.6208H73.0669V21.3963C74.0657 21.3963 74.048 20.5859 74.048 20.5859V17.1153C74.048 16.1992 72.9608 16.2873 72.9608 16.2873V15.054H75.9574L76.0458 16.1375C76.3021 15.7499 76.6115 15.4504 76.9739 15.239C77.3452 15.0276 77.7606 14.9131 78.2114 14.9131C78.9805 14.9131 79.5727 15.1509 80.0058 15.6354C80.439 16.1111 80.6511 16.8686 80.6511 17.8905V20.5771C80.6511 20.5771 80.5716 21.3875 81.6323 21.3875" fill="#063532"/>
<path d="M86.4675 16.2786V15.0454H89.9149V16.2786C89.5348 16.3491 89.2961 16.7367 89.4022 17.1067L90.1977 19.9343L90.3303 20.4276H90.3745L90.5248 19.9343L91.3115 17.1067C91.4176 16.7367 91.1877 16.3491 90.8076 16.2786H90.79V15.0454H94.2373V16.2786C93.5744 16.2786 93.4153 16.8424 93.4153 16.8424L91.338 22.6122H89.3845L87.3072 16.8424C87.3072 16.8424 87.1746 16.2786 86.4851 16.2786" fill="#063532"/>
<path d="M97.888 14.9043C96.845 14.9043 96.0141 15.2567 95.3953 15.9878C94.7765 16.7101 94.4672 17.6439 94.4672 18.7626V19.0445C94.4672 20.1191 94.7942 21.0088 95.4483 21.7047C96.1025 22.4006 96.9776 22.753 98.0737 22.753C98.6836 22.753 99.2405 22.6649 99.7355 22.4975C100.23 22.3301 100.637 22.1187 100.955 21.8721L100.398 20.6124C100.045 20.8062 99.7178 20.956 99.4173 21.0441C99.1167 21.1321 98.7455 21.1762 98.2858 21.1762C97.7731 21.1762 97.3753 21.0176 97.0748 20.6917C96.7743 20.3746 96.6151 19.9606 96.5709 19.4585L96.5886 19.4144H101.123V18.3045C101.123 17.2563 100.84 16.4283 100.275 15.8116C99.709 15.195 98.9134 14.8867 97.888 14.8867M99.1167 18.0667H96.6063L96.5886 18.0315C96.6417 17.5646 96.7743 17.1858 96.9952 16.8951C97.2162 16.6044 97.5168 16.4635 97.8969 16.4635C98.3035 16.4635 98.6129 16.5956 98.8162 16.8511C99.0195 17.1065 99.1256 17.4589 99.1256 17.8905V18.0755L99.1167 18.0667Z" fill="#063532"/>
<path d="M106.621 14.9043C106.727 14.9043 106.842 14.9043 106.966 14.9307C107.081 14.9484 107.284 14.9924 107.364 15.01L107.019 16.9656L106.206 16.8246C106.206 16.8246 105.543 16.6573 105.163 17.1858C105.066 17.3267 105.013 17.5205 105.013 17.6967V20.5684C105.013 20.5684 104.96 21.3788 105.994 21.3788V22.6032H101.981V21.3788C103.015 21.3788 102.962 20.5684 102.962 20.5684V17.0977C102.962 16.1816 101.875 16.2697 101.875 16.2697V15.0364H104.871L104.96 16.1375C105.136 15.75 105.366 15.4417 105.649 15.2214C105.932 15.0012 106.25 14.8955 106.621 14.8955" fill="#063532"/>
<path d="M113.322 18.9475C112.871 18.5863 112.173 18.3133 111.236 18.1283C110.635 18.0138 110.228 17.8728 110.025 17.7231C109.821 17.5733 109.724 17.3795 109.724 17.1505C109.724 16.9127 109.83 16.7101 110.042 16.5427C110.254 16.3841 110.537 16.3049 110.9 16.3049C111.156 16.3049 111.395 16.3401 111.607 16.4194C111.686 16.4458 111.757 16.481 111.828 16.5075C112.022 16.6044 112.155 16.7893 112.208 17.0007L112.314 17.6438H113.728L113.711 15.7675C113.41 15.5209 112.995 15.3183 112.473 15.1597C111.943 15.0012 111.386 14.9219 110.802 14.9219C109.83 14.9219 109.088 15.1509 108.566 15.609C108.045 16.067 107.779 16.6132 107.779 17.2474C107.779 17.8816 108.009 18.3485 108.46 18.7008C108.92 19.0532 109.591 19.3263 110.484 19.5112C111.076 19.6346 111.474 19.7843 111.695 19.9429C111.916 20.1102 112.022 20.304 112.022 20.5243C112.022 20.7797 111.916 20.9823 111.695 21.1321C111.474 21.2818 111.165 21.3523 110.741 21.3523C110.511 21.3523 110.29 21.3259 110.078 21.2818C110.051 21.2818 110.033 21.273 110.007 21.2642C109.759 21.1937 109.565 20.9999 109.494 20.7445L109.344 20.0662H107.868L107.885 21.7663C108.266 22.0834 108.699 22.3301 109.185 22.4974C109.671 22.6648 110.21 22.7529 110.794 22.7529C111.748 22.7529 112.526 22.5415 113.11 22.1098C113.693 21.6782 113.994 21.1233 113.994 20.445C113.994 19.8107 113.764 19.3175 113.313 18.9563" fill="#063532"/>
<path d="M138.01 14.9043C136.897 14.9043 136.013 15.2655 135.385 15.9878C134.749 16.7101 134.43 17.635 134.43 18.7625V18.9123C134.43 20.0486 134.749 20.9735 135.385 21.6871C136.021 22.4006 136.897 22.7617 138.028 22.7617C139.159 22.7617 140.017 22.4006 140.644 21.6871C141.281 20.9735 141.599 20.0486 141.599 18.9123V18.7625C141.599 17.6262 141.281 16.7013 140.644 15.9878C140.008 15.2743 139.133 14.9131 138.01 14.9131M139.557 18.9123C139.557 19.5994 139.433 20.1455 139.186 20.5683C138.938 20.9912 138.549 21.1938 138.028 21.1938C137.506 21.1938 137.091 20.9824 136.852 20.5683C136.605 20.1543 136.49 19.5994 136.49 18.9035V18.7537C136.49 18.0843 136.614 17.5381 136.852 17.1153C137.091 16.6925 137.48 16.4811 138.019 16.4811C138.558 16.4811 138.938 16.6925 139.186 17.1153C139.433 17.5381 139.557 18.0843 139.557 18.7537V18.9035V18.9123Z" fill="#063532"/>
<path d="M143.844 12.2441C143.358 12.711 143.111 13.354 143.111 14.2085V15.0453H141.979V16.4811H143.111V20.5772C143.111 20.5772 143.155 21.3876 142.121 21.3876V22.6121H146.151V21.3876C145.091 21.3876 145.161 20.5772 145.161 20.5772V16.4811H146.673V15.0453H145.161V14.2085C145.161 13.8649 145.25 13.6095 145.418 13.4245C145.718 13.0986 146.346 13.0809 146.744 13.2307V11.6363C146.744 11.6363 144.94 11.2047 143.853 12.2353" fill="#063532"/>
<path d="M83.3383 17.0979V20.5685C83.3383 21.3525 82.3483 21.3789 82.3483 21.3789V22.6033H86.3702V21.3789C86.3702 21.3789 85.3891 21.4406 85.3891 20.5685V15.0454H82.2511V16.2786C82.2511 16.2786 83.3471 16.1641 83.3471 17.1067" fill="#063532"/>
<path d="M115.832 17.0979V20.5685C115.832 21.3525 114.842 21.3789 114.842 21.3789V22.6033H118.864V21.3789C118.864 21.3789 117.883 21.4406 117.883 20.5685V15.0454H114.745V16.2786C114.745 16.2786 115.841 16.1641 115.841 17.1067" fill="#063532"/>
<path d="M128.287 19.8988L129.189 17.221C129.33 16.7981 129.056 16.3489 128.614 16.2784H128.605V15.0452H132.327V16.2784C131.646 16.2784 131.469 16.7805 131.469 16.7805L128.826 23.7395C128.605 24.2856 128.313 24.7437 127.942 25.1136C127.58 25.4836 127.023 25.6686 126.28 25.6686C126.104 25.6686 125.944 25.651 125.794 25.6245C125.644 25.5981 125.458 25.5541 125.255 25.5012L125.494 24.0125C126.758 24.2856 127.085 23.1845 127.085 23.1845L127.315 22.6119L125.06 16.7717C125.06 16.7717 124.893 16.2432 124.203 16.2696V15.0364H127.924V16.2696C127.483 16.3401 127.208 16.7981 127.35 17.221L128.287 19.89V19.8988Z" fill="#063532"/>
<path d="M83.5593 29.7383C82.5162 29.7383 81.6853 30.0907 81.0666 30.8218C80.4478 31.5529 80.1384 32.4778 80.1384 33.5966V33.8784C80.1384 34.9531 80.4655 35.8428 81.1196 36.5387C81.7737 37.2346 82.6488 37.5869 83.7449 37.5869C84.3548 37.5869 84.9117 37.4989 85.4067 37.3315C85.9017 37.1641 86.3084 36.9527 86.6266 36.7061L86.0697 35.4464C85.7161 35.6402 85.3891 35.79 85.0885 35.878C84.788 35.9661 84.4167 36.0102 83.9571 36.0102C83.4444 36.0102 83.0466 35.8516 82.7461 35.5257C82.4455 35.2086 82.2864 34.7946 82.2422 34.2925L82.2599 34.2484H86.7945V33.1385C86.7945 32.0903 86.5117 31.2622 85.9459 30.6456C85.3802 30.029 84.5847 29.7207 83.5593 29.7207M84.788 32.9007H82.2776L82.2599 32.8654C82.3129 32.3986 82.4455 32.0198 82.6665 31.7291C82.8875 31.4384 83.188 31.2975 83.5681 31.2975C83.9747 31.2975 84.2841 31.4296 84.4874 31.6851C84.6907 31.9405 84.7968 32.2929 84.7968 32.7245V32.9095L84.788 32.9007Z" fill="#063532"/>
<path d="M147 36.2129V37.4373H143.084V36.2129C144.03 36.2129 143.959 35.4024 143.959 35.4024V32.7246C143.959 32.2137 143.853 31.8525 143.65 31.6411C143.447 31.4297 143.128 31.324 142.713 31.324C142.439 31.324 142.2 31.3768 141.988 31.4914C141.776 31.5971 141.59 31.7556 141.449 31.9582V35.4113C141.449 35.4113 141.369 36.2217 142.28 36.2217V37.4461H138.426V36.2217C139.425 36.2217 139.407 35.4113 139.407 35.4113V31.9406C139.407 31.0245 138.32 31.1126 138.32 31.1126V29.8793H141.316L141.405 30.9628C141.652 30.5752 141.97 30.2757 142.333 30.0643C142.704 29.8529 143.119 29.7384 143.57 29.7384C144.339 29.7384 144.932 29.9762 145.365 30.4607C145.798 30.9364 146.01 31.694 146.01 32.7158V35.4024C146.01 35.4024 145.93 36.2129 146.991 36.2129" fill="#063532"/>
<path d="M130.214 35.9045L130.391 37.3756C130.161 37.446 129.931 37.4989 129.71 37.5341C129.489 37.5694 129.242 37.587 128.976 37.587C128.269 37.587 127.73 37.3932 127.341 37.0056C126.961 36.618 126.767 36.0102 126.767 35.1646V31.3063H125.653V29.8705H126.112C126.466 29.8705 126.767 29.5798 126.767 29.2275V28.0118H128.808V29.8617H130.143V31.2975H128.808V35.147C128.808 35.4376 128.87 35.6491 128.994 35.7724C128.994 35.7724 129.348 36.1688 130.205 35.8869" fill="#063532"/>
<path d="M63.5026 44.0262C63.5026 43.0836 62.4153 43.1629 62.4153 43.1629V41.9297H66.6406V43.1629C66.6406 43.1629 65.5445 43.0748 65.5445 44.035V50.5359H67.6836C67.6836 50.5359 68.5234 50.5975 68.5234 49.2586H70.088V52.095H62.4153V50.8706C63.5998 50.8706 63.5026 49.9985 63.5026 49.9985V44.0174V44.0262Z" fill="#00A06E"/>
<path d="M70.8747 48.2544C70.8747 47.1269 71.1929 46.202 71.8205 45.4885C72.457 44.7662 73.3232 44.4138 74.4458 44.4138C75.5684 44.4138 76.4435 44.775 77.08 45.4885C77.7076 46.202 78.0258 47.1269 78.0258 48.2633V48.413C78.0258 49.5493 77.7076 50.4743 77.08 51.1878C76.4435 51.9013 75.5773 52.2624 74.4635 52.2624C73.3497 52.2624 72.457 51.9013 71.8294 51.1878C71.1929 50.4743 70.8835 49.5493 70.8835 48.413V48.2633L70.8747 48.2544ZM72.9166 48.4042C72.9166 49.0913 73.0404 49.6462 73.279 50.0602C73.5265 50.4743 73.9155 50.6857 74.4547 50.6857C74.9939 50.6857 75.374 50.4743 75.6126 50.0602C75.8601 49.6462 75.9839 49.0913 75.9839 48.4042V48.2544C75.9839 47.585 75.8601 47.0388 75.6126 46.616C75.3651 46.1932 74.9762 45.9818 74.4458 45.9818C73.9155 45.9818 73.5265 46.1932 73.279 46.616C73.0404 47.0388 72.9166 47.585 72.9166 48.2544V48.4042Z" fill="#00A06E"/>
<path d="M91.506 42.4406V41.2074H94.644V50.0602C94.644 50.0602 94.5821 50.8794 95.6251 50.8794V52.1039H92.8672C92.8672 52.1039 92.6197 51.7515 92.717 51.1789C92.4783 51.5313 92.1954 51.7956 91.8684 51.9717C91.5413 52.1567 91.1701 52.2448 90.7546 52.2448C89.8176 52.2448 89.0928 51.9101 88.5801 51.223C88.0674 50.5447 87.8022 49.6462 87.8022 48.5275V48.3777C87.8022 47.1886 88.0586 46.2284 88.5801 45.4973C89.1016 44.7661 89.8265 44.405 90.7634 44.405C91.1435 44.405 91.4794 44.4843 91.7888 44.6516C92.0894 44.819 92.3545 45.048 92.5844 45.3563V43.3039C92.5844 42.4318 91.4883 42.4406 91.4883 42.4406M89.8441 48.5363C89.8441 49.197 89.9502 49.7167 90.18 50.0955C90.401 50.4742 90.7634 50.668 91.2673 50.668C91.5678 50.668 91.8242 50.6064 92.0452 50.483C92.2661 50.3597 92.4429 50.1924 92.5844 49.9633V46.7569C92.4429 46.5103 92.2661 46.3253 92.0452 46.1932C91.833 46.061 91.5767 45.9906 91.2761 45.9906C90.7723 45.9906 90.4099 46.2108 90.18 46.6512C89.9502 47.0917 89.8353 47.673 89.8353 48.3866V48.5363H89.8441Z" fill="#00A06E"/>
<path d="M96.1378 48.2544C96.1378 47.1269 96.456 46.202 97.0836 45.4885C97.7201 44.7662 98.5863 44.4138 99.709 44.4138C100.832 44.4138 101.707 44.775 102.343 45.4885C102.98 46.202 103.289 47.1269 103.289 48.2633V48.413C103.289 49.5493 102.971 50.4743 102.343 51.1878C101.707 51.9013 100.84 52.2624 99.7266 52.2624C98.6129 52.2624 97.7201 51.9013 97.0925 51.1878C96.456 50.4743 96.1467 49.5493 96.1467 48.413V48.2633L96.1378 48.2544ZM98.1797 48.4042C98.1797 49.0913 98.3035 49.6462 98.5421 50.0602C98.7897 50.4743 99.1786 50.6857 99.7178 50.6857C100.257 50.6857 100.637 50.4743 100.876 50.0602C101.123 49.6462 101.247 49.0913 101.247 48.4042V48.2544C101.247 47.585 101.123 47.0388 100.876 46.616C100.628 46.1932 100.239 45.9818 99.709 45.9818C99.1786 45.9818 98.7897 46.1932 98.5421 46.616C98.3035 47.0388 98.1797 47.585 98.1797 48.2544V48.4042Z" fill="#00A06E"/>
<path d="M112.394 50.8707V52.0951H108.478V50.8707C109.424 50.8707 109.353 50.0603 109.353 50.0603V47.3824C109.353 46.8715 109.247 46.5103 109.043 46.2989C108.84 46.0875 108.531 45.9818 108.115 45.9818C107.841 45.9818 107.603 46.0347 107.382 46.1492C107.169 46.2549 106.984 46.4134 106.842 46.616V50.0691C106.842 50.0691 106.763 50.8795 107.673 50.8795V52.1039H103.819V50.8795C104.818 50.8795 104.8 50.0691 104.8 50.0691V46.5984C104.8 45.6823 103.713 45.7704 103.713 45.7704V44.5372H106.71L106.798 45.6206C107.055 45.2331 107.364 44.9336 107.726 44.7221C108.089 44.5107 108.513 44.405 108.964 44.405C109.733 44.405 110.325 44.6429 110.758 45.1273C111.191 45.6118 111.404 46.3606 111.404 47.3824V50.0691C111.404 50.0691 111.324 50.8795 112.385 50.8795" fill="#00A06E"/>
<path d="M87.2807 50.8707V52.0951H83.3648V50.8707C84.3106 50.8707 84.2399 50.0603 84.2399 50.0603V47.3824C84.2399 46.8715 84.1338 46.5103 83.9305 46.2989C83.7272 46.0875 83.4179 45.9818 83.0024 45.9818C82.7284 45.9818 82.4897 46.0347 82.2687 46.1492C82.0566 46.2549 81.871 46.4134 81.7295 46.616V50.0691C81.7295 50.0691 81.65 50.8795 82.5604 50.8795V52.1039H78.7064V50.8795C79.7053 50.8795 79.6876 50.0691 79.6876 50.0691V46.5984C79.6876 45.6823 78.6004 45.7704 78.6004 45.7704V44.5372H81.5969L81.6853 45.6206C81.9417 45.2331 82.251 44.9336 82.6135 44.7221C82.9759 44.5107 83.4002 44.405 83.851 44.405C84.62 44.405 85.2123 44.6429 85.6454 45.1273C86.0785 45.6118 86.2907 46.3606 86.2907 47.3824V50.0691C86.2907 50.0691 86.2111 50.8795 87.2719 50.8795" fill="#00A06E"/>
</g>
<defs>
<clipPath id="clip0_13_170">
<rect width="147" height="65" fill="white"/>
</clipPath>
</defs>
</svg>
