<svg xmlns="http://www.w3.org/2000/svg" width="160" height="160" viewBox="0 0 160 160">
    <g id="Logo_160_-_red" data-name="Logo 160 - red" transform="translate(-138 -2075)">
        <circle id="Ellipse_308" data-name="Ellipse 308" cx="80" cy="80" r="80" transform="translate(138 2075)"
            fill="#cd1422" />
        <g id="Group_1657" data-name="Group 1657" transform="translate(137.71 2074.66)">
            <path id="Path_2429" data-name="Path 2429"
                d="M15.58,63.42a5.929,5.929,0,0,0,3.39,1.12c1,0,2.1-.33,2.1-1.29,0-2.43-6.25-2.12-6.25-6.65,0-2.25,1.81-4.31,5.07-4.31a9,9,0,0,1,3.88.8v3.06A8.507,8.507,0,0,0,20,55.12c-.83,0-1.54.29-1.54,1.18,0,2.28,6.25,1.92,6.25,6.65,0,2.72-2.45,4.42-5.6,4.42a8.525,8.525,0,0,1-4.82-1.38l1.29-2.57Z"
                fill="#fff" />
            <path id="Path_2430" data-name="Path 2430"
                d="M25.89,61.83a5.311,5.311,0,0,1,5.56-5.51,5.52,5.52,0,1,1,0,11.04A5.327,5.327,0,0,1,25.89,61.83Zm7.68,0c0-1.63-.62-2.86-2.12-2.86s-2.12,1.23-2.12,2.86.62,2.88,2.12,2.88,2.12-1.25,2.12-2.88Z"
                fill="#fff" />
            <path id="Path_2431" data-name="Path 2431"
                d="M39,65.22a5.969,5.969,0,0,1-.4-2.41V56.58h3.37v6.03a2.4,2.4,0,0,0,.22,1.12,1.568,1.568,0,0,0,1.5.8,2.392,2.392,0,0,0,1.61-.58V56.59h3.37V65.2a7.348,7.348,0,0,0,.18,1.94H46.02l-.47-1a4.538,4.538,0,0,1-3.12,1.23,3.588,3.588,0,0,1-3.41-2.14Z"
                fill="#fff" />
            <path id="Path_2432" data-name="Path 2432"
                d="M52.23,64.27V59.18H50.24V56.59h1.99v-2.5l3.37-.96v3.46h3.21l-.76,2.59H55.6v4.2c0,1,.31,1.34.98,1.34a3.061,3.061,0,0,0,1.54-.45l.94,2.28a6.789,6.789,0,0,1-3.37.83c-2.12,0-3.46-1.18-3.46-3.1Z"
                fill="#fff" />
            <path id="Path_2433" data-name="Path 2433"
                d="M60.64,51.34h3.37v6.29a5.35,5.35,0,0,1,3.39-1.32c1.7,0,3.55.67,3.55,3.93v6.9H67.58V61.25c0-1.09-.18-2.03-1.43-2.03a3.657,3.657,0,0,0-2.14.78v7.14H60.64V51.34Z"
                fill="#fff" />
            <path id="Path_2434" data-name="Path 2434"
                d="M79.07,66.25a4.291,4.291,0,0,1-2.95,1.12,3.4,3.4,0,0,1-3.59-3.46,3.02,3.02,0,0,1,1.76-2.88,6.707,6.707,0,0,1,2.79-.65l1.67-.07V60.2c0-.98-.71-1.38-1.85-1.38a6.123,6.123,0,0,0-2.68.65l-1.05-2.12a9.628,9.628,0,0,1,4.35-1.03c3.26,0,4.6,1.45,4.6,4.02v4.73a7.87,7.87,0,0,0,.18,2.08H79.53l-.47-.89Zm-1.45-3.77a2.588,2.588,0,0,0-1.25.29.977.977,0,0,0-.47.91c0,.74.51,1.09,1.32,1.09a3,3,0,0,0,1.54-.38V62.43l-1.14.04Z"
                fill="#fff" />
            <path id="Path_2435" data-name="Path 2435"
                d="M83.73,56.59h2.83l.31,1.07a5.923,5.923,0,0,1,3.46-1.34,3.159,3.159,0,0,1,2.88,1.5,6.1,6.1,0,0,1,3.7-1.5c1.94,0,3.75.96,3.75,3.91v6.92H97.29V61.1c0-1.03-.16-1.87-1.41-1.87a3.559,3.559,0,0,0-2.01.69v7.23H90.5v-6c0-1.03-.13-1.92-1.38-1.92a3.619,3.619,0,0,0-2.03.69v7.23H83.72V56.59Z"
                fill="#fff" />
            <path id="Path_2436" data-name="Path 2436"
                d="M102.28,57.01a14.314,14.314,0,0,1,4.35-.69c4.08,0,6.07,2.25,6.07,5.53a5.3,5.3,0,0,1-5.62,5.51,5.917,5.917,0,0,1-1.43-.16v5.22h-3.37V57Zm4.53,7.61c1.67,0,2.45-1.07,2.45-2.74a2.491,2.491,0,0,0-2.77-2.81,3.31,3.31,0,0,0-.85.09v5.31a4.39,4.39,0,0,0,1.16.16Z"
                fill="#fff" />
            <path id="Path_2437" data-name="Path 2437"
                d="M115.47,64.27V59.18h-1.99V56.59h1.99v-2.5l3.37-.96v3.46h3.21l-.76,2.59h-2.45v4.2c0,1,.31,1.34.98,1.34a3.061,3.061,0,0,0,1.54-.45l.94,2.28a6.789,6.789,0,0,1-3.37.83c-2.12,0-3.46-1.18-3.46-3.1Z"
                fill="#fff" />
            <path id="Path_2438" data-name="Path 2438"
                d="M122.46,61.83a5.56,5.56,0,1,1,5.56,5.53,5.311,5.311,0,0,1-5.56-5.53Zm7.68,0c0-1.63-.62-2.86-2.12-2.86s-2.12,1.23-2.12,2.86.62,2.88,2.12,2.88,2.12-1.25,2.12-2.88Z"
                fill="#fff" />
            <path id="Path_2439" data-name="Path 2439"
                d="M135.16,56.59h2.88l.33,1.07a5.755,5.755,0,0,1,3.55-1.34c1.7,0,3.55.67,3.55,3.93v6.9H142.1V61.26c0-1.09-.18-2.03-1.43-2.03a3.657,3.657,0,0,0-2.14.78v7.14h-3.37V56.59Z"
                fill="#fff" />
            <path id="Path_2440" data-name="Path 2440"
                d="M15.58,83.97a5.929,5.929,0,0,0,3.39,1.12c1,0,2.1-.33,2.1-1.29,0-2.43-6.25-2.12-6.25-6.65,0-2.25,1.81-4.31,5.07-4.31a9,9,0,0,1,3.88.8V76.7A8.507,8.507,0,0,0,20,75.67c-.83,0-1.54.29-1.54,1.18,0,2.28,6.25,1.92,6.25,6.65,0,2.72-2.45,4.42-5.6,4.42a8.525,8.525,0,0,1-4.82-1.38l1.29-2.57Z"
                fill="#fff" />
            <path id="Path_2441" data-name="Path 2441"
                d="M25.89,82.38a5.311,5.311,0,0,1,5.56-5.51,5.52,5.52,0,1,1,0,11.04A5.327,5.327,0,0,1,25.89,82.38Zm7.68,0c0-1.63-.62-2.86-2.12-2.86s-2.12,1.23-2.12,2.86.62,2.88,2.12,2.88S33.57,84.01,33.57,82.38Z"
                fill="#fff" />
            <path id="Path_2442" data-name="Path 2442"
                d="M38.62,71.9h3.37V84.15c0,.65.29.83.76.83a2.271,2.271,0,0,0,.67-.11l.65,2.59a6.452,6.452,0,0,1-2.32.42c-2.05,0-3.12-.96-3.12-2.88V71.9Z"
                fill="#fff" />
            <path id="Path_2443" data-name="Path 2443"
                d="M44.65,82.54c0-3.17,1.72-5.67,5.04-5.67s5.02,2.19,5.02,5.78v.78H48.02c.07,1.29,1.18,1.9,2.61,1.9a5.228,5.228,0,0,0,2.72-.71l.98,2.28a7.441,7.441,0,0,1-3.97,1.03c-4.2,0-5.71-2.68-5.71-5.38Zm6.69-1.34a1.677,1.677,0,0,0-1.72-1.83,1.659,1.659,0,0,0-1.65,1.83h3.37Z"
                fill="#fff" />
            <path id="Path_2444" data-name="Path 2444"
                d="M56.34,77.14h2.88l.33,1.07a5.755,5.755,0,0,1,3.55-1.34c1.7,0,3.55.67,3.55,3.93v6.9H63.28V81.81c0-1.09-.18-2.03-1.43-2.03a3.657,3.657,0,0,0-2.14.78V87.7H56.34V77.14Z"
                fill="#fff" />
            <path id="Path_2445" data-name="Path 2445"
                d="M70.02,84.82V79.73H68.03V77.14h1.99v-2.5l3.37-.96v3.46H76.6l-.76,2.59H73.39v4.2c0,1,.31,1.34.98,1.34a3.061,3.061,0,0,0,1.54-.45l.94,2.28a6.789,6.789,0,0,1-3.37.83c-2.12,0-3.46-1.18-3.46-3.1Z"
                fill="#fff" />
            <path id="Path_2446" data-name="Path 2446"
                d="M14.85,105.35a7.892,7.892,0,0,1-.33-2.37V93.54h1.65v9.28a6.34,6.34,0,0,0,.29,2.05,3.416,3.416,0,0,0,3.53,2.19,3.413,3.413,0,0,0,3.53-2.19,6,6,0,0,0,.29-2.12V93.53h1.65v9.44a6.63,6.63,0,0,1-.38,2.41c-.71,2.01-2.48,3.08-5.09,3.08s-4.42-1.09-5.13-3.12Z"
                fill="#fff" />
            <path id="Path_2447" data-name="Path 2447"
                d="M27.8,97.69h1.38l.2,1.36a5.75,5.75,0,0,1,3.7-1.63c1.65,0,3.12,1.05,3.12,3.7v7.12H34.57v-6.56c0-1.58-.4-2.79-1.9-2.79a5.159,5.159,0,0,0-3.24,1.58v7.77H27.78V97.68Z"
                fill="#fff" />
            <path id="Path_2448" data-name="Path 2448"
                d="M38.14,94.21a1.105,1.105,0,1,1,2.21,0,1.105,1.105,0,0,1-2.21,0Zm.29,3.48h1.63v10.56H38.43Z"
                fill="#fff" />
            <path id="Path_2449" data-name="Path 2449"
                d="M41.83,97.69h1.72l3.08,8.44h.04l2.99-8.44h1.7l-4.04,10.62H45.91L41.83,97.69Z" fill="#fff" />
            <path id="Path_2450" data-name="Path 2450"
                d="M52.07,102.85c0-3.21,1.76-5.42,4.33-5.42s4.2,2.1,4.2,5.42v.4H53.75c.04,2.16,1.27,3.84,3.53,3.84a5.366,5.366,0,0,0,2.59-.71l.54,1.16a6.392,6.392,0,0,1-3.37.94c-3.32,0-4.95-2.54-4.95-5.62Zm6.81-.87c-.02-1.61-.8-3.21-2.48-3.21s-2.61,1.45-2.63,3.21Z"
                fill="#fff" />
            <path id="Path_2451" data-name="Path 2451"
                d="M62.76,97.69h1.38l.2,1.34a3.872,3.872,0,0,1,2.97-1.61,2.429,2.429,0,0,1,1.14.27l-.58,1.5a1.972,1.972,0,0,0-.91-.22c-.76,0-1.52.47-2.54,1.52v7.77H62.77V97.7Z"
                fill="#fff" />
            <path id="Path_2452" data-name="Path 2452"
                d="M69.78,106.31a4.771,4.771,0,0,0,2.63.78c1.18,0,2.25-.49,2.25-1.7,0-2.3-4.93-1.56-4.93-5.07,0-1.61,1.23-2.9,3.57-2.9a7.311,7.311,0,0,1,2.61.49v1.45a6.138,6.138,0,0,0-2.54-.58c-1.02,0-2.03.33-2.03,1.47,0,2.34,4.98,1.54,4.98,5.11,0,2.1-1.74,3.1-3.91,3.1a6.074,6.074,0,0,1-3.17-.89l.54-1.27Z"
                fill="#fff" />
            <path id="Path_2453" data-name="Path 2453"
                d="M78.03,94.21a1.105,1.105,0,1,1,2.21,0,1.105,1.105,0,0,1-2.21,0Zm.3,3.48h1.63v10.56H78.33Z"
                fill="#fff" />
            <path id="Path_2454" data-name="Path 2454"
                d="M83.97,106.02V99.04H82.18V97.7h1.79V95.31l1.63-.54v2.92h3.15l-.49,1.34H85.6v6.72c0,.91.38,1.32,1.09,1.32a3.069,3.069,0,0,0,1.72-.58l.58,1.16a4.646,4.646,0,0,1-2.66.83,2.187,2.187,0,0,1-2.37-2.45Z"
                fill="#fff" />
            <path id="Path_2455" data-name="Path 2455"
                d="M89.59,111.84a3.532,3.532,0,0,0,1.45.29c1.38,0,2.52-1,3.35-3.82L89.75,97.69h1.76l3.62,8.55h.04L98,97.69h1.7l-3.95,11.38c-1.36,3.88-2.97,4.46-4.69,4.46a4.45,4.45,0,0,1-1.87-.36l.4-1.34Z"
                fill="#fff" />
        </g>
    </g>
</svg>