<svg width="222" height="62" version="1.1" viewBox="0 0 222 62" xmlns="http://www.w3.org/2000/svg">
  <g stroke="none" stroke-width="0">
    <path d="m3.2 9.4h-0.4c-0.2-0.1-0.3-0.1-0.4-0.2-0.1 0.2-0.2 0.4-0.2 0.6 0.1 0.1 0.3 0.2 0.5 0.3 0.1-0.3 0.3-0.5 0.5-0.7zm28.1-2.2c-0.1-0.3-0.1-0.6-0.1-0.8-0.2-0.1-0.4-0.1-0.6-0.1-0.1 0.2-0.1 0.4-0.1 0.6 0.3 0 0.5 0.1 0.8 0.3zm0.9 0.6v-0.5s0-0.1 0.1-0.1c0-0.1 0.1-0.1 0.1-0.1 0.1 0 0.2 0 0.2 0.1 0.1 0 0.1 0.1 0.1 0.1v0.5h0.1c0.2-0.3 0.5-0.7 0.5-1.1 0-0.6-0.3-1-0.9-1-0.5 0-0.8 0.4-0.8 1 0 0.4 0.3 0.8 0.5 1.1zm2.2-0.9c0-0.2 0-0.4-0.1-0.6-0.2 0-0.4 0-0.6 0.1 0 0.2 0 0.5-0.1 0.8 0.3-0.2 0.5-0.3 0.8-0.3zm-4.2 2.1c0.3 0.1 0.8 0 1.2-0.1v-0.2l-0.4-0.1c-0.1 0-0.1-0.1-0.2-0.1v-0.2c0-0.1 0-0.1 0.1-0.1v-0.1h0.2l0.5 0.2v-0.1c-0.2-0.3-0.5-0.7-0.9-0.8-0.1-0.1-0.3-0.1-0.4-0.1-0.2 0-0.3 0-0.4 0.1-0.2 0.1-0.3 0.3-0.4 0.5s-0.1 0.4 0 0.6c0.2 0.3 0.4 0.4 0.7 0.5zm2.2 0.5c0.4 0 0.7-0.3 0.7-0.7s-0.3-0.7-0.7-0.7c-0.3 0-0.7 0.3-0.7 0.7s0.4 0.7 0.7 0.7zm2.6-2.1c-0.3-0.1-0.6-0.1-0.8 0-0.4 0.1-0.7 0.5-0.9 0.8v0.1l0.4-0.2h0.2l0.2 0.2v0.2c-0.1 0-0.1 0-0.1 0.1h-0.1l-0.4 0.1v0.2c0.3 0.1 0.8 0.2 1.2 0.1 0.3-0.1 0.5-0.2 0.7-0.5v-0.6c-0.1-0.2-0.2-0.4-0.4-0.5zm2.7-3.5-0.6-0.3c-0.3-0.1-8-3.6-18.2-3.6-10.1 0-17.9 3.5-18.3 3.6l-0.6 0.3v16.1c0.1 3.6 0.8 7.2 1.9 10.6 2.9 8.6 8.6 14.5 16.7 17.2h0.7c8-2.7 13.8-8.6 16.6-17.2 1.1-3.4 1.7-7 1.8-10.5v-0.1zm-27.5 0.7v-0.1l0.1-0.1h0.6v-1h0.2l0.4 0.1v-1s0-0.1 0.1-0.1v-0.1h0.2c0.7 0.5 1.4 0.8 2.1 1 0.5 0.1 0.9 0.2 1.4 0.3 1.2 0.2 2.6 0.4 3.5 1.3 1-0.9 2.4-1.1 3.6-1.3 0.5-0.1 0.9-0.2 1.3-0.3 0.8-0.2 1.5-0.5 2.2-1h0.2v0.1l0.1 0.1v1l0.4-0.1h0.1l0.1 0.1v0.9h0.6l0.1 0.1v7.4h-0.1v0.1h-0.1c-0.5 0.3-1 0.5-1.6 0.5-5.1 0-4.3 0.4-5.8 1 0 0.4-0.4 0.6-1.1 0.6-0.6 0-1-0.2-1-0.6-1.5-0.6-1.7-1.1-5.8-1.1-1.3 0-1.6-0.4-1.6-0.4h-0.1v-0.1h-0.1v-0.1zm8.5 13.7c0.3 0.2 0.5 0.4 0.8 0.5 0.5 0.3 0.3 1.1-0.2 1.9-0.2 0.2-0.6 0.9-0.6 2.4 0.1 0.6 0.2 1.2 0.5 1.8-0.5-0.1-1 0-1.5 0h-0.2c-0.1-0.2-0.3-0.4-0.4-0.5-0.8-0.9-2.4-1.1-3.1-1.3-0.3 0-1.6-0.4-1.8-0.4-0.1-0.1-0.2-0.1-0.3-0.2-0.2 0-0.4-0.1-0.6-0.2-0.2-0.2-0.4-0.4-0.5-0.6-0.2-0.3-0.4-0.6-0.5-0.8 0-0.1-0.1-0.1-0.1-0.2h-0.2c-0.1 0-0.1 0.1-0.2 0.1 0 0.1-0.1 0.1-0.1 0.2 0 0.3 0.1 0.6 0.2 0.8 0.1 0.1 0.1 0.2 0.2 0.2-0.2 0-0.4 0-0.6-0.1-0.1-0.1-0.3-0.1-0.5-0.2-0.3 0-1.3-0.3-1.6-2.1-0.1-0.8 0-1.5 0.2-2.2 3.7-1 7.5-1.5 11.3-1.5h0.5v0.3c0.2 0.1 0.8 0.6 1 1 0.4 1 0.1 1.4 0 1.6l-0.1-0.1c-0.4-0.2-1.3-1-1.4-1-0.2-0.1-0.3-0.1-0.4 0-0.1 0.2 0 0.5 0.2 0.6zm1.2 3.6c0.1-1 1.5-2.6 1.4-3.9-0.1-0.8-0.5-1.5-1-2l-0.2-0.1c1.9 0.1 3.8 0.3 5.7 0.6 0.3 0.3 0.6 0.6 0.9 1 0 0-0.9-0.2-1.1-0.2-0.6 0-1.5 0.1-1.4 0.5 0.1 0.2 0.6 0.2 0.7 0.2 0.3-0.1 0.6-0.1 1-0.1 0.4 0.1 0.8 0.3 1.1 0.7 2.2 3.4-2.3 5.5-4.4 6.3-1.5 0.5-2.9-0.6-2.7-3zm-18-11.9-0.1-0.1v-0.1c0.1-0.2 0.2-0.5 0.3-0.7-0.1-0.1-0.2-0.3-0.2-0.4-0.2-0.3-0.2-0.6-0.1-0.9s0.3-0.6 0.6-0.8c0.1 0 0.3-0.1 0.5-0.1-0.1-0.3 0-0.6 0.1-0.8l0.1-0.1c0.3-0.1 0.6 0 0.9 0.1 0.1-0.3 0.3-0.4 0.5-0.6 0.2-0.1 0.4-0.2 0.6-0.2 0.3 0 0.5 0.1 0.7 0.2 0.2 0.2 0.4 0.3 0.5 0.6 0.2-0.1 0.5-0.2 0.8-0.1h0.1c0.2 0.3 0.2 0.6 0.2 0.9 0.2 0 0.3 0.1 0.5 0.1 0.2 0.2 0.5 0.4 0.6 0.8 0.1 0.3 0 0.6-0.1 0.9-0.1 0.1-0.2 0.3-0.3 0.3 0.2 0.3 0.3 0.5 0.4 0.8v0.1l-0.1 0.1c-0.2 0.2-0.4 0.3-0.7 0.4 0 0.2 0 0.5-0.1 0.7 0 0.2-0.2 0.4-0.4 0.6-0.2 0.1-0.4 0.2-0.7 0.2-0.2 0-0.4 0-0.7-0.2-0.1 0.3-0.3 0.5-0.6 0.6h-0.1c-0.3-0.1-0.5-0.3-0.7-0.6-0.2 0.2-0.4 0.2-0.6 0.2-0.3 0-0.5-0.1-0.7-0.2-0.2-0.2-0.4-0.3-0.5-0.6 0-0.2-0.1-0.5 0-0.7-0.3-0.1-0.5-0.2-0.7-0.4zm4.8 10.3c-0.9-0.4-1.6-1.2-1.9-2.1 0.5-0.2 1.2-0.4 1.9-0.6-0.1 0.2-0.1 0.4-0.1 0.6-0.3 1.5 0 2.1 0.1 2.1zm3.8 5.5c0.1 0 0.1 0.1 0.2 0.2 0.3 0.3 0.3 1.1 1.3 2.2 0.3 0.3 0.7 0.5 1 0.7 1.5 0.7 2.2 0.4 2.5 0.3-0.1 0.1-0.1 0.2-0.1 0.2-3 5.2-3.6 9.4-3.2 12.7-1.2-0.9-2.2-1.9-3.2-3-2.2-2.5-3.9-5.6-5.1-9.1-1.1-3.5-1.7-7.2-1.8-10.9 0.4-0.2 1.1-0.4 1.9-0.7 0 0.2 0.1 0.3 0.1 0.5 0.3 0.5 0.5 0.9 0.9 1.3 0.8 0.7 1.6 1.4 2.5 2 1.7 0.9 4.2 1.5 4.4 1.5 0.2 0.1 1.4 0.5 1.7 0.5 0.1 0.1 0.2 0.1 0.3 0.1 0.4 0.1 2.5 0.5 2.6 1.5 0 0.4 0 0.8-0.2 1.1 0 0.2-0.1 0.4-0.2 0.5 0 0-0.2-0.8-1.6-1.5-1.5-0.8-2.7-0.3-3.2-0.4-0.3-0.1-0.5 0-0.8 0.1-0.1 0.1-0.1 0.1 0 0.2zm23.3 4.2c-1.1 3.5-2.8 6.6-5 9.1l-0.2 0.2c-1-0.2-2.1-0.3-3.1-0.3-3.8-0.2-5.7-1.7-5-4 0-0.1 0.1-0.3-0.1-0.4-0.1-0.2-0.3-0.1-0.4 0-3.1 1.7-4.2 7.3-4.2 7.3s-0.1-4.4 3-7.3c3-2.9 5.6-2.3 5.7-2.3 1.3 0.3 1.3-0.3 1.4-0.4 0.1-0.2 0.2-0.4 0.2-0.7v-0.1l0.4-0.4c0.1-0.2 0.9-1.7 0.3-2.3-0.1 0-0.2-0.1-0.4-0.2h-0.3c-0.1 0-0.2-0.1-0.3-0.1-0.3-0.2-0.6-0.3-0.9-0.4s-0.6-0.2-0.9-0.3c-0.1-0.1-0.3-0.2-0.3-0.4-0.3-0.6-0.9-1-1-1.1 0.9-0.3 1.9-0.7 2.7-1.2 2.1-1.4 2.5-2.3 2.5-2.3 0.2-0.3 0.4-0.5 0.7-0.6 0.3-0.2 0.5-0.4 0.8-0.6 0 0 0.3-0.3 0.1-0.5-0.1-0.3-0.5-0.1-0.7 0-0.1 0-0.2 0.1-0.4 0.1 0.1-0.1 0.1-0.3 0-0.4-0.1-1.8-0.6-2.3-0.9-3-0.2-0.2-0.4-0.5-0.6-0.8 3 0.6 5.9 1.4 8.7 2.5 0 3.7-0.6 7.4-1.8 10.9zm2-20.2v0.1l-0.1 0.1c-0.2 0.2-0.4 0.3-0.7 0.4 0 0.2 0 0.5-0.1 0.7 0 0.2-0.2 0.4-0.4 0.6-0.2 0.1-0.4 0.2-0.7 0.2-0.2 0-0.4 0-0.7-0.2-0.1 0.3-0.3 0.5-0.6 0.6h-0.1c-0.3-0.1-0.5-0.3-0.7-0.6-0.2 0.2-0.4 0.2-0.6 0.2-0.3 0-0.5-0.1-0.7-0.2-0.2-0.2-0.4-0.4-0.5-0.6 0-0.2-0.1-0.5 0-0.7-0.3-0.1-0.5-0.2-0.7-0.4l-0.1-0.1v-0.1c0-0.2 0.2-0.5 0.3-0.7-0.1-0.1-0.2-0.3-0.2-0.4-0.1-0.2-0.2-0.4-0.2-0.6s0.1-0.4 0.2-0.6c0.1-0.1 0.2-0.3 0.4-0.4 0.1-0.1 0.3-0.2 0.5-0.2 0-0.3 0.1-0.6 0.2-0.8l0.1-0.1c0.3-0.1 0.6 0 0.9 0.1 0.1-0.2 0.3-0.4 0.5-0.6 0.2-0.1 0.4-0.2 0.6-0.2 0.3 0 0.5 0.1 0.7 0.2 0.2 0.2 0.4 0.3 0.5 0.6 0.2-0.1 0.5-0.2 0.8-0.1h0.1c0.2 0.3 0.2 0.6 0.2 0.9 0.2 0 0.3 0.1 0.5 0.1 0.2 0.2 0.5 0.4 0.6 0.8 0.1 0.3 0 0.6-0.1 0.9-0.1 0.1-0.2 0.3-0.3 0.3 0.2 0.3 0.3 0.5 0.4 0.8zm-3.7 0-0.3 0.3c0 0.1-0.1 0.1-0.2 0.1h-0.2s-0.1-0.1-0.1-0.2c0 0 0-0.1 0.1-0.2l0.2-0.3v-0.1c-0.7 0.3-1 0.5-1.1 0.7-0.3 0.5-0.3 0.9 0.1 1.3 0.1 0 0.2 0.1 0.3 0.1h0.4c0.2-0.1 0.4-0.2 0.6-0.5s0.2-0.8 0.2-1.2zm-1.6-0.4h-0.5c-0.1-0.1-0.2-0.1-0.3-0.2-0.1 0.2-0.2 0.4-0.2 0.6 0.1 0.1 0.3 0.2 0.5 0.3 0.1-0.3 0.3-0.5 0.5-0.7zm2.8 0-0.1 0.1 0.3 0.3c0 0.1 0.1 0.2 0 0.2 0 0.1 0 0.2-0.1 0.2h-0.1c-0.1 0-0.2 0-0.2-0.1l-0.3-0.3c-0.1 0.8 0.1 1.1 0.2 1.2 0.4 0.6 0.8 0.7 1.3 0.4 0.1-0.1 0.1-0.2 0.2-0.3s0.1-0.2 0.1-0.3c0-0.3-0.1-0.5-0.2-0.7s-0.4-0.4-1.1-0.7zm1.5 0h-0.4c0.2 0.2 0.4 0.4 0.5 0.7 0.2-0.1 0.4-0.2 0.5-0.3 0-0.2-0.1-0.4-0.2-0.6-0.1 0.1-0.3 0.1-0.4 0.2zm-2.4 1.4c0 0.2-0.1 0.3-0.1 0.4l-0.3 0.3c0.1 0.2 0.3 0.3 0.4 0.4 0.2-0.1 0.4-0.2 0.5-0.4h-0.1c-0.2-0.2-0.3-0.4-0.4-0.7zm-24.9-1.4h-0.4c0.2 0.2 0.4 0.4 0.5 0.7 0.2-0.1 0.4-0.2 0.5-0.3 0-0.2-0.1-0.4-0.2-0.6-0.1 0.1-0.3 0.1-0.4 0.2zm-1.5 0-0.1 0.1 0.3 0.3c0 0.1 0.1 0.2 0.1 0.2l-0.1 0.1c0 0.1 0 0.1-0.1 0.1 0 0-0.1 0.1-0.1 0h-0.2l-0.3-0.4c-0.1 0.8 0.1 1.1 0.2 1.2 0.4 0.6 0.8 0.7 1.3 0.4 0.4-0.4 0.4-0.8 0.1-1.3-0.1-0.2-0.4-0.4-1.1-0.7zm-3.1-0.4c0.3 0.1 0.8 0 1.2-0.1v-0.2l-0.4-0.1c-0.1 0-0.1-0.1-0.2-0.1v-0.2c0-0.1 0-0.1 0.1-0.1v-0.1h0.2l0.5 0.2v-0.1c-0.2-0.3-0.5-0.7-0.9-0.8-0.1-0.1-0.3-0.1-0.4-0.1-0.2 0-0.3 0.1-0.4 0.1-0.2 0.1-0.3 0.2-0.3 0.3-0.1 0.1-0.2 0.3-0.2 0.4 0 0.2 0.1 0.3 0.1 0.4 0.2 0.3 0.4 0.4 0.7 0.5zm2.2 1.8c0 0.2-0.1 0.3-0.1 0.4l-0.3 0.3c0.1 0.2 0.3 0.3 0.4 0.4 0.2-0.1 0.4-0.2 0.5-0.4h-0.1c-0.2-0.2-0.3-0.4-0.4-0.7zm-0.3-1-0.3 0.3c0 0.1-0.1 0.1-0.2 0.1h-0.2s0-0.1-0.1-0.2c0 0 0-0.1 0.1-0.2l0.2-0.3c-0.7 0.2-1 0.5-1.1 0.6-0.4 0.5-0.3 0.9 0.1 1.3 0.5 0.3 0.9 0.2 1.3-0.3 0.2-0.4 0.2-0.9 0.2-1.3zm18.2 2c1.1 0.1 2.1 0.1 2.8-0.3v-8.6c-0.6 0.3-1.3 0.6-1.9 0.8-0.5 0.1-0.9 0.2-1.4 0.2-1.2 0.3-2.6 0.5-3.5 1.4v7.7c1.2-0.8 2.6-1.2 4-1.2zm-8.7-0.1h0.6c1.3 0 2.7 0.5 3.8 1.3v-7.7c-0.9-0.9-2.3-1.1-3.5-1.4-0.4 0-0.9-0.1-1.4-0.2-0.6-0.2-1.3-0.5-1.9-0.8v8.6c0.6 0.2 1.5 0.2 2.4 0.2zm-9.2-2.2c0.4 0 0.7-0.3 0.7-0.7s-0.3-0.7-0.7-0.7c-0.3 0-0.7 0.3-0.7 0.7s0.4 0.7 0.7 0.7zm-1.1-2.3c-0.1-0.3-0.1-0.6-0.1-0.8-0.2-0.1-0.4-0.1-0.6-0.1-0.1 0.2-0.1 0.4-0.1 0.6 0.3 0 0.5 0.1 0.8 0.3zm0.9 0.6v-0.5s0-0.1 0.1-0.1c0-0.1 0.1-0.1 0.1-0.1 0.1 0 0.2 0 0.2 0.1 0.1 0 0.1 0.1 0.1 0.1v0.5h0.1c0.2-0.3 0.5-0.7 0.5-1.1 0-0.6-0.3-1-0.9-1-0.5 0-0.8 0.4-0.8 1 0 0.4 0.3 0.8 0.5 1.1zm1.5 0.3h0.2c0.1 0 0.1 0.1 0.1 0.1s0.1 0 0.1 0.1v0.2c-0.1 0-0.1 0-0.1 0.1h-0.1l-0.4 0.1v0.2c0.3 0.1 0.8 0.2 1.2 0.1 0.3-0.1 0.5-0.2 0.7-0.5 0-0.2 0.1-0.4 0-0.6s-0.2-0.4-0.4-0.5c-0.3-0.1-0.6-0.1-0.8 0-0.4 0.1-0.7 0.5-0.9 0.8v0.1zm0.7-1.2c0-0.2 0-0.4-0.1-0.6-0.2 0-0.4 0-0.6 0.1 0 0.2 0 0.5-0.1 0.8 0.3-0.2 0.5-0.3 0.8-0.3zm151.9-1.5c0.7 0 1.4 0.1 2 0.4l0.5-1.5c-0.8-0.5-1.8-0.7-2.8-0.7-1.8 0-3.2 1.1-3.2 3.6v0.5h-0.1l-1.7 0.3v1.3h1.8v7.7h2.1v-7.7h2.7v-1.6h-2.7v-0.6c0-1.1 0.5-1.7 1.4-1.7zm-10.2 3.9c1.6 0 2.6 1.2 2.6 3s-1 3.1-2.6 3.1c-1.7 0-2.7-1.3-2.7-3.1s1-3 2.7-3zm0-1.9c-2.9 0-4.8 2.2-4.8 4.9s1.9 4.9 4.8 4.9c2.8 0 4.7-2.2 4.7-4.9s-1.8-4.9-4.7-4.9zm-9.1 0.3h-2.2l-2.7 6.7-2.8-6.7h-2.2l4.1 9.2-1.5 3.8h1.9zm-10.6 7.5c-0.4 0.1-0.8 0.2-1.3 0.2-0.7 0-1.3-0.3-1.3-1.2v-4.9h2.7v-1.6h-2.7v-2.6h-2.1v2.6h-0.1l-1.7 0.3v1.3h1.8v5.1c0 2 1.4 2.8 2.9 2.8 0.8 0 1.6-0.2 2.3-0.6zm-7.2-7.5h-2.1v9.3h2.1zm-1.1-3.8c-0.2 0-0.4 0-0.6 0.2-0.2 0.1-0.4 0.3-0.5 0.5-0.1 0.3-0.1 0.5 0 0.7 0 0.3 0.1 0.5 0.3 0.7 0.2 0.1 0.4 0.3 0.6 0.3 0.3 0 0.5 0 0.7-0.1 0.3-0.1 0.5-0.2 0.6-0.4s0.2-0.5 0.2-0.7 0-0.3-0.1-0.5c-0.1-0.1-0.2-0.3-0.3-0.4s-0.2-0.2-0.4-0.3zm-5.9 3.5c-1.8 0-3.7 0.8-3.7 2.9 0 1.6 1.1 2.2 3.5 2.8 1.2 0.3 2 0.4 2 1.2s-0.8 1.2-2 1.2c-1.1 0-2.3-0.4-2.8-1.1l-0.9 1.4c0.8 0.9 2.3 1.4 3.8 1.4 1.9 0 4-0.8 4-2.9s-2-2.6-3.5-3c-1.6-0.4-2-0.6-2-1.1 0-0.8 0.7-1.1 1.7-1.1s2 0.3 2.6 0.9l0.9-1.4c-0.9-0.9-2.3-1.2-3.6-1.2zm-4.2 0c-1.4 0-2.7 0.6-3.7 1.5v-1.2h-2.1v9.3h2.1v-6.3c0.9-0.8 2.1-1.2 3.3-1.3h0.3l0.3-2zm-11.2 1.8c1.4 0 2.1 0.9 2.3 2.2h-4.7c0.3-1.3 1.1-2.2 2.4-2.2zm0-1.8c-2.8 0-4.6 2.2-4.6 4.9s1.8 4.9 4.6 4.9c1.3 0 2.6-0.4 3.6-1.2l-0.5-1.4c-0.9 0.5-1.9 0.8-3 0.8-1.4 0-2.3-0.9-2.5-2.4v-0.2h6.8v-0.4c0-2.9-1.5-5-4.4-5zm-4.3 0.3h-2.3l-2.6 7-2.6-7h-2.2l3.7 9.3h2.2zm-10.6 0h-2.1v9.3h2.1zm-1-3.8c-0.3 0-0.5 0-0.7 0.2-0.2 0.1-0.4 0.3-0.5 0.5 0 0.3-0.1 0.5 0 0.7 0 0.3 0.1 0.5 0.3 0.7l0.6 0.3c0.3 0 0.5 0 0.8-0.1 0.2-0.1 0.4-0.2 0.5-0.4s0.2-0.5 0.2-0.7c0-0.3-0.1-0.7-0.4-0.9-0.2-0.2-0.5-0.3-0.8-0.3zm-5.7 3.5c-1.3 0-2.5 0.5-3.4 1.4v-1.1h-2.1v9.3h2.1v-6.6c0.9-0.8 2-1.1 2.8-1.1 0.9 0 1.7 0.5 1.7 1.7v6h2v-6.1c0-2.4-1.4-3.5-3.1-3.5zm-6.9-3.5h-2.3v8.5c0 1.7-1.2 2.9-3.1 2.9-2 0-3.2-1.2-3.2-2.9v-8.5h-2.3v8.5c0 2.8 2.3 4.8 5.5 4.8 3.1 0 5.4-2 5.4-4.8zm145.9 22.8c-1.7 0-3.7 0.7-5.3 2.2v-1.8h-4.2v14.9h4.2v-10.2c1.2-1 2.7-1.6 3.8-1.6 1.4 0 2.4 0.8 2.4 2.6v9.2h4.2v-9.7c0-3.9-2.3-5.6-5.1-5.6zm-18.5 3.6c2.4 0 3.8 1.7 3.8 4.3 0 2.5-1.5 4.3-3.8 4.3s-3.7-1.8-3.7-4.3c0-2.6 1.4-4.3 3.7-4.3zm0-3.6c-4.8 0-7.9 3.5-7.9 7.9s3.1 7.9 7.9 7.9 8-3.6 8-7.9c0-4.4-3.1-7.9-8-7.9zm-8.6 11.9c-0.7 0.3-1.4 0.4-2.1 0.4-1.1 0-1.9-0.5-1.9-1.9v-6.8h4v-3.2h-4v-4.1h-4.2v4.1h-0.1l-2.7 0.6v2.6h2.8v7.3c0 3.5 2.3 4.8 4.9 4.8 1.4 0 2.8-0.3 4.1-1zm-18.4 0.3c-1.2 0-2.7-0.6-3.9-1.9v-5c1.2-1.2 2.7-1.8 3.9-1.8 2 0 3.2 1.8 3.2 4.4 0 2.8-1.4 4.3-3.2 4.3zm0.9-12.2c-1.7 0-3.4 0.7-4.8 2v-1.6h-4.2v20.9h4.2v-7.5c1.4 1.3 3.1 2 4.7 1.9 3.7 0 6.6-3.1 6.6-7.8 0-4.4-2.6-7.9-6.5-7.9zm-15.6 0c-1.9 0-4 0.8-5.7 2.4-0.9-1.7-2.5-2.4-4.3-2.4-1.7 0-3.6 0.7-5.1 2.2v-1.8h-4.1v14.9h4.1v-10.3c1.1-0.9 2.4-1.5 3.5-1.5 1.3 0 2.4 0.8 2.4 2.6v9.2h4.1v-10.4c1.1-0.9 2.4-1.4 3.5-1.4 1.3 0 2.4 0.8 2.4 2.6v9.2h4.1v-9.7c0-3.9-2.2-5.6-4.9-5.6zm-29.3 12.2c-1.9 0-3.1-1.7-3.1-4.3 0-2.7 1.2-4.4 3.1-4.4 1.2 0 2.8 0.6 3.9 1.8v5.1c-1.2 1.2-2.7 1.8-3.9 1.8zm8.1-11.8h-4.2v1.6c-1.5-1.4-3.2-2-4.8-2-3.8 0-6.4 3.5-6.4 7.9s2.6 7.9 6.4 7.9c1.6 0 3.3-0.7 4.8-2.1v1.6h4.2zm-22-0.4c-1.9 0-3.8 0.7-5.4 2.2v-7.8h-4.2v20.9h4.2v-10.2c1.2-1 2.6-1.6 3.8-1.6 1.4 0 2.5 0.8 2.5 2.6v9.2h4.2v-9.7c0-3.9-2.4-5.6-5.1-5.6zm-11.9 11.9c-0.7 0.3-1.4 0.4-2 0.4-1.2 0-2-0.5-2-1.9v-6.8h4v-3.2h-4v-4.1h-4.2v4.1l-2.8 0.6v2.6h2.8v7.3c0 3.5 2.3 4.8 4.9 4.8 1.4 0 2.9-0.3 4.1-1zm-12.4-11.5h-4.2v10.3c-1.2 0.9-2.6 1.5-3.8 1.5-1.4 0-2.2-0.9-2.2-2.6v-9.2h-4.2v9.7c0 3.9 2.3 5.6 5 5.6 1.7 0 3.6-0.7 5.2-2.2v1.8h4.2zm-23.5 3.2c2.3 0 3.7 1.7 3.7 4.3 0 2.5-1.4 4.3-3.7 4.3s-3.7-1.8-3.7-4.3c0-2.6 1.4-4.3 3.7-4.3zm0-3.6c-4.8 0-8 3.5-8 7.9s3.2 7.9 8 7.9 8-3.6 8-7.9c0-4.4-3.2-7.9-8-7.9zm-17-6c-4.2 0-8 1.8-8.1 6.5 0 3.7 2.4 4.8 7.4 6.2 2.9 0.8 4.2 1.1 4.2 2.7 0 1.4-1.4 2.5-3.7 2.5-2.1 0-4.6-0.9-5.9-2.5l-2.5 2.8c1.8 2.2 5.2 3.5 8.4 3.5 3.8 0 8.3-1.8 8.2-6.5 0-4.5-4.1-5.5-7.3-6.4-3.6-0.9-4.2-1.3-4.2-2.5 0.1-1.8 1.5-2.4 3.5-2.4 1.9 0 3.7 0.6 5.2 1.7l2.4-2.9c-1.7-1.7-4.4-2.7-7.6-2.7"></path>
  </g>
</svg>