<svg xmlns="http://www.w3.org/2000/svg" width="257.555" height="49.768" viewBox="0 0 257.555 49.768">
  <g id="Layer_1" transform="translate(0.024)">
    <g id="Group_5" data-name="Group 5" transform="translate(-0.024 0)">
      <g id="Group_3" data-name="Group 3" transform="translate(0)">
        <path id="Path_3218" data-name="Path 3218" d="M18.777,9.812l4.548,3.863C24.6,10.4,28.9,3.426,43.012.592A27.5,27.5,0,0,0,39.8.093h-.156c-.312-.031-.623-.031-.9-.062h-.062A6,6,0,0,1,37.934,0h-1a2.358,2.358,0,0,0-.467.031,7.638,7.638,0,0,0-.841.062c-.125,0-.28.031-.4.031l-.841.093c-.093,0-.218.031-.311.031-.374.062-.716.125-1.059.187a.235.235,0,0,0-.125.031c-.374.062-.716.156-1.09.249-.062.031-.156.031-.218.062-.312.093-.623.156-.934.249-.125.031-.249.093-.4.125-.249.093-.5.156-.748.249-.218.062-.4.156-.623.218-.187.062-.343.125-.53.187-.28.125-.561.218-.841.343-.093.031-.187.093-.28.125-.343.156-.685.311-1.028.5a.031.031,0,0,0-.031.031c.062-.031.093-.031.156-.062-.28.125-.53.28-.81.436a6.178,6.178,0,0,1,.623-.343H26.1c-.561.311-1.121.623-1.651.966.312-.187.654-.4.966-.592-.343.187-.685.4-1.028.623a27.9,27.9,0,0,0-3.8,2.928l-.467.467-.28.28c-.156.156-.312.343-.467.5-.125.156-.28.311-.4.467a3.31,3.31,0,0,0-.28.343A.76.76,0,0,0,18.777,9.812Z" transform="translate(-12.758 0)" fill="#7d160c"/>
        <path id="Path_3219" data-name="Path 3219" d="M21.477,62.6l1.589-6.978a.706.706,0,0,0-.561-.872,16.617,16.617,0,0,1-12.46-19.811,8.864,8.864,0,0,1,.5-1.713L6,29.366a.723.723,0,0,1-.125-.966A24.816,24.816,0,0,0,1.2,52.136C9.983,61.98,17.614,62.945,21.477,62.6Z" transform="translate(0.024 -19.553)" fill="#003989"/>
        <path id="Path_3220" data-name="Path 3220" d="M85.151,59.7l-6.978,2.212a.761.761,0,0,0-.5.934A16.625,16.625,0,0,1,66.9,83.623a9.877,9.877,0,0,1-2.679.561L62.972,89.7a.744.744,0,0,1-.872.561A24.986,24.986,0,0,0,86.708,82C90.228,69.917,87.456,63,85.151,59.7Z" transform="translate(-42.748 -41.103)" fill="#0091d2"/>
        <path id="Path_3221" data-name="Path 3221" d="M22.9,120.611l1.277-5.545c-3.863.343-11.494-.623-20.279-10.466a25.5,25.5,0,0,0,1.589,3.831h0c-.031-.031-.031-.093-.062-.125a5.041,5.041,0,0,0,.311.561c-.062-.093-.125-.218-.187-.312h0a16.5,16.5,0,0,0,1.028,1.776c-.218-.343-.436-.716-.654-1.059a25.075,25.075,0,0,0,7.694,8.286h0c.249.156.5.311.748.5.187.125.374.218.561.343-.125-.062-.249-.156-.374-.218a.031.031,0,0,1,.031.031l.28.187.187.093,1.028.561a26.513,26.513,0,0,0,4.205,1.713,1.519,1.519,0,0,1,.343.125c.062.031.125.031.187.062l1.121.28a.114.114,0,0,1,.093.031A.847.847,0,0,0,22.9,120.611Z" transform="translate(-2.678 -72.017)" fill="#002c39"/>
        <path id="Path_3222" data-name="Path 3222" d="M33.9,14.914l5.233,4.454a.747.747,0,0,0,1.059-.093,16.626,16.626,0,0,1,23.331-1.869,10.2,10.2,0,0,1,2.212,2.43l5.3-1.682a.733.733,0,0,1,.9.436A24.877,24.877,0,0,0,53.587,1.8C39.476,4.666,35.177,11.643,33.9,14.914Z" transform="translate(-23.333 -1.239)" fill="#c42917"/>
        <path id="Path_3223" data-name="Path 3223" d="M143.551,62.545v-.9a4.6,4.6,0,0,0,.031.654v-.748c0-.374-.031-.748-.062-1.121.031.374.062.748.062,1.121-.031-.4-.031-.81-.093-1.215a30.248,30.248,0,0,0-.81-4.61c-.031-.062-.031-.125-.062-.187h0a5.814,5.814,0,0,0-.218-.685.706.706,0,0,0-.9-.436L136.2,56.1c2.274,3.3,5.077,10.217,1.557,22.3a30.107,30.107,0,0,0,2.025-2.772h0c-.031.031-.062.093-.093.125.125-.187.218-.374.343-.53-.062.125-.156.249-.218.374h0c.249-.4.467-.81.685-1.215.062-.125.156-.249.218-.4a25.04,25.04,0,0,0,2.4-6.822.187.187,0,0,1,.031-.125L143.333,66c.031-.249.062-.53.093-.81,0-.125.031-.249.031-.374.031-.312.062-.654.062-.966V63.6c.031-.374.031-.748.031-1.09h0Z" transform="translate(-93.766 -37.438)" fill="#006496"/>
      </g>
      <g id="Group_4" data-name="Group 4" transform="translate(61.747 10.342)">
        <path id="Path_3224" data-name="Path 3224" d="M216.8,36.1a11.049,11.049,0,0,0-7.756-2.8c-5.015,0-9.968,2.585-9.968,8.192,0,9.688,12.834,6.261,12.834,12.211,0,2.492-2.523,3.707-4.735,3.707a6.363,6.363,0,0,1-5.358-2.835L198.2,58.1a11.2,11.2,0,0,0,8.878,3.676c5.327,0,9.906-2.835,9.906-8.629,0-9.625-12.834-6.541-12.834-11.962,0-2.492,2.212-3.489,4.423-3.489a5.675,5.675,0,0,1,4.735,2.149Z" transform="translate(-198.2 -33.269)" fill="#3d3e44"/>
        <path id="Path_3225" data-name="Path 3225" d="M264.1,46.657V55.1c0,4.33,1.153,6.51,6.012,6.51a9.552,9.552,0,0,0,3.645-.623V57.123a4.611,4.611,0,0,1-2.492.561c-2.025,0-2.554-1.153-2.554-2.99V46.657h5.046V42.732H268.71V36.72l-4.61,1.4v4.61h0v3.925Zm28.969-3.925h-4.61v10.03c0,2.461-1.184,4.673-4.205,4.673-3.208,0-3.364-3.364-3.364-5.42V42.732h-4.828l.218,11.619c0,3.769,1.776,7.258,6.7,7.258a5.752,5.752,0,0,0,5.638-3.426h.062v2.959h4.361V42.732Zm17.818,18.41h4.361V33.2l-4.61,1.5V45.068h-.125a7.611,7.611,0,0,0-6.261-2.8c-5.264,0-8.909,4.205-8.909,9.656s3.427,9.656,9.1,9.656a7.118,7.118,0,0,0,6.323-3.208h.093v2.772Zm-10.9-9.22a5.421,5.421,0,1,1,5.42,5.514,5.325,5.325,0,0,1-5.42-5.514m24.7,9.376-.872,2.18c-.779,1.931-1.371,2.71-3.645,2.71a6.507,6.507,0,0,1-2.336-.467l-.561,4.143a13.491,13.491,0,0,0,3.52.467c4.049,0,5.669-1.807,7.009-5.264L336.524,42.7h-4.8l-4.61,12.771h-.062L321.914,42.7h-5.046Zm41.3-.156h4.61V51.267a4.638,4.638,0,0,1,4.953-4.641,9.309,9.309,0,0,1,2.212.343V42.545a5.729,5.729,0,0,0-1.651-.28,5.883,5.883,0,0,0-5.451,3.364H370.6V42.7h-4.61Zm11.775-9.22c0,5.794,4.454,9.656,10,9.656,5.576,0,10-3.863,10-9.656s-4.454-9.656-10-9.656-10,3.894-10,9.656m4.61,0a5.421,5.421,0,1,1,5.42,5.514,5.325,5.325,0,0,1-5.42-5.514m34.2-9.189h-4.61v10.03c0,2.461-1.184,4.673-4.205,4.673-3.208,0-3.364-3.364-3.364-5.42V42.732h-4.61V54.351c0,3.769,1.776,7.258,6.7,7.258a5.752,5.752,0,0,0,5.638-3.426h.062v2.959h4.361V42.732Zm2.9,27.6,4.61-1.5V58.774h.125a7.611,7.611,0,0,0,6.261,2.8c5.264,0,8.909-4.205,8.909-9.656s-3.426-9.656-9.1-9.656a7.118,7.118,0,0,0-6.323,3.208h-.093V42.7h-4.361v27.63Zm15.263-18.41a5.406,5.406,0,1,1-5.42-5.514,5.325,5.325,0,0,1,5.42,5.514" transform="translate(-243.572 -33.2)" fill="#3d3e44"/>
        <path id="Path_3226" data-name="Path 3226" d="M525.536,45.493h-10.4v4.361h5.576v6.417a12.99,12.99,0,0,1-6.386,1.433c-5.607,0-9.345-4.3-9.345-10.093,0-5.42,3.738-9.719,9.345-9.719a10.3,10.3,0,0,1,7.1,2.648l3.551-3.613C522.141,34.4,518.4,33.5,514.26,33.5c-8.379,0-14.36,5.669-14.36,14.391,0,8.473,5.981,14.173,14.36,14.173a23.431,23.431,0,0,0,11.245-2.679V45.493Z" transform="translate(-405.921 -33.407)" fill="#3d3e44"/>
      </g>
    </g>
  </g>
</svg>
