<?xml version="1.0" encoding="UTF-8"?>
<svg width="80px" height="64px" viewBox="0 0 80 64" version="1.1" xmlns="http://www.w3.org/2000/svg" xmlns:xlink="http://www.w3.org/1999/xlink">
    <!-- Generator: Sketch 58 (84663) - https://sketch.com -->
    <title>logos/ulaw/</title>
    <desc>Created with Sketch.</desc>
    <g id="logos/ulaw/" stroke="none" stroke-width="1" fill="none" fill-rule="evenodd">
        <g>
            <rect id="Rectangle" x="0" y="0" width="80" height="64"></rect>
            <path d="M15.3235594,5.48650777 C14.7591688,4.84416068 13.9594902,4.52298713 12.9230208,4.52298713 C12.4479366,4.52298713 12.0288835,4.61407897 11.6650029,4.79497964 C11.300693,4.97652182 10.9745959,5.25621223 10.6864969,5.63447854 L10.6864969,2 L1.93189469,2 L-1.13686838e-13,3.93388386 L4.04755444,3.93388386 L4.0368205,12.9996594 L6.18983437,12.9996594 L6.18983437,3.93388386 L8.79088293,3.93388386 L8.79088293,12.9996594 L10.6718987,12.9996594 L10.6718987,9.44130454 C10.6718987,8.32810249 10.8131574,7.54505487 11.0963188,7.09173401 C11.3790508,6.63862699 11.8416836,6.4121804 12.4835733,6.4121804 C13.0694318,6.4121804 13.5048004,6.60077898 13.7877471,6.97904529 C14.0704791,7.35645628 14.2125965,7.94106912 14.2125965,8.73095932 L14.2125965,12.9996594 L16.1687499,12.9996594 L16.1687499,8.23252021 C16.1687499,7.04404979 15.8864472,6.12842721 15.3235594,5.48650777" id="Fill-1" fill="#0084A9"></path>
            <path d="M23.8621947,5.71637566 C23.0163601,4.85014794 21.9725917,4.41756865 20.7317482,4.41756865 C19.5759174,4.41756865 18.5770169,4.84886495 17.7363346,5.71252671 C16.895223,6.57661612 16.4742378,7.6151913 16.4742378,8.82932139 C16.4742378,10.03276 16.8924322,11.0614989 17.7292502,11.9153245 C18.5656389,12.7695777 19.5918036,13.1953144 20.8071004,13.1953144 C21.7267845,13.1953144 22.5410612,12.9427805 23.2522922,12.4362158 C23.9635231,11.9300788 24.491633,11.2291421 24.8383393,10.3325504 L22.7763492,10.3325504 C22.5784154,10.6605666 22.3001916,10.9199431 21.9401752,11.0935735 C21.9365257,11.0952842 21.9330908,11.0974225 21.9294413,11.0995608 C21.924289,11.1019129 21.9195661,11.1031959 21.9146285,11.1051204 C21.8497954,11.1356981 21.7828157,11.1626408 21.713045,11.1874451 C21.676335,11.2009165 21.6379075,11.2143878 21.6016267,11.2261485 C21.5902488,11.2295698 21.5786561,11.2319219 21.5670634,11.2351294 C21.4030488,11.2847381 21.2396782,11.3148882 21.0627829,11.3281457 C20.9681095,11.3364851 20.8706454,11.341617 20.769317,11.3422585 C20.39964,11.3456798 20.0782658,11.2883732 19.7978953,11.1855207 C19.569477,11.1066172 19.362312,10.9964944 19.1830552,10.8465992 C18.9280167,10.6323409 18.7416755,10.3716814 18.6229581,10.064193 C18.4582995,9.6863544 18.3773656,9.2467187 18.3773656,8.77222862 C18.3773656,7.32331254 19.3028459,6.16563373 20.7725371,6.15579752 C21.995777,6.14788579 22.7600336,6.83278517 23.0350372,7.86622841 C23.0380427,7.8773476 23.0421216,7.88803913 23.0455565,7.89937215 L23.043839,7.89937215 C23.0440537,7.90001365 23.0442684,7.90022748 23.0442684,7.90065514 L20.2869337,7.90065514 L18.7513361,9.43146833 L23.0985821,9.43146833 C23.0983675,9.43189599 23.0983675,9.43232365 23.0983675,9.43296515 L25.1172071,9.43296515 C25.1223594,9.37822452 25.1257942,9.31856578 25.1283704,9.25612725 C25.1307318,9.19304722 25.1322346,9.0985341 25.1322346,8.97280172 C25.1322346,7.66843512 24.7086733,6.58281721 23.8621947,5.71637566" id="Fill-2" fill="#0084A9"></path>
            <path d="M30.886915,56.2000674 C26.6388505,56.2000674 25.0248952,52.4522586 25.0248952,50.2376152 C25.0248952,47.5546828 26.8088762,44.1468647 30.8446233,44.1468647 C34.8374346,44.1468647 36.7916559,47.2985137 36.7916559,50.1520829 C36.7916559,52.4522586 35.3050051,56.2000674 30.886915,56.2000674 Z M68.1141542,53.0482045 L68.0293561,53.0482045 L64.1206988,38.3554769 L58.1738809,38.3554769 L54.3083741,53.0482045 L54.2233612,53.0482045 L50.697691,38.3554769 L36.7916559,38.3554769 L36.7916559,40.8675587 L36.7066431,40.8675587 C35.8569443,39.419498 33.6904057,37.5459143 29.8251135,37.5459143 C23.5380297,37.5459143 17.97334,42.4009379 17.97334,50.1520829 C17.97334,51.8216722 18.2404005,53.4360932 18.7532682,54.9222158 L10.0650017,54.9222158 L10.0650017,30.4762474 L2.03601391,35.921871 L2.03601391,61.9923104 L19.6152036,61.9923104 L19.6476201,56.9382106 C21.564702,60.4172343 25.0650401,62.8012315 29.8251135,62.8012315 C32.5863125,62.8012315 35.5171077,61.736569 36.7066431,59.4370348 L36.7916559,59.4370348 L36.7916559,61.9923104 L43.843211,61.9923104 L43.843211,39.8349708 L50.6124635,61.9923104 L57.1545858,61.9923104 L61.1046761,46.7029955 L61.1899036,46.7029955 L65.1404232,61.9923104 L71.6827602,61.9923104 L78.9041263,38.3554769 L71.6396097,38.3554769 L68.1141542,53.0482045 Z" id="Fill-3" fill="#91278F"></path>
            <path d="M72.603947,25.1495135 C72.174804,25.6143812 71.5983914,25.8480981 70.872777,25.8480981 C70.1617608,25.8480981 69.5870656,25.618444 69.1484767,25.1608465 C68.7092439,24.7034629 68.4902715,24.1034543 68.4902715,23.3597515 C68.4902715,22.6177593 68.7055943,22.0115496 69.1368841,21.5434745 C69.5688179,21.075827 70.1216158,20.8412548 70.7961367,20.8412548 C71.5120905,20.8412548 72.0988077,21.0681291 72.5582204,21.5205946 C73.0172037,21.9743431 73.2473394,22.55639 73.2473394,23.268232 C73.2473394,24.0572669 73.0326606,24.6837905 72.603947,25.1495135 Z M78.3646384,18.2958154 C78.5494769,18.1514798 78.8631226,18.0792051 79.3045023,18.0792051 L79.4646527,18.0792051 L79.4646527,16.3240836 C79.4133444,16.3240836 79.3422857,16.3213038 79.2508326,16.3163857 C79.1600234,16.3114676 79.0939023,16.3082601 79.0537574,16.3082601 C78.0636587,16.3082601 77.3255929,16.5265811 76.838272,16.9608711 C76.3520245,17.3958025 76.1081493,18.0556837 76.1081493,18.9417977 L76.1081493,19.3615471 L74.8381095,19.3615471 L74.0066584,20.2200769 C73.9993593,20.2125929 73.9933483,20.2046811 73.9858345,20.1974109 C73.1284073,19.345296 72.0751931,18.9176348 70.8261917,18.9176348 C69.6392325,18.9176348 68.617576,19.3506418 67.762725,20.2155865 C66.9078739,21.0811727 66.4810924,22.1184649 66.4810924,23.3291737 C66.4810924,24.5760199 66.903151,25.6302047 67.7476974,26.491942 C68.5924586,27.3551761 69.6291426,27.7860447 70.8575348,27.7860447 C72.1108297,27.7860447 73.1593211,27.3566729 74.0045116,26.4957909 C74.8501315,25.6370473 75.271546,24.5655422 75.271546,23.2838416 C75.271546,22.3970862 75.0373314,21.6063406 74.5734105,20.9107497 L76.1689034,20.9107497 L76.1689034,27.5638747 L78.0563596,27.5638747 L78.0563596,20.9107497 L79.4646527,20.9107497 L79.4646527,19.359195 L78.0879174,19.359195 L78.0879174,19.0328895 C78.0879174,18.6871254 78.1789412,18.4416479 78.3646384,18.2958154 L78.3646384,18.2958154 Z" id="Fill-4" fill="#0084A9"></path>
            <polygon id="Fill-5" fill="#0084A9" points="19.6705908 27.5619502 21.6132194 27.5619502 21.6132194 19.1658921 19.6705908 19.1658921"></polygon>
            <polyline id="Fill-6" fill="#0084A9" points="21.6134341 18.4912566 19.6705908 18.4912566 19.6607155 17.1340739 21.6134341 17.1342877 21.6134341 18.4912566"></polyline>
            <polyline id="Fill-7" fill="#0084A9" points="51.3320669 18.498313 49.3943759 18.498313 49.3847154 17.1336462 51.3320669 17.1336462 51.3320669 18.498313"></polyline>
            <path d="M3.6375179,16.1878735 L3.62055827,23.4230453 C3.62055827,23.9924762 3.84704442,25.8046905 6.02259957,25.8046905 C8.19815471,25.8046905 8.37032713,23.8641778 8.37032713,23.2945332 L8.34349227,17.6305885 L10.5267759,16.1525914 L10.5267759,23.3879771 C10.5267759,24.3112976 10.3908842,25.3276344 9.79600916,26.0818149 C9.06502778,27.0057769 7.75634571,27.7753532 6.0395592,27.7753532 C4.11882781,27.7753532 2.84427966,26.8056314 2.30049822,26.1438258 C1.8921791,25.6509463 1.51842328,24.7889952 1.51842328,23.3879771 L1.51842328,17.682977 L3.6375179,16.1878735" id="Fill-8" fill="#0084A9"></path>
            <polyline id="Fill-9" fill="#0084A9" points="21.8815679 19.1639676 24.0669983 19.1639676 26.1006507 24.7265566 26.145948 24.7265566 28.0583069 19.1639676 30.2737923 19.1639676 26.8593257 27.5531832 25.281007 27.5531832 21.8815679 19.1639676"></polyline>
            <path d="M37.1656264,20.1559278 C36.3026175,19.2779393 35.2384546,18.8395866 33.9727083,18.8395866 C32.7943363,18.8395866 31.7754706,19.2768702 30.9182581,20.1514373 C30.0604015,21.0275012 29.6312586,22.0797616 29.6312586,23.3095013 C29.6312586,24.5287633 30.057396,25.5709736 30.910959,26.4359184 C31.763878,27.3012908 32.8104372,27.7332285 34.0499927,27.7332285 C34.9877098,27.7332285 35.8178728,27.4768457 36.5432725,26.9636523 C37.2682429,26.4508865 37.806872,25.7407551 38.1610921,24.8326166 L36.0578837,24.8326166 C35.8563003,25.1646955 35.5724949,25.4274933 35.2053941,25.603262 C35.2017446,25.6049727 35.1983097,25.6075387 35.1944455,25.609677 C35.1890785,25.6118153 35.1843556,25.6133121 35.1789886,25.6152366 C35.1132969,25.646242 35.045029,25.6736123 34.973541,25.6984167 C34.9357575,25.7125295 34.8971153,25.7255731 34.8597612,25.7379753 C34.8485979,25.7411828 34.8367906,25.7433211 34.8247685,25.7467424 C34.6577484,25.7969926 34.490943,25.8277842 34.3110421,25.8410417 C34.214222,25.8498087 34.1141817,25.854513 34.0115652,25.8555821 C33.6341598,25.8585758 33.3065599,25.8004138 33.0206078,25.6969198 C32.7876812,25.6167334 32.5764373,25.5049 32.3939603,25.3530802 C32.1335549,25.136256 31.9435641,24.8719614 31.8224853,24.5604103 C31.6546064,24.1776535 31.5719551,23.7322444 31.5719551,23.2515532 C31.5719551,21.7833924 32.5154685,20.6109592 34.0145707,20.6004816 C35.2620693,20.5932113 36.0411387,21.2864501 36.3215093,22.3337923 C36.3249441,22.3449115 36.329023,22.355603 36.3324579,22.3671499 L36.3315992,22.3671499 C36.3315992,22.3675775 36.3315992,22.3677914 36.3315992,22.3684329 L33.5193067,22.3684329 L31.953654,23.9193461 L36.3869863,23.9193461 C36.3867716,23.9197738 36.3867716,23.9206291 36.3867716,23.9212706 L38.4451121,23.9212706 C38.4506938,23.865247 38.453914,23.8051606 38.4562754,23.7420806 C38.4586369,23.6779314 38.4609984,23.582563 38.4609984,23.4549061 C38.4609984,22.1336469 38.0290646,21.0332747 37.1656264,20.1559278" id="Fill-10" fill="#0084A9"></path>
            <polyline id="Fill-11" fill="#0084A9" points="64.6254087 19.1592634 62.3334976 19.1592634 60.2996305 24.5407378 58.3874863 19.1592634 57.2612812 19.1614017 57.2610665 19.1605464 56.9549345 19.1620432 56.0934284 19.1637538 56.0942871 19.1658921 55.2001499 19.1699549 55.1999352 16.1568681 53.1765873 17.6855429 53.1607011 19.1590495 51.1017165 19.1590495 51.1017165 19.1594772 49.3943759 19.1594772 49.3943759 27.5619502 51.3320669 27.5619502 51.3320669 20.9332019 53.1684295 20.9471009 53.1684295 27.5739248 55.1999352 27.5739248 55.2143187 20.9199445 56.7997217 20.9131019 59.1616181 26.7626515 57.7303544 30.0960566 59.9003279 30.0960566 64.6254087 19.1592634"></polyline>
            <path d="M13.3274757,19.1930486 L13.3274757,20.1456639 C13.6205123,19.7648316 13.9519764,19.4827891 14.322512,19.2999639 C14.692833,19.1169249 15.1198292,19.0256193 15.6037152,19.0256193 C16.2106122,19.0256193 16.7417276,19.1398048 17.1968467,19.3683897 C17.6519658,19.5971884 18.0317327,19.939745 18.3350738,20.3971287 C18.5407361,20.7067554 18.6871471,21.0559407 18.7745214,21.4446847 C18.862325,21.8334287 18.9056901,22.398583 18.9056901,23.1399336 L18.9056901,27.5741386 L16.9154028,27.5741386 L16.9154028,23.8633225 C16.9154028,22.7308757 16.7825166,21.9589473 16.5180323,21.5473234 C16.252904,21.1361272 15.7986436,20.9304222 15.1561099,20.9304222 C14.5024129,20.9304222 14.0318369,21.1590071 13.7439526,21.615963 C13.4558537,22.072919 13.3118042,22.8632369 13.3118042,23.9858475 L13.3118042,27.5741386 L11.3979425,27.5741386 L11.3979425,20.5735389 L13.3274757,19.1930486" id="Fill-12" fill="#0084A9"></path>
            <path d="M46.6237311,21.5712724 C46.4899862,20.9182338 46.0430249,20.8590027 45.8339277,20.8590027 C45.3427426,20.8590027 45.074394,21.229785 45.074394,21.5712724 C45.074394,22.0457625 45.4172361,22.1496842 46.475388,22.4911716 C47.5026262,22.8031505 48.7844734,23.2923949 48.7844734,24.9540724 C48.7844734,26.8094804 47.3092005,27.8326598 45.8938231,27.8326598 C45.074394,27.8326598 44.0615394,27.5512587 43.4205084,26.7500355 C42.9142958,26.1265055 42.8400169,25.473253 42.7953637,24.9690405 L44.8215024,24.9690405 C44.9105941,25.3400366 45.0898509,26.0225838 45.9090653,26.0225838 C46.5498816,26.0225838 46.8023439,25.5329118 46.8023439,25.191852 C46.8023439,24.583504 46.3558119,24.4346779 44.9404345,23.9601878 C44.001644,23.648209 43.0933379,22.9511212 43.0933379,21.6005672 C43.0933379,19.9983346 44.5385557,19.0484991 45.8641974,19.0484991 C47.1005327,19.0484991 48.4858551,19.9391035 48.5607781,21.5712724 L46.6237311,21.5712724" id="Fill-13" fill="#0084A9"></path>
            <path d="M43.5252717,19.2131487 L42.6620482,19.1983944 C41.634166,19.1983944 41.2921826,19.5236307 40.9192855,20.0575657 L40.8898745,20.0575657 L40.9083369,19.1566974 L39.0904367,19.1566974 L39.072189,27.5662269 L41.0534598,27.5662269 L41.0534598,22.9363669 C41.0534598,22.4706439 40.951702,21.3514546 42.3230703,21.1365548 C42.4525216,20.9274285 43.3646919,19.4539219 43.5252717,19.2131487" id="Fill-14" fill="#0084A9"></path>
        </g>
    </g>
</svg>