<?xml version="1.0" encoding="UTF-8"?>
<svg id="Layer_1" data-name="Layer 1" xmlns="http://www.w3.org/2000/svg" viewBox="0 0 500 140.98">
  <defs>
    <style>
      .cls-1 {
        fill: #231f20;
      }
    </style>
  </defs>
  <g>
    <g>
      <path class="cls-1" d="m474.84,36.66c5.91,0,10.33,3.73,10.33,9.86s-4.15,10.75-10.49,10.75c-7.2,0-10.2-5.6-10.2-10.33,0-4.26,3.1-10.28,10.36-10.28Zm.55,19.61c2.37,0,7.26-1.37,7.26-9.02,0-6.31-3.84-9.7-7.99-9.7-4.39,0-7.68,2.89-7.68,8.65,0,6.13,3.68,10.07,8.41,10.07Z"/>
      <path class="cls-1" d="m490.75,44.65c0-4.1,0-4.84-.05-5.68-.05-.89-.26-1.31-1.13-1.5-.21-.05-.66-.08-.89-.08-.11,0-.21-.05-.21-.16,0-.16.13-.21.42-.21.6,0,1.31,0,1.89.03l1.08.05c.53.03,5.86,0,6.47-.03.5-.03.92-.03,1.16-.11.16-.05.26-.16.37-.16s.16.11.16.24c0,.18-.13.5-.21,1.24-.03.26-.08,1.42-.13,1.74-.03.13-.08.29-.21.29s-.18-.13-.18-.32c0-.21-.08-.66-.24-1-.16-.34-.76-.81-1.79-.84l-4.05-.08c-.16,0-.24.08-.24.29v7.26c0,.16.03.24.18.24l3.36-.03c.45,0,.81,0,1.18-.03.63-.05.97-.13,1.21-.47.11-.13.18-.26.29-.26s.13.08.13.21c0,.16-.13.6-.21,1.47-.05.53-.11,1.58-.11,1.76,0,.24,0,.5-.18.5-.13,0-.18-.11-.18-.24-.03-.26-.05-.63-.16-.95-.13-.37-.55-.84-1.37-.95-.66-.08-3.52-.08-3.97-.08-.13,0-.18.05-.18.24v2.23c0,2.52,0,4.6.13,5.7.08.76.24,1.34,1.03,1.45.37.05.95.11,1.18.11.16,0,.21.08.21.16,0,.13-.13.21-.42.21-1.45,0-3.1-.08-3.23-.08s-1.79.08-2.58.08c-.29,0-.42-.05-.42-.21,0-.08.05-.16.21-.16.24,0,.55-.05.79-.11.53-.11.66-.68.76-1.45.13-1.1.13-3.18.13-5.7v-4.63Z"/>
    </g>
    <rect class="cls-1" x="127.06" y="65.86" width="372.4" height="1.41"/>
  </g>
  <g>
    <g>
      <g>
        <polygon class="cls-1" points="7.69 37.48 7.69 37.98 8.18 37.48 7.69 37.48"/>
        <polygon class="cls-1" points="11.52 37.48 7.69 41.32 7.69 42.31 12.52 37.48 11.52 37.48"/>
        <polygon class="cls-1" points="15.86 37.48 7.69 45.65 7.69 46.64 16.85 37.48 15.86 37.48"/>
        <polygon class="cls-1" points="20.19 37.48 7.69 49.99 7.69 50.98 21.18 37.48 20.19 37.48"/>
        <polygon class="cls-1" points="24.53 37.48 7.69 54.32 7.69 55.31 25.52 37.48 24.53 37.48"/>
        <polygon class="cls-1" points="28.86 37.48 7.69 58.65 7.69 59.64 29.85 37.48 28.86 37.48"/>
        <polygon class="cls-1" points="31.52 39.15 9.36 61.31 10.35 61.31 31.52 40.14 31.52 39.15"/>
        <polygon class="cls-1" points="31.52 43.49 13.69 61.31 14.68 61.31 31.52 44.48 31.52 43.49"/>
        <polygon class="cls-1" points="31.52 47.82 18.03 61.31 19.02 61.31 31.52 48.81 31.52 47.82"/>
        <polygon class="cls-1" points="31.52 52.15 22.36 61.31 23.35 61.31 31.52 53.14 31.52 52.15"/>
        <polygon class="cls-1" points="31.52 56.49 26.69 61.31 27.68 61.31 31.52 57.48 31.52 56.49"/>
        <polygon class="cls-1" points="31.52 60.82 31.03 61.31 31.52 61.31 31.52 60.82"/>
      </g>
      <g>
        <polygon class="cls-1" points="55.36 37.48 55.36 37.98 55.85 37.48 55.36 37.48"/>
        <polygon class="cls-1" points="59.19 37.48 55.36 41.32 55.36 42.31 60.19 37.48 59.19 37.48"/>
        <polygon class="cls-1" points="63.53 37.48 55.36 45.65 55.36 46.64 64.52 37.48 63.53 37.48"/>
        <polygon class="cls-1" points="67.86 37.48 55.36 49.99 55.36 50.98 68.85 37.48 67.86 37.48"/>
        <polygon class="cls-1" points="72.2 37.48 55.36 54.32 55.36 55.31 73.19 37.48 72.2 37.48"/>
        <polygon class="cls-1" points="76.53 37.48 55.36 58.65 55.36 59.64 77.52 37.48 76.53 37.48"/>
        <polygon class="cls-1" points="79.19 39.15 57.03 61.31 58.02 61.31 79.19 40.14 79.19 39.15"/>
        <polygon class="cls-1" points="79.19 43.49 61.36 61.31 62.35 61.31 79.19 44.48 79.19 43.49"/>
        <polygon class="cls-1" points="79.19 47.82 65.69 61.31 66.69 61.31 79.19 48.81 79.19 47.82"/>
        <polygon class="cls-1" points="79.19 52.15 70.03 61.31 71.02 61.31 79.19 53.14 79.19 52.15"/>
        <polygon class="cls-1" points="79.19 56.49 74.36 61.31 75.35 61.31 79.19 57.48 79.19 56.49"/>
        <polygon class="cls-1" points="79.19 60.82 78.7 61.31 79.19 61.31 79.19 60.82"/>
      </g>
      <g>
        <g>
          <polygon class="cls-1" points="31.52 61.31 31.52 61.81 32.02 61.31 31.52 61.31"/>
          <polygon class="cls-1" points="35.36 61.31 31.52 65.15 31.52 66.14 36.35 61.31 35.36 61.31"/>
          <polygon class="cls-1" points="39.69 61.31 31.52 69.49 31.52 70.48 40.68 61.31 39.69 61.31"/>
          <polygon class="cls-1" points="44.03 61.31 31.52 73.82 31.52 74.81 45.02 61.31 44.03 61.31"/>
          <polygon class="cls-1" points="48.36 61.31 31.52 78.15 31.52 79.14 49.35 61.31 48.36 61.31"/>
          <polygon class="cls-1" points="52.69 61.31 31.52 82.49 31.52 83.48 53.68 61.31 52.69 61.31"/>
          <polygon class="cls-1" points="55.36 62.99 33.19 85.15 34.18 85.15 55.36 63.98 55.36 62.99"/>
          <polygon class="cls-1" points="55.36 67.32 37.53 85.15 38.52 85.15 55.36 68.31 55.36 67.32"/>
          <polygon class="cls-1" points="55.36 71.65 41.86 85.15 42.85 85.15 55.36 72.64 55.36 71.65"/>
          <polygon class="cls-1" points="55.36 75.99 46.19 85.15 47.18 85.15 55.36 76.98 55.36 75.99"/>
          <polygon class="cls-1" points="55.36 80.32 50.53 85.15 51.52 85.15 55.36 81.31 55.36 80.32"/>
          <polygon class="cls-1" points="55.36 84.65 54.86 85.15 55.36 85.15 55.36 84.65"/>
        </g>
        <g>
          <polygon class="cls-1" points="79.19 61.31 79.19 61.81 79.69 61.31 79.19 61.31"/>
          <polygon class="cls-1" points="83.03 61.31 79.19 65.15 79.19 66.14 84.02 61.31 83.03 61.31"/>
          <polygon class="cls-1" points="87.36 61.31 79.19 69.49 79.19 70.48 88.35 61.31 87.36 61.31"/>
          <polygon class="cls-1" points="91.7 61.31 79.19 73.82 79.19 74.81 92.69 61.31 91.7 61.31"/>
          <polygon class="cls-1" points="96.03 61.31 79.19 78.15 79.19 79.14 97.02 61.31 96.03 61.31"/>
          <polygon class="cls-1" points="100.36 61.31 79.19 82.49 79.19 83.48 101.35 61.31 100.36 61.31"/>
          <polygon class="cls-1" points="103.03 62.99 80.86 85.15 81.85 85.15 103.03 63.98 103.03 62.99"/>
          <polygon class="cls-1" points="103.03 67.32 85.2 85.15 86.19 85.15 103.03 68.31 103.03 67.32"/>
          <polygon class="cls-1" points="103.03 71.65 89.53 85.15 90.52 85.15 103.03 72.64 103.03 71.65"/>
          <polygon class="cls-1" points="103.03 75.99 93.86 85.15 94.85 85.15 103.03 76.98 103.03 75.99"/>
          <polygon class="cls-1" points="103.03 80.32 98.2 85.15 99.19 85.15 103.03 81.31 103.03 80.32"/>
          <polygon class="cls-1" points="103.03 84.65 102.53 85.15 103.03 85.15 103.03 84.65"/>
        </g>
      </g>
      <polygon class="cls-1" points="79.19 108.98 79.19 109.48 79.69 108.98 79.19 108.98"/>
      <polygon class="cls-1" points="83.03 108.98 79.19 112.82 79.19 113.81 84.02 108.98 83.03 108.98"/>
      <polygon class="cls-1" points="87.36 108.98 79.19 117.16 79.19 118.15 88.35 108.98 87.36 108.98"/>
      <rect class="cls-1" x="7.69" y="85.15" width="0" height=".5"/>
      <rect class="cls-1" x="7.69" y="88.99" width="0" height=".99"/>
      <path class="cls-1" d="m7.69,93.32v.99l.21-.21c-.04-.29-.08-.59-.11-.88l-.1.1Z"/>
      <path class="cls-1" d="m7.69,97.66v.99l1.04-1.04c-.08-.25-.16-.5-.23-.76l-.81.81Z"/>
      <path class="cls-1" d="m13.69,108.98h.99l.59-.59c-.16-.18-.31-.35-.46-.53l-1.12,1.12Z"/>
      <path class="cls-1" d="m31.52,121.49v.99l.7-.7c-.21-.12-.41-.25-.62-.37l-.08.08Z"/>
      <polygon class="cls-1" points="55 132.68 54.86 132.82 55.36 132.82 55.36 132.81 55.36 132.81 55 132.68"/>
      <path class="cls-1" d="m79.19,121.49v.99l3.07-3.07c-.89.58-1.8,1.16-2.73,1.74l-.34.34Z"/>
      <polygon class="cls-1" points="7.69 85.15 7.69 85.65 8.18 85.15 7.69 85.15"/>
      <polygon class="cls-1" points="11.52 85.15 7.69 88.99 7.69 89.98 12.52 85.15 11.52 85.15"/>
      <path class="cls-1" d="m15.86,85.15l-8.07,8.07c.03.29.07.59.11.88l8.95-8.95h-.99Z"/>
      <path class="cls-1" d="m20.19,85.15l-11.7,11.7c.07.25.15.5.23.76l12.45-12.45h-.99Z"/>
      <path class="cls-1" d="m24.53,85.15l-14.86,14.86c.1.22.21.45.32.67l15.53-15.53h-.99Z"/>
      <path class="cls-1" d="m28.86,85.15l-17.7,17.7c.12.2.25.41.38.61l18.31-18.31h-.99Z"/>
      <path class="cls-1" d="m31.52,86.82l-18.63,18.63c.14.19.28.38.42.57l18.21-18.21v-.99Z"/>
      <path class="cls-1" d="m31.52,91.15l-16.71,16.71c.15.18.31.35.46.53l16.25-16.25v-.99Z"/>
      <polygon class="cls-1" points="31.52 95.49 18.03 108.98 19.02 108.98 31.52 96.48 31.52 95.49"/>
      <polygon class="cls-1" points="31.52 99.82 22.36 108.98 23.35 108.98 31.52 100.81 31.52 99.82"/>
      <polygon class="cls-1" points="31.52 104.16 26.69 108.98 27.68 108.98 31.52 105.15 31.52 104.16"/>
      <polygon class="cls-1" points="31.52 108.49 31.03 108.98 31.52 108.98 31.52 108.49"/>
      <polygon class="cls-1" points="55.36 85.15 55.36 85.65 55.85 85.15 55.36 85.15"/>
      <polygon class="cls-1" points="59.19 85.15 55.36 88.99 55.36 89.98 60.19 85.15 59.19 85.15"/>
      <polygon class="cls-1" points="63.53 85.15 55.36 93.32 55.36 94.31 64.52 85.15 63.53 85.15"/>
      <polygon class="cls-1" points="67.86 85.15 55.36 97.66 55.36 98.65 68.85 85.15 67.86 85.15"/>
      <polygon class="cls-1" points="72.2 85.15 55.36 101.99 55.36 102.98 73.19 85.15 72.2 85.15"/>
      <polygon class="cls-1" points="76.53 85.15 55.36 106.32 55.36 107.31 77.52 85.15 76.53 85.15"/>
      <polygon class="cls-1" points="58.02 108.98 79.19 87.81 79.19 86.82 57.03 108.98 58.02 108.98"/>
      <polygon class="cls-1" points="62.35 108.98 79.19 92.15 79.19 91.15 61.36 108.98 62.35 108.98"/>
      <polygon class="cls-1" points="66.69 108.98 79.19 96.48 79.19 95.49 65.69 108.98 66.69 108.98"/>
      <polygon class="cls-1" points="71.02 108.98 79.19 100.81 79.19 99.82 70.03 108.98 71.02 108.98"/>
      <polygon class="cls-1" points="75.35 108.98 79.19 105.15 79.19 104.16 74.36 108.98 75.35 108.98"/>
      <polygon class="cls-1" points="79.19 108.98 79.19 108.49 78.7 108.98 79.19 108.98"/>
      <polygon class="cls-1" points="32.02 108.98 31.52 108.98 31.52 109.48 32.02 108.98"/>
      <polygon class="cls-1" points="31.52 113.81 36.35 108.98 35.36 108.98 31.52 112.82 31.52 113.81"/>
      <polygon class="cls-1" points="31.52 117.16 31.52 118.15 40.68 108.98 39.69 108.98 31.52 117.16"/>
      <path class="cls-1" d="m44.03,108.98l-12.42,12.42c.2.12.41.25.62.37l12.8-12.8h-.99Z"/>
      <path class="cls-1" d="m48.36,108.98l-14.03,14.03c.21.12.42.24.63.36l14.39-14.39h-.99Z"/>
      <path class="cls-1" d="m52.69,108.98l-15.58,15.58c.21.12.43.23.65.35l15.93-15.93h-.99Z"/>
      <path class="cls-1" d="m55.36,110.66l-15.4,15.4c.22.11.44.22.66.33l14.74-14.74v-.99Z"/>
      <path class="cls-1" d="m55.36,114.99l-12.5,12.5c.23.11.45.22.67.32l11.83-11.83v-.99Z"/>
      <path class="cls-1" d="m55.36,119.32l-9.55,9.55c.23.1.46.21.68.31l8.87-8.87v-.99Z"/>
      <path class="cls-1" d="m55.36,123.66l-6.55,6.55c.24.1.47.2.69.3l5.85-5.85v-.99Z"/>
      <path class="cls-1" d="m55.36,127.99l-3.49,3.49c.25.1.49.19.71.28l2.78-2.78v-.99Z"/>
      <polygon class="cls-1" points="55 132.68 55.36 132.81 55.36 132.81 55.36 132.32 55 132.68"/>
      <path class="cls-1" d="m91.7,108.98l-12.16,12.16c.93-.58,1.85-1.16,2.73-1.74l10.42-10.42h-.99Z"/>
    </g>
    <polygon class="cls-1" points="103.03 36.99 103.03 36.92 79.75 36.92 78.63 36.92 55.92 36.92 54.8 36.92 32.08 36.92 30.96 36.92 7.69 36.92 7.69 36.99 103.03 36.99"/>
    <path class="cls-1" d="m7.69,38.04h23.27v22.71H7.69v1.12h23.27v22.71H7.69v1.12h23.27v22.67h-15.7c.36.4.73.81,1.11,1.21h14.54v11.39c.4.25.8.49,1.21.74v-12.13h22.62v23c.11.04.19.07.24.09l.37.13.37-.13s.13-.05.24-.09v-23h22.62v12.13c.41-.25.81-.49,1.21-.74v-11.39h14.54c.38-.4.76-.81,1.11-1.21h-15.7v-22.67h23.27v-1.12h-23.27v-22.71h23.27v-1.12h-23.27v-22.71h23.27v-1.05H7.69v1.05Zm48.23,0h22.71v22.71h-22.71v-22.71Zm0,23.83h22.71v22.71h-22.71v-22.71Zm0,23.83h22.71v22.67h-22.71v-22.67Zm-23.83-47.67h22.71v22.71h-22.71v-22.71Zm0,23.83h22.71v22.71h-22.71v-22.71Zm0,23.83h22.71v22.67h-22.71v-22.67Z"/>
    <rect class="cls-1" x="7.14" y="34.34" width="96.34" height="1.12"/>
    <g>
      <path class="cls-1" d="m41.55,26.66c-.47-.28-1.09-.2-1.47.22-.18.2-.16.51.04.7.2.18.51.16.7-.04.18-.2.16-.51-.04-.7,0,0,0,0,0,0,.22-.17.51-.23.77-.18Z"/>
      <path class="cls-1" d="m41.23,27.56c-.26.08-.4.36-.32.62.08.26.36.4.62.32.26-.08.4-.36.32-.62,0,0,0,0,0,0,.28-.04.56.05.76.23-.26-.48-.84-.72-1.38-.54Z"/>
      <path class="cls-1" d="m41.87,28.71c-.27-.06-.53.11-.58.38-.06.27.11.53.38.58.27.06.53-.11.58-.38,0,0,0,0,0,0,.26.11.46.32.54.58.01-.55-.37-1.04-.92-1.16Z"/>
      <path class="cls-1" d="m39.92,25.94c-.55-.01-1.04.37-1.16.92h0c-.06.27.11.53.38.58.27.06.53-.11.58-.38.06-.27-.11-.53-.38-.58,0,0,0,0,0,0,.11-.26.32-.46.58-.54Z"/>
      <path class="cls-1" d="m37.79,12.22c.24-.12.34-.42.22-.66-.12-.24-.42-.34-.66-.22,0,0,0,0,0,0-.08-.27-.03-.56.11-.78-.43.33-.58.94-.33,1.45.12.24.42.34.66.22Z"/>
      <path class="cls-1" d="m38.64,11.71c.27.01.5-.19.52-.47.01-.27-.19-.5-.47-.52,0,0,0,0,0,0,.07-.27.25-.5.49-.62-.54.07-.97.52-1,1.09-.01.27.19.5.47.52Z"/>
      <path class="cls-1" d="m39.63,11.69c.23.15.53.08.68-.14.15-.23.08-.53-.14-.68,0,0,0,0,0,0,.19-.2.47-.31.74-.29-.51-.21-1.1-.04-1.41.44-.15.23-.08.53.14.68Z"/>
      <path class="cls-1" d="m36.63,13.23h0c.23.15.53.08.68-.14.15-.23.08-.53-.14-.68-.23-.15-.53-.08-.68.14,0,0,0,0,0,0-.2-.19-.31-.47-.29-.74-.21.51-.04,1.1.44,1.41Z"/>
      <path class="cls-1" d="m27.22,26.81c-.45-.31-1.07-.27-1.48.12h0c-.19.19-.2.5,0,.7.19.19.5.2.7,0,.19-.19.2-.5,0-.7,0,0,0,0,0,0,.23-.16.52-.2.78-.13Z"/>
      <path class="cls-1" d="m27.08,28.64c.26-.07.42-.34.35-.6,0,0,0,0,0,0,.28-.02.55.09.74.28-.23-.5-.79-.77-1.34-.63-.26.07-.42.34-.35.6s.34.42.6.35Z"/>
      <path class="cls-1" d="m27.41,28.88c-.26-.07-.53.08-.61.34-.07.26.08.53.34.61.26.07.53-.08.61-.34,0,0,0,0,0,0,.25.12.43.35.5.61.05-.55-.3-1.06-.84-1.22Z"/>
      <path class="cls-1" d="m24.42,26.83h0c-.07.26.08.53.34.61.26.07.53-.08.61-.34.07-.26-.08-.53-.34-.61,0,0,0,0,0,0,.12-.25.35-.43.61-.5-.55-.05-1.06.3-1.22.84Z"/>
      <path class="cls-1" d="m15.59,28.01c-.27.02-.47.26-.45.54.02.27.26.47.54.45.27-.02.47-.26.45-.54,0,0,0,0,0,0,.28.03.53.17.69.4-.15-.53-.66-.89-1.22-.84Z"/>
      <path class="cls-1" d="m15.96,29.28c-.25-.11-.54,0-.65.24-.11.25,0,.54.24.65.25.11.54,0,.65-.24,0,0,0,0,0,0,.23.16.37.42.4.69.13-.53-.12-1.1-.64-1.34Z"/>
      <path class="cls-1" d="m14.96,30.45c-.22.16-.28.46-.12.69.16.22.46.28.69.12,0,0,0,0,0,0,.12.26.11.55,0,.79.38-.39.44-1.01.11-1.48-.16-.22-.46-.28-.69-.12Z"/>
      <path class="cls-1" d="m16.11,27.21c-.39-.38-1.01-.44-1.48-.11-.22.16-.28.46-.12.69.16.22.46.28.69.12.22-.16.28-.46.12-.69,0,0,0,0,0,0,.26-.12.55-.11.79,0Z"/>
      <path class="cls-1" d="m22.21,23.36c.33-.16.63-.38.87-.66.08-.09.16-.19.23-.29-.09,0-.17-.01-.26-.01-.39,0-.76.08-1.11.22-.34.14-.65.35-.91.61-.12.12-.24.26-.33.4.14.01.27.01.41,0,.39-.02.75-.12,1.1-.28Z"/>
      <path class="cls-1" d="m24.62,27.69c-.22.04-.42.11-.6.22-.11.06-.22.12-.33.16-.59.14-1.34-.86-1.34-1.56,0-.53.45-1.04,1.14-1.38.65-.32,1.17-.95,1.17-1.74,0-.2-.03-.4-.09-.58-.29-.18-.62-.31-.96-.38-.52.83-1.42,1.4-2.48,1.46-.2.01-.39,0-.58-.02-.05.08-.09.17-.12.26-.05.12-.09.24-.12.36.12.18.24.45.24.75,0,.83-1.45,1.58-2.79,1.58-.33,0-.64-.04-.88-.14-.12-.05-.23-.1-.34-.17.34.61.88,1.11,1.58,1.39.3.12.6.19.91.21.02.01.04.03.06.04-.36.45-.92.74-1.54.72-.11,0-.22-.02-.32-.04.45.39,1.03.63,1.67.65.3,0,.58-.03.85-.12-.15.48-.52.89-1.03,1.06-.09.03-.18.05-.27.06.47.18,1,.2,1.52.03.24-.08.46-.2.65-.34.02.43-.16.86-.52,1.15-.06.05-.13.09-.19.13.43,0,.86-.13,1.22-.42.17-.13.31-.29.42-.46.14.34.13.73-.08,1.07-.04.06-.07.11-.12.16.34-.12.65-.35.86-.69.06-.1.11-.2.15-.3.08.04.17.06.27.08.19.04.37.03.55,0,.15-.03.3-.05.44-.06-.19-.22-.25-.47-.25-.47,0,0,.55.45,1.18.61.2.05.42.06.64.02.91-.15,1.53-1.01,1.39-1.92-.15-.91-1.01-1.53-1.92-1.39Z"/>
      <path class="cls-1" d="m39.02,27.71c-.12.03-.24.07-.35.12h0s-.09.04-.13.06c-.79.21-3.05-1.72-3.65-4.55.85-.03,1.78-.29,2.64-.81.39.47.62,1.08.58,1.74,0,.14-.03.28-.06.42.53-.57.87-1.32.92-2.15.02-.37-.02-.74-.11-1.08,0,0,.02-.02.02-.03.61.22,1.11.72,1.31,1.38.03.12.06.23.07.35.26-.61.31-1.31.11-1.99-.09-.32-.24-.6-.42-.86.56-.01,1.12.24,1.48.72.06.08.12.17.16.26.03-.56-.13-1.13-.49-1.62-.17-.23-.37-.41-.58-.57.44-.17.96-.13,1.39.15.07.05.14.1.2.16-.14-.46-.43-.87-.86-1.15-.2-.13-.4-.22-.62-.28,0,0,0-.01,0-.02.3-.26.72-.37,1.14-.27.07.02.14.04.21.07-.25-.32-.6-.57-1.02-.67-.06-.01-.11-.02-.17-.03,0,0,0-.02,0-.03.45-.26.73-.77.66-1.32-.02-.18-.08-.36-.17-.51-.28-.51-.43-1.08-.43-1.66h0c0-.83-.59-1.55-1.43-1.67-.92-.13-1.77.5-1.9,1.42-.07.47.06.91.33,1.26h0c.43.51,1.12.82,1.12.82,0,0-.6.14-.99-.28.27,2-1.36,4.78-3.79,4.82,0,.09,0,.19,0,.29-.05,1.04-.5,1.42-.86,1.55-.12.04-.25.07-.37.07-.46,0-.92-.28-1.39-.82-.11-.13-.21-.27-.29-.38.01.04.03.08.04.09l.25.64s-1.28-.34-1.59-1.54c0,.1.02.18.02.18l.15.73s-1.29-.65-1.77-2.03l-.03.41s-.85-.7-1.06-1.67c-.06.55-.33,1.46-1.54,1.46h-5.08c-1.75,0-3.5,0-5.24,0-.53,0-.99-.3-1.2-.79-.31-.71.02-1.5.73-1.78.73-.29,1.45.08,2.09.45.6.35,1.18.74,1.79,1.07.64.35,1.33.65,2.07.68.91.04,1.82-.28,2.47-.92,1.01-.99,1.33-2.51.74-3.79-.26-.56-.67-1.05-1.19-1.39-.57-.38-1.34-.63-2.02-.53-.36.05-.72.11-1.08.16-.33.04-.67.11-.99.11-.62,0-1.17-.41-1.36-1h0c-.07-.25-.08-.63-.08-.63,0,0-.04.2-.05.55,0,.07,0,.15,0,.22h0s0,.02,0,.03c.02.17.06.33.12.48.15.36.43.66.77.85.17.1.36.16.55.21-.28.51-.87.94-1.62,1.14-.12.03-.25.06-.37.07.59.16,1.3.17,2.02-.01.24-.06.47-.14.69-.24-.02.26.02.52.11.76.2.55.66.98,1.24,1.12.13.03.27.05.4.05,0,0,0,0,0,0,.01,0,.03,0,.04,0,.03,0,.07,0,.1,0,.13-.01.25-.03.25-.03,0,0-.41-.05-.69-.17-.35-.17-.63-.49-.73-.87-.11-.4-.03-.85.25-1.15.12-.13.26-.23.43-.29.16-.06.32-.04.48-.04.41.07.79.26,1.07.56.28.3.47.68.52,1.08.13,1.03-.63,2.07-1.68,2.17-.73.07-1.4-.32-2.01-.68-.61-.36-1.19-.77-1.81-1.1-.63-.34-1.31-.63-2.04-.61-.74.01-1.46.31-2.03.78-.28.23-.51.5-.69.81-.46.81-.51,1.83-.19,2.69.28.76.85,1.41,1.57,1.77.32.16.66.27,1.02.32.31.04.63.03.95.03.51,0,1.03,0,1.54,0,.28,0,.56,0,.84,0-.51.9-1.33,2-2.32,2-2.38,0-3.63-1.33-3.53-2.72,0-.13.03-.26.07-.38-.5.51-.84,1.2-.91,1.97-.03.36,0,.71.08,1.04-.57-.21-1.04-.69-1.21-1.33-.03-.11-.05-.22-.06-.33-.25.56-.32,1.2-.15,1.84.08.3.2.57.36.81-.52,0-1.03-.25-1.35-.71-.05-.08-.1-.16-.14-.24-.04.52.09,1.05.41,1.51.15.21.33.39.53.54-.42.15-.89.1-1.28-.17-.07-.05-.13-.1-.18-.15.12.43.38.81.77,1.09.18.13.38.22.58.28-.29.24-.69.34-1.08.23-.07-.02-.13-.04-.19-.07.22.31.54.54.93.64.29.08.58.07.85,0-.16.22-.25.49-.25.78,0,.42.2.8.51,1.05.19.15.37.33.52.52.05-.34.27-.57.27-.57,0,0-.06.72.17,1.33.14.33.38.62.71.81.8.46,1.83.19,2.29-.61.46-.8.19-1.83-.61-2.29-.07-.04-.13-.07-.2-.1h0c-.08-.03-.15-.07-.22-.1-1.22-.59.04-2.63,1.31-2.63.94,0,.92,1.27,2.67,1.27.96,0,1.67-.72,2.03-1.36.05-.09.09-.18.13-.26.02-.06.05-.12.06-.17,0-.02,0-.04.01-.06.03-.1.05-.18.07-.24.02-.05.06-.14.09-.24.48-1.1,1.58-1.87,2.86-1.87.57,0,1.1.15,1.55.41,1.67.87,3.58,2.68,7.05,2.68.02,0,.04,0,.06,0-.65.47-1.51.61-2.32.31-.13-.05-.26-.11-.38-.18.39.67,1.01,1.22,1.79,1.51.36.14.74.21,1.11.22-.39.53-1.02.88-1.73.87-.12,0-.24-.01-.36-.03.51.42,1.16.68,1.87.68.33,0,.65-.05.95-.15-.15.54-.56,1-1.13,1.2-.1.03-.2.06-.29.08.53.19,1.12.21,1.69,0,.26-.09.5-.23.71-.39.03.48-.15.96-.55,1.29-.07.06-.14.11-.21.15.48,0,.96-.16,1.35-.49.18-.15.34-.33.45-.52.17.37.16.81-.07,1.19-.04.06-.08.12-.13.18.38-.14.72-.41.94-.78.03-.05.06-.1.08-.16.26.44.77.71,1.32.65.04,0,.07-.01.11-.02h0c.35-.07.71-.1,1.07-.07-.16-.22-.21-.44-.21-.44,0,0,.47.4,1.03.6.02,0,.04.01.06.02h0c.28.09.59.11.9.04.9-.21,1.47-1.1,1.26-2.01s-1.1-1.47-2.01-1.26Zm-19.12-13.28c-.09-.38-.07-1.03-.06-1.17,0,0-.52.36-1.66.57.11-.02.42-.27.68-.53.26-.27.39-.56.39-.56-.87-.09-1.19-.45-1.19-.45,1.03.51,2.75.25,2.75.25,0,0-1.06.68-.92,1.9Z"/>
      <g>
        <path class="cls-1" d="m31.21,15.97c0,.06,0,.12,0,.18.38,1.01.72,1.88.75,1.87.03,0-.27-.9-.63-1.91-.04-.04-.08-.09-.12-.13Z"/>
        <path class="cls-1" d="m35.11,15.64c.03-.91-.58-1.56-1.04-1.91-.03-.1-.06-.19-.09-.29-.06-.16-.13-.31-.2-.46.51-.61.72-1.23.47-1.5-.17-.19-.54-.18-.96,0-.36.15-.76.14-1.11-.03-.17-.08-.34-.15-.51-.2-.12-.04-.2-.14-.2-.26v-.36s-.33.36-.33.36c-.07.08-.17.12-.28.12-.02,0-.04,0-.05,0-.08,0-.16-.06-.19-.13l-.17-.42-.17.42c-.04.1-.13.17-.24.19-.02,0-.04,0-.06.01-.14.03-.29-.02-.39-.13l-.3-.33v.44c-.02.15-.1.28-.23.35-.02.01-.04.02-.06.03-.09.05-.21.05-.31,0l-.4-.21.14.43c.03.08,0,.17-.06.22-.01.01-.03.02-.04.04-.08.07-.18.11-.29.09l-.48-.07.22.28c.08.1.08.23.01.33-.1.15-.19.31-.26.48-.16.35-.46.62-.83.73-.44.14-.73.36-.74.62-.01.37.55.71,1.33.85.03.16.08.32.14.48.04.1.07.19.12.28-.12.56-.18,1.45.43,2.13,0,0-.17-.87.49-.81,0,0-.34,1.38,1.23,2.65,0,0-.2-.96.39-.76,0,0,.06.95.96,1.57,0,0-.31-.48.17-.76,0,0,.97,1.78,1.98,1.41,1.01-.37.61-2.35.61-2.35.55-.09.62.47.62.47.29-1.05-.27-1.82-.27-1.82.33-.53.79.33.79.33.4-1.98-.76-2.82-.76-2.82.48-.47.9.31.9.31Zm-8.18-.63c-.4-.07-.7-.29-.66-.49.04-.2.39-.3.79-.23.04,0,.08.01.11.02l-.17.02.13.04-.33.08h.32s-.36.19-.36.19l.4-.09-.24.22.3-.16-.07.12.1-.06c0,.12.01.24.03.35-.11,0-.22,0-.35-.02Zm4.56-.92s.02-.05.02-.08c.02-.07.03-.15.03-.24,0-.1-.01-.21-.04-.32,0-.04-.02-.09-.03-.13l-.02-.06.05-.04c.11-.07.2-.16.25-.25l.26-.4-.07.34s.08-.05.12-.07c.03-.01.05-.02.08-.03h.03s.03,0,.03,0c.01,0,.02,0,.03.01.02,0,.03,0,.05,0,.02,0,.03,0,.05-.01,0,0,.01,0,.02,0,.02,0,.03-.02.05-.03,0,0,0,0,.01-.01.01-.01.02-.03.03-.05l.07-.19.09.19s.03.06.04.09c0,0,0,0,0,.01h0c.14.41,0,.86-.33,1.14-.04.03-.08.06-.12.09l-.1-.14c.23-.2.36-.48.35-.77-.08.27-.27.5-.54.63,0,.07.02.13.04.19h0s0,.02,0,.03c0,.02.01.04.02.06l.04.09-.09.03c-.12.04-.24.05-.37.05h-.12s.05-.12.05-.12Zm-3.41.39h0s0-.01,0-.01c-.01-.03-.02-.06-.03-.09l-.05-.2.18.1s.03.02.05.02c0,0,.01,0,.02,0,.02,0,.04,0,.06,0,0,0,.01,0,.02,0,.02,0,.03-.01.05-.02.01-.01.03-.02.04-.04,0,0,.01-.02.02-.03l.02-.03h.03s.05-.03.08-.04c.04-.01.09-.02.13-.02l-.27-.21.45.14c.1.03.22.04.35.03h.06s.03.05.03.05c.02.04.04.08.06.12.05.1.11.19.18.27.06.07.12.13.18.17.02.02.05.03.07.04l.11.06-.09.08c-.09.08-.2.15-.31.2l-.09.04-.03-.09s-.01-.04-.02-.06c0,0,0-.02-.01-.03h0c-.03-.06-.06-.12-.09-.18-.29.07-.59.02-.82-.14.18.22.45.36.76.36v.17s-.09,0-.14,0c-.43,0-.82-.26-.98-.66Zm4.96,1.3c-.12.26-.34.45-.61.55-.02,0-.05.02-.08.02.25,1.15.18,2.04-.22,2.18-.4.15-1.03-.49-1.57-1.53-.02.01-.05.02-.07.03-.12.04-.25.07-.37.07-.44,0-.84-.26-1-.69,0,0,0-.02,0-.02,0,0,0,0,0,0-.07-.17-.09-.37-.09-.37,0,0,.09.2.16.33.22.44.72.66,1.15.5.45-.16.69-.68.55-1.18,0,0,0,0,0-.01-.05-.15-.27-.2-.44-.21,0,0-.02,0-.03,0h-.01c-.28-.03-.48-.15-.5-.32,0-.06,0-.12.04-.18l.08-.13v.15s0,.02,0,.04c.02.12.13.21.28.23,0-.03,0-.07.01-.1.05-.17.26-.27.5-.24.17-.18.39-.23.54-.14.03.02.05.04.07.07.1-.11.13-.25.07-.36,0-.01-.01-.02-.02-.03l-.1-.12.14.05c.07.02.12.06.15.12.09.15.02.36-.18.57,0,0,0,0,0,0,0,0-.01.01-.02.02-.12.12-.26.3-.2.45,0,0,0,0,0,.01.21.47.72.71,1.17.55.44-.16.68-.64.56-1.12-.04-.14-.11-.36-.11-.36,0,0,.12.16.19.33,0,.01,0,.02.01.03,0,0,0,.01,0,.02,0,0,0,.02,0,.03,0,0,0,0,0,.01.01.03.02.06.02.09.05.22.02.46-.08.67Zm.56-3.06c-.06-.1-.13-.2-.21-.29h.12s-.13-.06-.13-.06l.33-.08h-.32s.36-.19.36-.19l-.4.08.25-.21-.31.15.08-.11-.14.09s.04-.06.07-.09c.26-.31.6-.46.76-.33.15.13.07.49-.2.8-.08.09-.17.17-.25.24Z"/>
      </g>
    </g>
    <g>
      <path class="cls-1" d="m69.16,26.66c.47-.28,1.09-.2,1.47.22.18.2.16.51-.04.7-.2.18-.51.16-.7-.04-.18-.2-.16-.51.04-.7,0,0,0,0,0,0-.22-.17-.51-.23-.77-.18Z"/>
      <path class="cls-1" d="m69.49,27.56c.26.08.4.36.32.62-.08.26-.36.4-.62.32-.26-.08-.4-.36-.32-.62,0,0,0,0,0,0-.28-.04-.56.05-.76.23.26-.48.84-.72,1.38-.54Z"/>
      <path class="cls-1" d="m68.84,28.71c.27-.06.53.11.58.38.06.27-.11.53-.38.58-.27.06-.53-.11-.58-.38,0,0,0,0,0,0-.26.11-.46.32-.54.58-.01-.55.37-1.04.92-1.16Z"/>
      <path class="cls-1" d="m70.79,25.94c.55-.01,1.04.37,1.16.92h0c.06.27-.11.53-.38.58-.27.06-.53-.11-.58-.38-.06-.27.11-.53.38-.58,0,0,0,0,0,0-.11-.26-.32-.46-.58-.54Z"/>
      <path class="cls-1" d="m72.92,12.22c-.24-.12-.34-.42-.22-.66.12-.24.42-.34.66-.22,0,0,0,0,0,0,.08-.27.03-.56-.11-.78.43.33.58.94.33,1.45-.12.24-.42.34-.66.22Z"/>
      <path class="cls-1" d="m72.07,11.71c-.27.01-.5-.19-.52-.47-.01-.27.19-.5.47-.52,0,0,0,0,0,0-.07-.27-.25-.5-.49-.62.54.07.97.52,1,1.09.01.27-.19.5-.47.52Z"/>
      <path class="cls-1" d="m71.08,11.69c-.23.15-.53.08-.68-.14-.15-.23-.08-.53.14-.68,0,0,0,0,0,0-.19-.2-.47-.31-.74-.29.51-.21,1.1-.04,1.41.44.15.23.08.53-.14.68Z"/>
      <path class="cls-1" d="m74.08,13.23h0c-.23.15-.53.08-.68-.14-.15-.23-.08-.53.14-.68.23-.15.53-.08.68.14,0,0,0,0,0,0,.2-.19.31-.47.29-.74.21.51.04,1.1-.44,1.41Z"/>
      <path class="cls-1" d="m83.49,26.81c.45-.31,1.07-.27,1.48.12h0c.19.19.2.5,0,.7-.19.19-.5.2-.7,0-.19-.19-.2-.5,0-.7,0,0,0,0,0,0-.23-.16-.52-.2-.78-.13Z"/>
      <path class="cls-1" d="m83.63,28.64c-.26-.07-.42-.34-.35-.6,0,0,0,0,0,0-.28-.02-.55.09-.74.28.23-.5.79-.77,1.34-.63.26.07.42.34.35.6s-.34.42-.6.35Z"/>
      <path class="cls-1" d="m83.31,28.88c.26-.07.53.08.61.34.07.26-.08.53-.34.61-.26.07-.53-.08-.61-.34,0,0,0,0,0,0-.25.12-.43.35-.5.61-.05-.55.3-1.06.84-1.22Z"/>
      <path class="cls-1" d="m86.29,26.83h0c.07.26-.08.53-.34.61-.26.07-.53-.08-.61-.34-.07-.26.08-.53.34-.61,0,0,0,0,0,0-.12-.25-.35-.43-.61-.5.55-.05,1.06.3,1.22.84Z"/>
      <path class="cls-1" d="m95.13,28.01c.27.02.47.26.45.54-.02.27-.26.47-.54.45-.27-.02-.47-.26-.45-.54,0,0,0,0,0,0-.28.03-.53.17-.69.4.15-.53.66-.89,1.22-.84Z"/>
      <path class="cls-1" d="m94.75,29.28c.25-.11.54,0,.65.24.11.25,0,.54-.24.65-.25.11-.54,0-.65-.24,0,0,0,0,0,0-.23.16-.37.42-.4.69-.13-.53.12-1.1.64-1.34Z"/>
      <path class="cls-1" d="m95.75,30.45c.22.16.28.46.12.69-.16.22-.46.28-.69.12,0,0,0,0,0,0-.12.26-.11.55,0,.79-.38-.39-.44-1.01-.11-1.48.16-.22.46-.28.69-.12Z"/>
      <path class="cls-1" d="m94.61,27.21c.39-.38,1.01-.44,1.48-.11.22.16.28.46.12.69-.16.22-.46.28-.69.12-.22-.16-.28-.46-.12-.69,0,0,0,0,0,0-.26-.12-.55-.11-.79,0Z"/>
      <path class="cls-1" d="m88.5,23.36c-.33-.16-.63-.38-.87-.66-.08-.09-.16-.19-.23-.29.09,0,.17-.01.26-.01.39,0,.76.08,1.11.22.34.14.65.35.91.61.12.12.24.26.33.4-.14.01-.27.01-.41,0-.39-.02-.75-.12-1.1-.28Z"/>
      <path class="cls-1" d="m86.09,27.69c.22.04.42.11.6.22.11.06.22.12.33.16.59.14,1.34-.86,1.34-1.56,0-.53-.45-1.04-1.14-1.38-.65-.32-1.17-.95-1.17-1.74,0-.2.03-.4.09-.58.29-.18.62-.31.96-.38.52.83,1.42,1.4,2.48,1.46.2.01.39,0,.58-.02.05.08.09.17.12.26.05.12.09.24.12.36-.12.18-.24.45-.24.75,0,.83,1.45,1.58,2.79,1.58.33,0,.64-.04.88-.14.12-.05.23-.1.34-.17-.34.61-.88,1.11-1.58,1.39-.3.12-.6.19-.91.21-.02.01-.04.03-.06.04.36.45.92.74,1.54.72.11,0,.22-.02.32-.04-.45.39-1.03.63-1.67.65-.3,0-.58-.03-.85-.12.15.48.52.89,1.03,1.06.09.03.18.05.27.06-.47.18-1,.2-1.52.03-.24-.08-.46-.2-.65-.34-.02.43.16.86.52,1.15.06.05.13.09.19.13-.43,0-.86-.13-1.22-.42-.17-.13-.31-.29-.42-.46-.14.34-.13.73.08,1.07.04.06.07.11.12.16-.34-.12-.65-.35-.86-.69-.06-.1-.11-.2-.15-.3-.08.04-.17.06-.27.08-.19.04-.37.03-.55,0-.15-.03-.3-.05-.44-.06.19-.22.25-.47.25-.47,0,0-.55.45-1.18.61-.2.05-.42.06-.64.02-.91-.15-1.53-1.01-1.39-1.92.15-.91,1.01-1.53,1.92-1.39Z"/>
      <path class="cls-1" d="m69.69,28.97c-.21.9.36,1.8,1.26,2.01.31.07.62.05.9-.04h0s.04-.01.06-.02c.56-.2,1.03-.6,1.03-.6,0,0-.05.23-.21.44.36-.03.72,0,1.07.07h0s.07.01.11.02c.54.07,1.05-.2,1.32-.65.02.05.05.11.08.16.22.38.56.64.94.78-.05-.06-.09-.12-.13-.18-.22-.38-.23-.82-.07-1.19.12.19.27.37.45.52.4.33.88.49,1.35.49-.07-.04-.14-.09-.21-.15-.4-.33-.58-.81-.55-1.29.21.16.45.3.71.39.57.2,1.16.19,1.69,0-.1-.02-.2-.04-.29-.08-.57-.2-.97-.66-1.13-1.2.3.1.62.15.95.15.71,0,1.36-.26,1.87-.68-.12.02-.24.03-.36.03-.71,0-1.34-.34-1.73-.87.37-.01.74-.08,1.11-.22.78-.29,1.4-.84,1.79-1.51-.12.07-.25.13-.38.18-.81.3-1.67.16-2.32-.31.02,0,.04,0,.06,0,3.47,0,5.38-1.81,7.05-2.68.46-.26.99-.41,1.55-.41,1.28,0,2.38.77,2.86,1.87.04.1.08.19.09.24.02.06.04.14.07.24,0,.02.01.04.01.06.02.05.04.11.06.17.03.08.07.17.13.26.35.64,1.06,1.36,2.03,1.36,1.76,0,1.73-1.27,2.67-1.27,1.27,0,2.54,2.05,1.31,2.63-.07.04-.15.07-.22.1h0c-.07.03-.13.06-.2.1-.8.46-1.08,1.49-.61,2.29.46.8,1.49,1.08,2.29.61.33-.19.57-.48.71-.81.23-.61.17-1.33.17-1.33,0,0,.21.24.27.57.15-.19.32-.37.52-.52.31-.24.51-.62.51-1.05,0-.29-.09-.56-.25-.78.27.07.56.07.85,0,.39-.1.71-.34.93-.64-.06.03-.12.05-.19.07-.39.1-.79,0-1.08-.23.2-.06.4-.15.58-.28.39-.27.65-.66.77-1.09-.06.06-.12.11-.18.15-.39.27-.87.32-1.28.17.2-.15.38-.33.53-.54.32-.46.45-.99.41-1.51-.04.08-.09.17-.14.24-.32.46-.83.7-1.35.71.16-.24.29-.51.36-.81.17-.64.1-1.28-.15-1.84-.01.11-.03.22-.06.33-.17.64-.63,1.11-1.21,1.33.08-.33.11-.68.08-1.04-.07-.77-.4-1.46-.91-1.97.03.12.06.25.07.38.1,1.39-1.15,2.72-3.53,2.72-.99,0-1.81-1.1-2.32-2,.28,0,.56,0,.84,0,.51,0,1.03,0,1.54,0,.32,0,.63.01.95-.03.35-.05.7-.16,1.02-.32.73-.37,1.29-1.01,1.57-1.77.32-.86.27-1.88-.19-2.69-.18-.31-.41-.58-.69-.81-.57-.47-1.28-.77-2.03-.78-.72-.01-1.41.27-2.04.61-.62.34-1.2.74-1.81,1.1-.6.36-1.28.75-2.01.68-1.05-.1-1.81-1.14-1.68-2.17.05-.4.24-.79.52-1.08.29-.3.67-.5,1.07-.56.16,0,.31-.02.48.04.16.06.31.16.43.29.28.31.36.76.25,1.15-.11.38-.38.69-.73.87-.28.12-.69.17-.69.17,0,0,.13.02.25.03.03,0,.07,0,.1,0,.02,0,.03,0,.04,0,0,0,0,0,0,0,.13,0,.27-.01.4-.05.57-.14,1.04-.57,1.24-1.12.09-.25.12-.5.11-.76.22.1.45.18.69.24.72.19,1.43.18,2.02.01-.12-.02-.24-.04-.37-.07-.75-.19-1.34-.63-1.62-1.14.19-.05.38-.11.55-.21.34-.19.61-.49.77-.85.06-.15.11-.32.12-.48,0-.01,0-.02,0-.03h0c0-.07,0-.15,0-.22,0-.35-.05-.55-.05-.55,0,0-.01.38-.08.63h0c-.19.59-.74,1.01-1.36,1-.33,0-.67-.07-.99-.11-.36-.05-.72-.11-1.08-.16-.69-.1-1.46.16-2.02.53-.52.34-.93.83-1.19,1.39-.59,1.27-.28,2.8.74,3.79.65.64,1.56.96,2.47.92.73-.04,1.43-.34,2.07-.68.61-.33,1.19-.72,1.79-1.07.64-.37,1.35-.74,2.09-.45.71.29,1.04,1.08.73,1.78-.22.49-.67.79-1.2.79-1.75,0-3.5,0-5.24,0h-5.08c-1.21,0-1.48-.91-1.54-1.46-.21.97-1.06,1.67-1.06,1.67l-.03-.41c-.48,1.39-1.77,2.03-1.77,2.03l.15-.73s.02-.08.02-.18c-.31,1.2-1.59,1.54-1.59,1.54l.25-.64s.03-.05.04-.09c-.08.12-.18.25-.29.38-.47.55-.93.82-1.39.82-.13,0-.25-.02-.37-.07-.36-.13-.81-.51-.86-1.55,0-.1,0-.2,0-.29-2.42-.05-4.06-2.83-3.79-4.82-.39.42-.99.28-.99.28,0,0,.69-.31,1.12-.82h0c.26-.34.4-.79.33-1.26-.13-.92-.98-1.55-1.9-1.42-.84.12-1.44.85-1.43,1.67h0c0,.58-.14,1.15-.43,1.66-.09.15-.15.32-.17.51-.07.55.21,1.06.66,1.32,0,0,0,.02,0,.03-.06,0-.11.02-.17.03-.42.1-.78.34-1.02.67.07-.03.14-.05.21-.07.42-.1.83.02,1.14.27,0,0,0,.01,0,.02-.21.06-.42.15-.62.28-.43.28-.72.69-.86,1.15.06-.06.13-.11.2-.16.43-.28.95-.32,1.39-.15-.22.15-.42.34-.58.57-.36.48-.52,1.06-.49,1.62.05-.09.1-.18.16-.26.36-.48.92-.73,1.48-.72-.18.26-.32.54-.42.86-.2.68-.15,1.38.11,1.99.01-.12.04-.23.07-.35.2-.67.7-1.16,1.31-1.38,0,0,.02.02.02.03-.09.34-.13.71-.11,1.08.05.84.39,1.58.92,2.15-.03-.13-.05-.27-.06-.42-.04-.66.18-1.28.58-1.74.86.52,1.79.78,2.64.81-.6,2.84-2.86,4.76-3.65,4.55-.04-.02-.09-.04-.13-.06h0c-.11-.05-.23-.09-.35-.12-.9-.21-1.8.36-2.01,1.26Zm20.2-16.43s1.72.26,2.75-.25c0,0-.32.36-1.19.45,0,0,.13.3.39.56.26.27.57.51.68.53-1.14-.21-1.66-.57-1.66-.57.01.14.03.79-.06,1.17.14-1.22-.92-1.9-.92-1.9Z"/>
      <g>
        <path class="cls-1" d="m79.51,15.97c0,.06,0,.12,0,.18-.38,1.01-.72,1.88-.75,1.87-.03,0,.27-.9.63-1.91.04-.04.08-.09.12-.13Z"/>
        <path class="cls-1" d="m76.5,15.34s-1.15.84-.76,2.82c0,0,.46-.86.79-.33,0,0-.56.77-.27,1.82,0,0,.07-.57.62-.47,0,0-.4,1.98.61,2.35,1.01.37,1.98-1.41,1.98-1.41.48.28.17.76.17.76.9-.62.96-1.57.96-1.57.59-.2.39.76.39.76,1.58-1.27,1.23-2.65,1.23-2.65.67-.05.49.81.49.81.61-.68.55-1.57.43-2.13.04-.09.08-.19.12-.28.06-.16.1-.32.14-.48.78-.14,1.34-.47,1.33-.85,0-.26-.3-.48-.74-.62-.37-.12-.67-.38-.83-.73-.08-.17-.16-.33-.26-.48-.07-.1-.06-.23.01-.33l.22-.28-.48.07c-.11.02-.21-.02-.29-.09-.01-.01-.03-.02-.04-.04-.06-.06-.08-.14-.06-.22l.14-.43-.4.21c-.1.05-.21.05-.31,0-.02-.01-.04-.02-.06-.03-.13-.07-.21-.2-.22-.35v-.44s-.31.33-.31.33c-.1.11-.25.16-.39.13-.02,0-.04,0-.06-.01-.11-.02-.2-.09-.24-.19l-.17-.42-.17.42c-.03.08-.1.13-.19.13-.02,0-.04,0-.05,0-.11,0-.21-.04-.28-.12l-.32-.36v.36c-.02.12-.1.23-.21.26-.18.05-.35.12-.51.2-.35.17-.75.18-1.11.03-.43-.18-.79-.19-.96,0-.25.28-.04.89.47,1.5-.08.15-.15.3-.2.46-.04.1-.07.19-.09.29-.45.35-1.07.99-1.04,1.91,0,0,.42-.77.9-.31Zm6.93-.3c.01-.12.02-.24.03-.35l.1.06-.07-.12.3.16-.24-.22.4.09-.36-.19h.32s-.33-.09-.33-.09l.13-.04-.17-.02s.07-.02.11-.02c.4-.07.76.03.79.23.04.2-.26.42-.66.49-.12.02-.24.03-.35.02Zm-4.17-.82h-.12c-.12,0-.25,0-.37-.05l-.09-.03.04-.09s.02-.04.02-.06c0,0,0-.02,0-.03h0c.02-.07.04-.13.04-.2-.26-.13-.46-.37-.54-.63,0,.28.12.56.35.77l-.1.14s-.08-.06-.12-.09c-.33-.28-.47-.73-.33-1.13h0s0-.01,0-.01c.01-.03.02-.06.04-.09l.09-.19.07.19s.02.03.03.05c0,0,0,0,.01.01.01.01.03.02.05.03,0,0,.01,0,.02,0,.02,0,.03,0,.05.01.02,0,.03,0,.05,0,.01,0,.02,0,.03-.01h.03s.03,0,.03,0c.03,0,.05.02.08.03.04.02.08.04.12.07l-.07-.34.26.4c.06.09.14.17.25.25l.05.04-.02.06s-.02.09-.03.13c-.02.11-.04.22-.04.32,0,.09,0,.17.03.24,0,.03.02.05.02.08l.05.11Zm2.39.93s-.1,0-.15,0v-.17c.32,0,.59-.14.77-.36-.23.15-.53.21-.82.14-.04.06-.07.11-.09.18h0s0,.02-.01.03c0,.02-.01.04-.02.06l-.03.09-.09-.04c-.12-.05-.22-.12-.31-.2l-.09-.08.11-.06s.04-.03.07-.04c.06-.04.12-.1.18-.17.07-.08.13-.17.18-.27.02-.04.04-.08.06-.12l.03-.06h.06c.13.02.25.01.35-.02l.45-.14-.27.21s.09.01.13.02c.03,0,.05.02.08.02h.03s.02.04.02.04c0,.01.01.02.02.03.01.01.02.03.04.04.01,0,.03.02.05.02,0,0,.01,0,.02,0,.02,0,.04,0,.06,0,0,0,.01,0,.02,0,.02,0,.04,0,.05-.02l.18-.1-.05.2s-.02.06-.03.09c0,0,0,0,0,.01h0c-.15.41-.54.66-.98.66Zm-4.07-.03s.01-.05.02-.09c0,0,0,0,0-.01,0,0,0-.02,0-.03,0,0,0-.01,0-.02,0-.01,0-.02.01-.03.07-.17.19-.33.19-.33,0,0-.07.21-.11.36-.12.48.13.97.56,1.12.45.16.97-.08,1.17-.55,0,0,0,0,0-.01.05-.15-.08-.33-.2-.45,0,0-.01-.01-.02-.02,0,0,0,0,0,0-.2-.2-.27-.42-.18-.57.03-.05.08-.09.15-.12l.14-.05-.1.12s-.02.02-.02.03c-.06.1-.03.25.07.36.02-.03.04-.05.07-.07.15-.1.37-.04.54.14.24-.03.45.07.5.24,0,.03.01.06.01.1.15-.02.26-.11.28-.23,0-.01,0-.02,0-.04v-.15s.07.13.07.13c.04.06.05.12.04.18-.03.17-.22.29-.5.32h-.01s-.02,0-.03,0c-.17.01-.39.06-.44.21,0,0,0,0,0,.01-.15.49.09,1.01.55,1.18.44.16.93-.06,1.15-.5.07-.13.16-.33.16-.33,0,0-.02.2-.09.37,0,0,0,0,0,0,0,0,0,.02,0,.02-.16.43-.56.69-1,.69-.12,0-.25-.02-.37-.07-.03,0-.05-.02-.07-.03-.55,1.04-1.17,1.68-1.57,1.53-.4-.15-.47-1.04-.22-2.18-.03,0-.05-.02-.08-.02-.27-.1-.49-.29-.61-.55-.1-.21-.13-.45-.08-.67Zm-.74-2.62c-.26-.31-.35-.67-.2-.8.15-.13.49.02.76.33.02.03.05.06.07.09l-.14-.09.08.11-.31-.15.25.21-.4-.08.36.18h-.32s.33.09.33.09l-.13.04h.12c-.07.11-.14.2-.21.3-.09-.06-.17-.14-.25-.24Z"/>
      </g>
    </g>
    <path class="cls-1" d="m103.03,7.69v83.57c0,1.09-.09,2.2-.28,3.3l-.03.2c-.97,5.35-4.22,10.8-9.56,16.04-1.81,1.77-3.84,3.51-6.06,5.2-4.44,3.38-9.71,6.64-15.7,9.73-.56.29-1.09.56-1.6.81h-.01s-.05.03-.05.03c-7.41,3.7-13.35,5.87-14,6.1l-.37.13-.37-.13c-.65-.23-6.59-2.4-14-6.1l-.05-.03h-.01c-.52-.27-1.04-.53-1.6-.82-5.99-3.09-11.26-6.36-15.7-9.73-2.23-1.69-4.26-3.44-6.06-5.2-5.34-5.23-8.59-10.68-9.56-16.04l-.03-.2c-.19-1.1-.28-2.21-.28-3.3V7.69h95.34m1.54-1.54H6.15v85.11c0,1.18.1,2.37.3,3.56l.03.2h0s0,.02,0,.02c.26,1.43.67,2.88,1.23,4.31.55,1.42,1.26,2.85,2.1,4.26.83,1.4,1.82,2.81,2.93,4.19,1.11,1.37,2.36,2.75,3.73,4.1h0s0,0,0,0c1.84,1.8,3.93,3.6,6.21,5.33,4.5,3.42,9.85,6.74,15.92,9.88h0s0,0,0,0c.51.26,1.02.52,1.62.82h.01s.02.01.02.01h.02s.04.03.04.03c7.48,3.74,13.49,5.93,14.15,6.17l.37.13.52.19.52-.19.37-.13c.66-.24,6.68-2.43,14.15-6.17l.04-.02h.02s.02-.02.02-.02h.01s0,0,0,0c.6-.3,1.11-.56,1.62-.82h0s0,0,0,0c6.07-3.13,11.42-6.46,15.92-9.88,2.28-1.73,4.37-3.52,6.21-5.33h0s0,0,0,0c1.37-1.34,2.63-2.72,3.73-4.1,1.11-1.38,2.1-2.79,2.93-4.19.84-1.41,1.55-2.85,2.1-4.26.56-1.43.97-2.89,1.23-4.31h0s0-.02,0-.02l.03-.2c.2-1.18.3-2.38.3-3.56V6.15h0Z"/>
    <path class="cls-1" d="m108.19,2.52v88.74c0,1.38-.12,2.78-.35,4.16l-.04.23v.03c-.6,3.27-1.87,6.57-3.79,9.79-1.83,3.07-4.27,6.1-7.24,9.02h0c-1.95,1.91-4.15,3.8-6.55,5.62-4.66,3.55-10.2,6.98-16.45,10.21h0c-.52.27-1.04.53-1.64.84l-.07.03-.07.03c-7.65,3.82-13.83,6.07-14.51,6.32l-2.12.76-2.12-.76c-.68-.24-6.86-2.5-14.51-6.32l-.07-.03-.07-.04c-.6-.3-1.12-.57-1.64-.83h0c-6.25-3.23-11.79-6.67-16.45-10.21-2.4-1.82-4.6-3.71-6.55-5.62h0c-2.98-2.92-5.41-5.95-7.24-9.02-1.92-3.22-3.19-6.51-3.79-9.79v-.03s-.04-.23-.04-.23c-.23-1.38-.35-2.78-.35-4.16V2.52h105.67m2.52-2.52H0v91.26c0,1.52.13,3.06.39,4.58l.04.23h0s0,.03,0,.03v.03c.65,3.57,2.03,7.15,4.11,10.63,1.94,3.25,4.51,6.46,7.64,9.52h0s0,0,0,0c2.03,1.98,4.31,3.94,6.79,5.82,4.78,3.63,10.44,7.15,16.82,10.45h0s0,0,0,0h0c.52.27,1.05.54,1.66.84l.07.03h.03s.03.03.03.03l.04.02c7.77,3.88,14.07,6.17,14.76,6.42l2.12.76.85.31.85-.31,2.12-.76c.69-.25,6.99-2.55,14.76-6.42l.04-.02h.03s.03-.03.03-.03l.06-.03h0c.61-.31,1.14-.58,1.66-.85h0s0,0,0,0h0s0,0,0,0c6.38-3.3,12.04-6.81,16.82-10.45,2.48-1.88,4.76-3.84,6.79-5.82h0s0,0,0,0c3.13-3.07,5.7-6.27,7.64-9.53,2.07-3.48,3.45-7.06,4.1-10.63v-.03s0-.01,0-.01h0s.04-.24.04-.24c.26-1.52.39-3.06.39-4.58V0h0Z"/>
    <g>
      <path class="cls-1" d="m67.27,29.33V11.83l-.3-.3-1.36.39-.43.15-.68.22-.37-.36s-.13-.03-.19-.06c-4.73-2.02-7.95.81-8.62,1.48-.29-.29-1.06-1-2.24-1.54-1.38-.63-3.61-1.13-6.39.05-.05.02-.16.06-.16.06l-.38.38-1.05-.34-.84-.26-.54-.16-.28.28v17.5l9.66,1.29c-.03.1-.04.2-.04.3,0,.88,1.01,1.6,2.27,1.6s2.27-.71,2.27-1.6c0-.1-.01-.2-.04-.29h.03s9.7-1.3,9.7-1.3Zm-23.28-.25l-.27-.04V11.9l.27.07v17.11Zm22.72-17.11l.27-.07v17.15l-.27.04V11.97Zm-11.22,1.71c.4-.42,3.5-3.47,8.21-1.52l.04,14.35c-.93-.19-4.72-.78-8.26,1.39v-14.22Zm-8.56-1.52c3.81-1.57,6.57.12,7.7,1.05v13.75l.52.93h0c-2.11-1.29-4.31-1.6-5.94-1.6-1.1,0-1.94.14-2.32.22l.04-14.35Zm-.87.98l.13-.29.4-.39-.04,14.28s.01.07.03.1l-.53.48h-.02s.04-14.17.04-14.17Zm11.25,16.59l-.47.13s1.06,1.43-1.52,1.44c-2.58,0-1.52-1.44-1.52-1.44l-.47-.13-8.52-1.46v-15.95s.99.32.99.32l-.13.13s-.06.09-.06.15v14.56c0,.1.07.19.17.21h.06s8.15,1.47,8.15,1.47c.03.11.08.24.16.36.02.05.05.11.09.16.12.16.3.27.53.34,0,0,.01,0,.02,0,.07.02.13.04.2.05.11.02.22.03.34.03.09.01.38.03.66-.11,0,0,.01,0,.02,0,.01,0,.03-.01.04-.02.15-.07.28-.16.37-.29.14-.19.17-.41.17-.57l8.28-1.42c.1-.02.17-.1.17-.21v-14.56s0,0,0-.01c0-.02,0-.05-.01-.07,0,0,0-.01,0-.02,0-.02-.02-.03-.03-.05l-.15-.16.91-.29v.26s0,15.69,0,15.69l-8.45,1.46Z"/>
      <g>
        <path class="cls-1" d="m58.95,14.54v8.71c.33-.06.66-.11.97-.14v-8.71c-.34.02-.66.07-.97.14Z"/>
        <path class="cls-1" d="m57.33,16.68v1.01c1.71-.61,3.34-.7,4.52-.64v-.97c-1.88-.37-3.42.05-4.52.6Z"/>
      </g>
    </g>
  </g>
  <g>
    <path class="cls-1" d="m128.81,32.46c0-7.93,0-9.35-.1-10.98-.1-1.73-.51-2.54-2.19-2.9-.41-.1-1.27-.15-1.73-.15-.2,0-.41-.1-.41-.3,0-.3.25-.41.81-.41,2.29,0,5.39.15,5.84.15s3.51-.15,5.03-.15c.56,0,.81.1.81.41,0,.2-.2.3-.41.3-.36,0-.66.05-1.27.15-1.37.2-1.78,1.12-1.88,2.9-.1,1.63-.1,3.05-.1,10.98v7.11c0,7.32,1.63,10.47,3.81,12.55,2.49,2.34,4.78,2.79,7.67,2.79,3.1,0,6.15-1.47,7.98-3.66,2.34-2.9,2.95-7.22,2.95-12.45v-6.35c0-7.93,0-9.35-.1-10.98-.1-1.73-.51-2.54-2.19-2.9-.41-.1-1.27-.15-1.73-.15-.2,0-.41-.1-.41-.3,0-.3.25-.41.81-.41,2.29,0,5.08.15,5.39.15.36,0,2.74-.15,4.27-.15.56,0,.81.1.81.41,0,.2-.2.3-.41.3-.36,0-.66.05-1.27.15-1.37.3-1.78,1.12-1.88,2.9-.1,1.63-.1,3.05-.1,10.98v5.44c0,5.49-.61,11.59-4.67,15.19-3.66,3.25-7.47,3.76-10.47,3.76-1.73,0-6.86-.2-10.47-3.61-2.49-2.39-4.42-5.94-4.42-13.36v-7.42Z"/>
    <path class="cls-1" d="m171.29,49.22c.1,4.17.61,5.49,1.98,5.89.97.25,2.08.3,2.54.3.25,0,.41.1.41.3,0,.3-.3.41-.91.41-2.9,0-4.93-.15-5.39-.15s-2.59.15-4.88.15c-.51,0-.81-.05-.81-.41,0-.2.15-.3.41-.3.41,0,1.32-.05,2.08-.3,1.27-.36,1.52-1.83,1.52-6.45l.05-29.12c0-1.98.15-2.54.56-2.54s1.27,1.12,1.78,1.63c.76.86,8.33,9.04,16.16,17.43,5.03,5.39,10.57,11.59,12.2,13.26l-.56-25.81c-.05-3.3-.41-4.42-1.98-4.83-.91-.2-2.08-.25-2.49-.25-.36,0-.41-.15-.41-.36,0-.3.41-.36,1.02-.36,2.29,0,4.73.15,5.28.15s2.24-.15,4.32-.15c.56,0,.91.05.91.36,0,.2-.2.36-.56.36-.25,0-.61,0-1.22.15-1.68.36-1.88,1.47-1.88,4.52l-.1,29.78c0,3.35-.1,3.61-.46,3.61-.41,0-1.02-.56-3.71-3.25-.56-.51-7.88-7.98-13.26-13.77-5.89-6.35-11.64-12.75-13.26-14.58l.66,24.34Z"/>
    <path class="cls-1" d="m220.9,41.4c0,4.88,0,8.89.25,11.03.15,1.47.46,2.59,1.98,2.79.71.1,1.83.2,2.29.2.3,0,.41.15.41.3,0,.25-.25.41-.81.41-2.79,0-6-.15-6.25-.15s-3.46.15-4.98.15c-.56,0-.81-.1-.81-.41,0-.15.1-.3.41-.3.46,0,1.07-.1,1.52-.2,1.02-.2,1.27-1.32,1.47-2.79.25-2.13.25-6.15.25-11.03v-8.94c0-7.93,0-9.35-.1-10.98-.1-1.73-.61-2.59-1.73-2.85-.56-.15-1.22-.2-1.57-.2-.2,0-.41-.1-.41-.3,0-.3.25-.41.81-.41,1.68,0,4.88.15,5.13.15s3.46-.15,4.98-.15c.56,0,.81.1.81.41,0,.2-.2.3-.41.3-.36,0-.66.05-1.27.15-1.37.25-1.78,1.12-1.88,2.9-.1,1.63-.1,3.05-.1,10.98v8.94Z"/>
    <path class="cls-1" d="m250.02,49.94c2.95-6.81,9.76-24.54,10.87-28.2.25-.76.46-1.47.46-1.93,0-.41-.15-.91-.66-1.17-.61-.2-1.37-.2-1.93-.2-.3,0-.56-.05-.56-.3,0-.3.3-.41,1.12-.41,2.03,0,4.37.15,4.98.15.3,0,2.49-.15,3.96-.15.56,0,.86.1.86.36s-.2.36-.61.36c-.36,0-1.47,0-2.44.61-.66.46-1.42,1.32-2.79,4.78-.56,1.42-3.1,7.52-5.69,13.77-3.1,7.42-5.39,12.91-6.55,15.4-1.42,3.05-1.63,3.86-2.13,3.86-.61,0-.86-.71-1.83-3.15l-12.45-31.15c-1.12-2.85-1.88-3.4-3.66-3.91-.76-.2-1.63-.2-1.93-.2s-.41-.15-.41-.36c0-.3.51-.36,1.32-.36,2.44,0,5.34.15,5.95.15.51,0,2.79-.15,4.73-.15.91,0,1.37.1,1.37.36s-.15.36-.51.36c-.56,0-1.47.05-1.93.25-.56.25-.66.66-.66,1.02,0,.66.61,2.24,1.37,4.22l9.76,26.02Z"/>
    <path class="cls-1" d="m276.69,32.46c0-7.93,0-9.35-.1-10.98-.1-1.73-.51-2.54-2.18-2.9-.41-.1-1.27-.15-1.73-.15-.2,0-.41-.1-.41-.3,0-.3.25-.41.81-.41,1.17,0,2.54,0,3.66.05l2.08.1c.36,0,10.47,0,11.64-.05.97-.05,1.78-.15,2.19-.25.25-.05.46-.25.71-.25.15,0,.2.2.2.46,0,.36-.25.97-.41,2.39-.05.51-.15,2.74-.25,3.35-.05.25-.15.56-.36.56-.3,0-.41-.25-.41-.66,0-.36-.05-1.22-.3-1.83-.36-.81-.86-1.42-3.61-1.73-.86-.1-6.4-.15-6.96-.15-.2,0-.3.15-.3.51v14.02c0,.36.05.51.3.51.66,0,6.91,0,8.08-.1,1.22-.1,1.93-.2,2.39-.71.36-.41.56-.66.76-.66.15,0,.25.1.25.41s-.25,1.17-.41,2.85c-.1,1.02-.2,2.9-.2,3.25,0,.41,0,.97-.36.97-.25,0-.36-.2-.36-.46,0-.51,0-1.02-.2-1.68-.2-.71-.66-1.58-2.64-1.78-1.37-.15-6.4-.25-7.27-.25-.25,0-.36.15-.36.36v4.47c0,1.73-.05,7.62,0,8.69.15,3.51.91,4.17,5.89,4.17,1.32,0,3.56,0,4.88-.56,1.32-.56,1.93-1.58,2.29-3.66.1-.56.2-.76.46-.76.3,0,.3.41.3.76,0,.41-.41,3.86-.66,4.93-.36,1.32-.76,1.32-2.74,1.32-3.81,0-6.61-.1-8.59-.15-1.98-.1-3.2-.15-3.96-.15-.1,0-.97,0-2.03.05-1.02,0-2.18.1-2.95.1-.56,0-.81-.1-.81-.41,0-.15.1-.3.41-.3.46,0,1.07-.1,1.52-.2,1.02-.2,1.27-1.32,1.47-2.79.25-2.13.25-6.15.25-11.03v-8.94Z"/>
    <path class="cls-1" d="m305.48,32.46c0-7.93,0-9.35-.1-10.98-.1-1.73-.51-2.54-2.18-2.9-.41-.1-1.27-.15-1.73-.15-.2,0-.41-.1-.41-.3,0-.3.25-.41.81-.41,2.29,0,5.49.15,5.74.15.56,0,4.42-.15,6-.15,3.2,0,6.61.3,9.3,2.24,1.27.91,3.51,3.4,3.51,6.91,0,3.76-1.58,7.52-6.15,11.74,4.17,5.34,7.62,9.86,10.57,13.01,2.74,2.9,4.93,3.46,6.2,3.66.97.15,1.68.15,1.98.15.25,0,.46.15.46.3,0,.3-.3.41-1.22.41h-3.61c-2.85,0-4.12-.25-5.44-.97-2.18-1.17-3.96-3.66-6.86-7.47-2.13-2.79-4.52-6.2-5.54-7.52-.2-.2-.36-.3-.66-.3l-6.25-.1c-.25,0-.36.15-.36.41v1.22c0,4.88,0,8.89.25,11.03.15,1.47.46,2.59,1.98,2.79.71.1,1.83.2,2.29.2.3,0,.41.15.41.3,0,.25-.25.41-.81.41-2.79,0-6-.15-6.25-.15-.05,0-3.25.15-4.78.15-.56,0-.81-.1-.81-.41,0-.15.1-.3.41-.3.46,0,1.07-.1,1.52-.2,1.02-.2,1.27-1.32,1.47-2.79.25-2.13.25-6.15.25-11.03v-8.94Zm4.07,4.42c0,.25.1.46.36.61.76.46,3.1.81,5.34.81,1.22,0,2.64-.15,3.81-.97,1.78-1.22,3.1-3.96,3.1-7.83,0-6.35-3.35-10.16-8.79-10.16-1.52,0-2.9.15-3.4.3-.25.1-.41.3-.41.61v16.62Z"/>
    <path class="cls-1" d="m343.45,55.47c-.71-.36-.76-.56-.76-1.93,0-2.54.2-4.57.25-5.39.05-.56.15-.81.41-.81.3,0,.36.15.36.56,0,.46,0,1.17.15,1.88.76,3.76,4.12,5.18,7.52,5.18,4.88,0,7.27-3.51,7.27-6.76,0-3.51-1.47-5.54-5.84-9.15l-2.29-1.88c-5.39-4.42-6.61-7.57-6.61-11.03,0-5.44,4.07-9.15,10.52-9.15,1.98,0,3.45.2,4.73.51.97.2,1.37.25,1.78.25s.51.1.51.36-.2,1.93-.2,5.39c0,.81-.1,1.17-.36,1.17-.3,0-.36-.25-.41-.66-.05-.61-.36-1.98-.66-2.54-.3-.56-1.68-2.69-6.35-2.69-3.51,0-6.25,2.19-6.25,5.89,0,2.9,1.32,4.73,6.2,8.54l1.42,1.12c6,4.73,7.42,7.88,7.42,11.94,0,2.08-.81,5.95-4.32,8.43-2.18,1.52-4.93,2.13-7.67,2.13-2.39,0-4.73-.36-6.81-1.37Z"/>
    <path class="cls-1" d="m378.73,41.4c0,4.88,0,8.89.25,11.03.15,1.47.46,2.59,1.98,2.79.71.1,1.83.2,2.29.2.3,0,.41.15.41.3,0,.25-.25.41-.81.41-2.79,0-6-.15-6.25-.15s-3.45.15-4.98.15c-.56,0-.81-.1-.81-.41,0-.15.1-.3.41-.3.46,0,1.07-.1,1.52-.2,1.02-.2,1.27-1.32,1.47-2.79.25-2.13.25-6.15.25-11.03v-8.94c0-7.93,0-9.35-.1-10.98-.1-1.73-.61-2.59-1.73-2.85-.56-.15-1.22-.2-1.58-.2-.2,0-.41-.1-.41-.3,0-.3.25-.41.81-.41,1.68,0,4.88.15,5.13.15s3.46-.15,4.98-.15c.56,0,.81.1.81.41,0,.2-.2.3-.41.3-.36,0-.66.05-1.27.15-1.37.25-1.78,1.12-1.88,2.9-.1,1.63-.1,3.05-.1,10.98v8.94Z"/>
    <path class="cls-1" d="m405.42,41.4c0,4.88,0,8.89.25,11.03.15,1.47.46,2.59,1.98,2.79.71.1,1.83.2,2.29.2.3,0,.41.15.41.3,0,.25-.25.41-.81.41-2.79,0-6-.15-6.25-.15s-3.46.15-4.98.15c-.56,0-.81-.1-.81-.41,0-.15.1-.3.41-.3.46,0,1.07-.1,1.52-.2,1.02-.2,1.27-1.32,1.47-2.79.25-2.13.25-6.15.25-11.03v-21.49l-7.52.1c-3.15.05-4.37.41-5.18,1.63-.56.86-.71,1.22-.86,1.57-.15.41-.3.51-.51.51-.15,0-.25-.15-.25-.46,0-.51,1.02-4.88,1.12-5.28.1-.3.3-.97.51-.97.36,0,.86.51,2.24.61,1.47.15,3.4.25,4.01.25h19.06c1.63,0,2.79-.1,3.61-.25.76-.1,1.22-.25,1.42-.25.25,0,.25.3.25.61,0,1.52-.15,5.03-.15,5.59,0,.46-.15.66-.36.66-.25,0-.36-.15-.41-.86l-.05-.56c-.15-1.52-1.37-2.69-6.25-2.79l-6.4-.1v21.49Z"/>
    <path class="cls-1" d="m439.09,42.97c0-2.74-.51-3.86-1.17-5.34-.36-.81-7.16-11.99-8.94-14.63-1.27-1.88-2.54-3.15-3.46-3.76-.76-.51-1.73-.81-2.18-.81-.25,0-.51-.1-.51-.36,0-.2.2-.36.66-.36.97,0,4.78.15,5.03.15.36,0,2.29-.15,4.27-.15.56,0,.66.15.66.36s-.3.25-.76.46c-.41.2-.66.51-.66.91,0,.61.25,1.22.66,1.98.81,1.47,8.43,14.58,9.35,16.06.97-2.13,7.42-13.26,8.43-14.94.66-1.07.86-1.93.86-2.59,0-.71-.2-1.27-.81-1.42-.46-.15-.76-.25-.76-.51,0-.2.3-.3.81-.3,1.32,0,2.95.15,3.35.15.3,0,3.96-.15,4.93-.15.36,0,.66.1.66.3,0,.25-.25.41-.66.41-.56,0-1.52.2-2.34.71-1.02.61-1.58,1.22-2.69,2.59-1.68,2.03-8.79,13.97-9.7,16.16-.76,1.83-.76,3.4-.76,5.08v4.37c0,.81,0,2.95.15,5.08.1,1.47.56,2.59,2.08,2.79.71.1,1.83.2,2.29.2.3,0,.41.15.41.3,0,.25-.25.41-.81.41-2.79,0-6-.15-6.25-.15s-3.46.15-4.98.15c-.56,0-.81-.1-.81-.41,0-.15.1-.3.41-.3.46,0,1.07-.1,1.52-.2,1.02-.2,1.47-1.32,1.58-2.79.15-2.13.15-4.27.15-5.08v-4.37Z"/>
    <path class="cls-1" d="m167.49,109.36h.2c1.37-4.67,6.05-19.41,7.83-25.91.51-1.88.56-2.59.56-3.25,0-.91-.56-1.52-2.9-1.52-.25,0-.46-.15-.46-.36,0-.25.25-.36.86-.36,2.59,0,4.73.15,5.18.15.36,0,2.54-.15,4.12-.15.46,0,.71.1.71.3,0,.25-.15.41-.46.41-.2,0-1.17.05-1.73.25-1.52.56-2.34,2.69-3.3,5.49-2.24,6.45-7.37,22.61-9.35,28.3-1.32,3.76-1.58,4.37-2.13,4.37-.51,0-.81-.66-1.52-2.64l-9.96-28.3h-.1c-1.83,4.88-8.79,23.53-10.62,28.25-.81,2.13-1.07,2.69-1.68,2.69-.51,0-.76-.56-1.78-4.01l-9.04-30.13c-.81-2.69-1.47-3.46-2.79-3.96-.66-.25-1.93-.3-2.29-.3-.25,0-.46-.05-.46-.36,0-.25.3-.36.81-.36,2.64,0,5.44.15,6,.15.46,0,2.69-.15,5.23-.15.71,0,.91.15.91.36,0,.3-.25.36-.51.36-.41,0-1.37,0-1.98.3-.3.15-.66.56-.66,1.22s.46,2.44.97,4.68c.76,3.25,6.05,21.9,6.81,24.59h.1l10.77-29.01c.76-2.08.97-2.34,1.27-2.34.36,0,.66.66,1.27,2.39l10.11,28.86Z"/>
    <path class="cls-1" d="m196.15,101.64c0,4.88,0,8.89.25,11.03.15,1.47.46,2.59,1.98,2.79.71.1,1.83.2,2.29.2.3,0,.41.15.41.3,0,.25-.25.41-.81.41-2.79,0-6-.15-6.25-.15s-3.46.15-4.98.15c-.56,0-.81-.1-.81-.41,0-.15.1-.3.41-.3.46,0,1.07-.1,1.52-.2,1.02-.2,1.27-1.32,1.47-2.79.25-2.13.25-6.15.25-11.03v-8.94c0-7.93,0-9.35-.1-10.98-.1-1.73-.61-2.59-1.73-2.85-.56-.15-1.22-.2-1.57-.2-.2,0-.41-.1-.41-.3,0-.3.25-.41.81-.41,1.68,0,4.88.15,5.13.15s3.46-.15,4.98-.15c.56,0,.81.1.81.41,0,.2-.2.3-.41.3-.36,0-.66.05-1.27.15-1.37.25-1.78,1.12-1.88,2.9-.1,1.63-.1,3.05-.1,10.98v8.94Z"/>
    <path class="cls-1" d="m213.4,109.46c.1,4.17.61,5.49,1.98,5.89.97.25,2.08.3,2.54.3.25,0,.41.1.41.3,0,.3-.3.41-.91.41-2.9,0-4.93-.15-5.39-.15s-2.59.15-4.88.15c-.51,0-.81-.05-.81-.41,0-.2.15-.3.41-.3.41,0,1.32-.05,2.08-.3,1.27-.36,1.52-1.83,1.52-6.45l.05-29.12c0-1.98.15-2.54.56-2.54s1.27,1.12,1.78,1.63c.76.86,8.33,9.04,16.16,17.43,5.03,5.39,10.57,11.58,12.2,13.26l-.56-25.81c-.05-3.3-.41-4.42-1.98-4.83-.91-.2-2.08-.25-2.49-.25-.36,0-.41-.15-.41-.36,0-.3.41-.36,1.02-.36,2.29,0,4.73.15,5.28.15s2.24-.15,4.32-.15c.56,0,.91.05.91.36,0,.2-.2.36-.56.36-.25,0-.61,0-1.22.15-1.68.36-1.88,1.47-1.88,4.52l-.1,29.78c0,3.35-.1,3.61-.46,3.61-.41,0-1.02-.56-3.71-3.25-.56-.51-7.88-7.98-13.26-13.77-5.89-6.35-11.64-12.75-13.26-14.58l.66,24.34Z"/>
    <path class="cls-1" d="m258.14,111.6c-4.93-4.42-6.15-10.21-6.15-15.04,0-3.4,1.17-9.35,5.69-13.87,3.05-3.05,7.67-5.44,15.5-5.44,2.03,0,4.88.15,7.37.61,1.93.36,3.56.66,5.18.76.56.05.66.25.66.56,0,.41-.15,1.02-.25,2.85-.1,1.68-.1,4.47-.15,5.23s-.15,1.07-.46,1.07c-.36,0-.41-.36-.41-1.07,0-1.98-.81-4.07-2.13-5.18-1.78-1.52-5.69-2.9-10.16-2.9-6.76,0-9.91,1.98-11.69,3.71-3.71,3.56-4.57,8.08-4.57,13.26,0,9.71,7.47,18.6,18.34,18.6,3.81,0,6.81-.46,8.84-2.54,1.07-1.12,1.73-3.35,1.88-4.27.1-.56.2-.76.51-.76.25,0,.36.36.36.76,0,.36-.61,4.78-1.12,6.5-.3.97-.41,1.07-1.32,1.47-2.03.81-5.89,1.17-9.15,1.17-7.62,0-12.75-1.88-16.77-5.49Z"/>
    <path class="cls-1" d="m327.97,101.64c0,4.88,0,8.89.25,11.03.15,1.47.46,2.59,1.98,2.79.71.1,1.83.2,2.29.2.3,0,.41.15.41.3,0,.25-.25.41-.81.41-2.79,0-6-.15-6.25-.15s-3.46.15-4.98.15c-.56,0-.81-.1-.81-.41,0-.15.1-.3.41-.3.46,0,1.07-.1,1.52-.2,1.02-.2,1.27-1.32,1.47-2.79.25-2.13.25-6.15.25-11.03v-5.34c0-.2-.15-.3-.3-.3h-21.54c-.15,0-.3.05-.3.3v5.34c0,4.88,0,8.89.25,11.03.15,1.47.46,2.59,1.98,2.79.71.1,1.83.2,2.29.2.3,0,.41.15.41.3,0,.25-.25.41-.81.41-2.79,0-6-.15-6.25-.15s-3.46.15-4.98.15c-.56,0-.81-.1-.81-.41,0-.15.1-.3.41-.3.46,0,1.07-.1,1.52-.2,1.02-.2,1.27-1.32,1.47-2.79.25-2.13.25-6.15.25-11.03v-8.94c0-7.93,0-9.35-.1-10.98-.1-1.73-.51-2.54-2.18-2.9-.41-.1-1.27-.15-1.73-.15-.2,0-.41-.1-.41-.3,0-.3.25-.41.81-.41,2.29,0,5.49.15,5.74.15s3.46-.15,4.98-.15c.56,0,.81.1.81.41,0,.2-.2.3-.41.3-.36,0-.66.05-1.27.15-1.37.25-1.78,1.12-1.88,2.9-.1,1.63-.1,3.05-.1,10.98v1.07c0,.25.15.3.3.3h21.54c.15,0,.3-.05.3-.3v-1.07c0-7.93,0-9.35-.1-10.98-.1-1.73-.51-2.54-2.18-2.9-.41-.1-1.27-.15-1.73-.15-.2,0-.41-.1-.41-.3,0-.3.25-.41.81-.41,2.29,0,5.49.15,5.74.15s3.46-.15,4.98-.15c.56,0,.81.1.81.41,0,.2-.2.3-.41.3-.36,0-.66.05-1.27.15-1.37.25-1.78,1.12-1.88,2.9-.1,1.63-.1,3.05-.1,10.98v8.94Z"/>
    <path class="cls-1" d="m343.05,92.69c0-7.93,0-9.35-.1-10.98-.1-1.73-.51-2.54-2.19-2.9-.41-.1-1.27-.15-1.73-.15-.2,0-.41-.1-.41-.3,0-.3.25-.41.81-.41,1.17,0,2.54,0,3.66.05l2.08.1c.36,0,10.47,0,11.64-.05.97-.05,1.78-.15,2.19-.25.25-.05.46-.25.71-.25.15,0,.2.2.2.46,0,.36-.25.97-.41,2.39-.05.51-.15,2.74-.25,3.35-.05.25-.15.56-.36.56-.3,0-.41-.25-.41-.66,0-.36-.05-1.22-.3-1.83-.36-.81-.86-1.42-3.61-1.73-.86-.1-6.4-.15-6.96-.15-.2,0-.3.15-.3.51v14.02c0,.36.05.51.3.51.66,0,6.91,0,8.08-.1,1.22-.1,1.93-.2,2.39-.71.36-.41.56-.66.76-.66.15,0,.25.1.25.41s-.25,1.17-.41,2.85c-.1,1.02-.2,2.9-.2,3.25,0,.41,0,.97-.36.97-.25,0-.36-.2-.36-.46,0-.51,0-1.02-.2-1.68-.2-.71-.66-1.58-2.64-1.78-1.37-.15-6.4-.25-7.27-.25-.25,0-.36.15-.36.36v4.47c0,1.73-.05,7.62,0,8.69.15,3.51.91,4.17,5.89,4.17,1.32,0,3.56,0,4.88-.56s1.93-1.58,2.29-3.66c.1-.56.2-.76.46-.76.3,0,.3.41.3.76,0,.41-.41,3.86-.66,4.93-.36,1.32-.76,1.32-2.74,1.32-3.81,0-6.61-.1-8.59-.15-1.98-.1-3.2-.15-3.96-.15-.1,0-.97,0-2.03.05-1.02,0-2.19.1-2.95.1-.56,0-.81-.1-.81-.41,0-.15.1-.3.41-.3.46,0,1.07-.1,1.52-.2,1.02-.2,1.27-1.32,1.47-2.79.25-2.13.25-6.15.25-11.03v-8.94Z"/>
    <path class="cls-1" d="m369.79,115.71c-.71-.36-.76-.56-.76-1.93,0-2.54.2-4.57.25-5.39.05-.56.15-.81.41-.81.3,0,.36.15.36.56,0,.46,0,1.17.15,1.88.76,3.76,4.12,5.18,7.52,5.18,4.88,0,7.27-3.51,7.27-6.76,0-3.51-1.47-5.54-5.84-9.15l-2.29-1.88c-5.39-4.42-6.61-7.57-6.61-11.03,0-5.44,4.07-9.15,10.52-9.15,1.98,0,3.45.2,4.73.51.97.2,1.37.25,1.78.25s.51.1.51.36-.2,1.93-.2,5.39c0,.81-.1,1.17-.36,1.17-.3,0-.36-.25-.41-.66-.05-.61-.36-1.98-.66-2.54s-1.68-2.69-6.35-2.69c-3.51,0-6.25,2.18-6.25,5.89,0,2.9,1.32,4.73,6.2,8.54l1.42,1.12c6,4.73,7.42,7.88,7.42,11.94,0,2.08-.81,5.94-4.32,8.43-2.18,1.52-4.93,2.13-7.67,2.13-2.39,0-4.73-.36-6.81-1.37Z"/>
    <path class="cls-1" d="m412.83,101.64c0,4.88,0,8.89.25,11.03.15,1.47.46,2.59,1.98,2.79.71.1,1.83.2,2.29.2.3,0,.41.15.41.3,0,.25-.25.41-.81.41-2.79,0-6-.15-6.25-.15s-3.46.15-4.98.15c-.56,0-.81-.1-.81-.41,0-.15.1-.3.41-.3.46,0,1.07-.1,1.52-.2,1.02-.2,1.27-1.32,1.47-2.79.25-2.13.25-6.15.25-11.03v-21.49l-7.52.1c-3.15.05-4.37.41-5.18,1.63-.56.86-.71,1.22-.86,1.58-.15.41-.3.51-.51.51-.15,0-.25-.15-.25-.46,0-.51,1.02-4.88,1.12-5.28.1-.3.3-.97.51-.97.36,0,.86.51,2.24.61,1.47.15,3.4.25,4.01.25h19.06c1.63,0,2.79-.1,3.61-.25.76-.1,1.22-.25,1.42-.25.25,0,.25.3.25.61,0,1.52-.15,5.03-.15,5.59,0,.46-.15.66-.36.66-.25,0-.36-.15-.41-.86l-.05-.56c-.15-1.52-1.37-2.69-6.25-2.79l-6.4-.1v21.49Z"/>
    <path class="cls-1" d="m437.12,92.69c0-7.93,0-9.35-.1-10.98-.1-1.73-.51-2.54-2.18-2.9-.41-.1-1.27-.15-1.73-.15-.2,0-.41-.1-.41-.3,0-.3.25-.41.81-.41,1.17,0,2.54,0,3.66.05l2.08.1c.36,0,10.47,0,11.64-.05.97-.05,1.78-.15,2.19-.25.25-.05.46-.25.71-.25.15,0,.2.2.2.46,0,.36-.25.97-.41,2.39-.05.51-.15,2.74-.25,3.35-.05.25-.15.56-.36.56-.3,0-.41-.25-.41-.66,0-.36-.05-1.22-.3-1.83-.36-.81-.86-1.42-3.61-1.73-.86-.1-6.4-.15-6.96-.15-.2,0-.3.15-.3.51v14.02c0,.36.05.51.3.51.66,0,6.91,0,8.08-.1,1.22-.1,1.93-.2,2.39-.71.36-.41.56-.66.76-.66.15,0,.25.1.25.41s-.25,1.17-.41,2.85c-.1,1.02-.2,2.9-.2,3.25,0,.41,0,.97-.36.97-.25,0-.36-.2-.36-.46,0-.51,0-1.02-.2-1.68-.2-.71-.66-1.58-2.64-1.78-1.37-.15-6.4-.25-7.27-.25-.25,0-.36.15-.36.36v4.47c0,1.73-.05,7.62,0,8.69.15,3.51.91,4.17,5.89,4.17,1.32,0,3.56,0,4.88-.56s1.93-1.58,2.29-3.66c.1-.56.2-.76.46-.76.3,0,.3.41.3.76,0,.41-.41,3.86-.66,4.93-.36,1.32-.76,1.32-2.74,1.32-3.81,0-6.61-.1-8.59-.15-1.98-.1-3.2-.15-3.96-.15-.1,0-.97,0-2.03.05-1.02,0-2.19.1-2.95.1-.56,0-.81-.1-.81-.41,0-.15.1-.3.41-.3.46,0,1.07-.1,1.52-.2,1.02-.2,1.27-1.32,1.47-2.79.25-2.13.25-6.15.25-11.03v-8.94Z"/>
    <path class="cls-1" d="m465.5,92.69c0-7.93,0-9.35-.1-10.98-.1-1.73-.51-2.54-2.19-2.9-.41-.1-1.27-.15-1.73-.15-.2,0-.41-.1-.41-.3,0-.3.25-.41.81-.41,2.29,0,5.49.15,5.74.15.56,0,4.42-.15,6-.15,3.2,0,6.61.3,9.3,2.24,1.27.91,3.51,3.4,3.51,6.91,0,3.76-1.58,7.52-6.15,11.74,4.17,5.34,7.62,9.86,10.57,13.01,2.74,2.9,4.93,3.45,6.2,3.66.97.15,1.68.15,1.98.15.25,0,.46.15.46.3,0,.3-.3.41-1.22.41h-3.61c-2.85,0-4.12-.25-5.44-.96-2.19-1.17-3.96-3.66-6.86-7.47-2.13-2.79-4.52-6.2-5.54-7.52-.2-.2-.36-.3-.66-.3l-6.25-.1c-.25,0-.36.15-.36.41v1.22c0,4.88,0,8.89.25,11.03.15,1.47.46,2.59,1.98,2.79.71.1,1.83.2,2.29.2.3,0,.41.15.41.3,0,.25-.25.41-.81.41-2.79,0-6-.15-6.25-.15-.05,0-3.25.15-4.78.15-.56,0-.81-.1-.81-.41,0-.15.1-.3.41-.3.46,0,1.07-.1,1.52-.2,1.02-.2,1.27-1.32,1.47-2.79.25-2.13.25-6.15.25-11.03v-8.94Zm4.06,4.42c0,.25.1.46.36.61.76.46,3.1.81,5.34.81,1.22,0,2.64-.15,3.81-.97,1.78-1.22,3.1-3.96,3.1-7.83,0-6.35-3.35-10.16-8.79-10.16-1.52,0-2.9.15-3.4.3-.25.1-.41.3-.41.61v16.62Z"/>
  </g>
</svg>